SplineFontDB: 3.0
FontName: HM_XBShafigh-Bold
FullName: HM_XBShafigh Bold
FamilyName: HM_XBShafigh
Weight: Bold
Copyright: Copyright (c) Hossein, 2013. All rights reserved.
Version: 0.11
ItalicAngle: 0
UnderlinePosition: -540
UnderlineWidth: 60
Ascent: 1638
Descent: 410
sfntRevision: 0x00010000
LayerCount: 2
Layer: 0 1 "Back"  1
Layer: 1 1 "Fore"  0
XUID: [1021 321 277747851 12300126]
FSType: 0
OS2Version: 2
OS2_WeightWidthSlopeOnly: 0
OS2_UseTypoMetrics: 1
CreationTime: 1212769980
ModificationTime: 1360911907
PfmFamily: 17
TTFWeight: 700
TTFWidth: 5
LineGap: 0
VLineGap: 0
Panose: 2 0 8 3 7 0 0 2 0 4
OS2TypoAscent: 2100
OS2TypoAOffset: 0
OS2TypoDescent: -1100
OS2TypoDOffset: 0
OS2TypoLinegap: 0
OS2WinAscent: 2100
OS2WinAOffset: 0
OS2WinDescent: 1100
OS2WinDOffset: 0
HheadAscent: 2100
HheadAOffset: 0
HheadDescent: -1100
HheadDOffset: 0
OS2SubXSize: 1434
OS2SubYSize: 1331
OS2SubXOff: 0
OS2SubYOff: 293
OS2SupXSize: 1434
OS2SupYSize: 1331
OS2SupXOff: 0
OS2SupYOff: 928
OS2StrikeYSize: 102
OS2StrikeYPos: 512
OS2Vendor: 'pars'
OS2CodePages: 20000051.41000000
OS2UnicodeRanges: 00002003.80000000.00000008.00000000
Lookup: 6 1 0 "'ccmp' Glyph Composition/Decomposition in Arabic lookup 0"  {"'ccmp' Glyph Composition/Decomposition in Arabic lookup 0 contextual 0"  "'ccmp' Glyph Composition/Decomposition in Arabic lookup 0 contextual 1"  "'ccmp' Glyph Composition/Decomposition in Arabic lookup 0 contextual 2"  "'ccmp' Glyph Composition/Decomposition in Arabic lookup 0 contextual 3"  "'ccmp' Glyph Composition/Decomposition in Arabic lookup 0 contextual 4"  "'ccmp' Glyph Composition/Decomposition in Arabic lookup 0 contextual 5"  } ['ccmp' ('arab' <'ARA ' 'DRI ' 'FAR ' 'KUR ' 'PAS ' 'URD ' 'UYG ' 'UZB ' 'dflt' > ) ]
Lookup: 4 1 0 "'ccmp' Glyph Composition/Decomposition in Arabic lookup 1"  {"'ccmp' Glyph Composition/Decomposition in Arabic lookup 1 subtable"  } ['ccmp' ('arab' <'ARA ' 'DRI ' 'FAR ' 'KUR ' 'PAS ' 'URD ' 'UYG ' 'UZB ' 'dflt' > ) ]

StartChar: .notdef
Encoding: 65536 -1 0
Width: 1239
GlyphClass: 2
Flags: W
LayerCount: 2
Fore
SplineSet
690 330 m 0,0,1
 690 296 690 296 664.5 272 c 128,-1,2
 639 248 639 248 605 248 c 256,3,4
 571 248 571 248 547.5 272.5 c 128,-1,5
 524 297 524 297 524 330 c 0,6,7
 524 365 524 365 548 389 c 128,-1,8
 572 413 572 413 609 413 c 0,9,10
 643 413 643 413 666.5 389 c 128,-1,11
 690 365 690 365 690 330 c 0,0,1
809 861 m 0,12,13
 809 812 809 812 783 783 c 128,-1,14
 757 754 757 754 715 754 c 0,15,16
 681 754 681 754 660 775 c 128,-1,17
 639 796 639 796 639 827 c 0,18,19
 639 851 639 851 650 867.5 c 128,-1,20
 661 884 661 884 674.5 895.5 c 128,-1,21
 688 907 688 907 699 915.5 c 128,-1,22
 710 924 710 924 710 931 c 0,23,24
 710 953 710 953 688.5 966.5 c 128,-1,25
 667 980 667 980 634 980 c 0,26,27
 591 980 591 980 565 956.5 c 128,-1,28
 539 933 539 933 539 898 c 0,29,30
 539 879 539 879 550.5 850.5 c 128,-1,31
 562 822 562 822 576 794 c 128,-1,32
 590 766 590 766 602.5 743.5 c 128,-1,33
 615 721 615 721 617 715 c 0,34,35
 629 683 629 683 636.5 646 c 128,-1,36
 644 609 644 609 644 566 c 0,37,38
 644 544 644 544 642.5 520.5 c 128,-1,39
 641 497 641 497 639 468 c 1,40,-1
 596 468 l 1,41,-1
 596 488 l 1,42,-1
 600 521 l 1,43,44
 600 558 600 558 551 601 c 0,45,46
 509 637 509 637 486.5 658 c 128,-1,47
 464 679 464 679 459 685 c 0,48,49
 410 743 410 743 410 817 c 0,50,51
 410 862 410 862 426.5 900 c 128,-1,52
 443 938 443 938 471.5 966 c 128,-1,53
 500 994 500 994 537.5 1010 c 128,-1,54
 575 1026 575 1026 618 1026 c 0,55,56
 658 1026 658 1026 692.5 1014.5 c 128,-1,57
 727 1003 727 1003 753 981 c 128,-1,58
 779 959 779 959 794 929 c 128,-1,59
 809 899 809 899 809 861 c 0,12,13
146 34 m 1,60,-1
 1096 34 l 1,61,-1
 1096 1239 l 1,62,-1
 146 1239 l 1,63,-1
 146 34 l 1,60,-1
111 0 m 1,64,-1
 111 1274 l 1,65,-1
 1129 1274 l 1,66,-1
 1129 0 l 1,67,-1
 111 0 l 1,64,-1
EndSplineSet
EndChar

StartChar: exclam
Encoding: 33 33 4
Width: 645
GlyphClass: 2
Flags: W
LayerCount: 2
Fore
SplineSet
445 248 m 1,0,-1
 343 64 l 1,1,-1
 100 202 l 1,2,-1
 197 386 l 1,3,-1
 445 248 l 1,0,-1
406 1519 m 1,4,5
 394 1416 394 1416 376.5 1158.5 c 128,-1,6
 359 901 359 901 337 509 c 1,7,8
 292 487 292 487 224 469 c 1,9,10
 196 597 196 597 178 811.5 c 128,-1,11
 160 1026 160 1026 150 1333 c 1,12,-1
 406 1519 l 1,4,5
EndSplineSet
EndChar

StartChar: quotedbl
Encoding: 34 34 5
Width: 660
GlyphClass: 2
Flags: W
LayerCount: 2
Fore
SplineSet
569 1124 m 2,0,1
 568 1118 568 1118 560 1112.5 c 128,-1,2
 552 1107 552 1107 539.5 1103 c 128,-1,3
 527 1099 527 1099 511.5 1097 c 128,-1,4
 496 1095 496 1095 481 1095 c 0,5,6
 455 1095 455 1095 435.5 1102 c 128,-1,7
 416 1109 416 1109 416 1124 c 1,8,-1
 377 1664 l 1,9,10
 377 1686 377 1686 386.5 1702.5 c 128,-1,11
 396 1719 396 1719 412.5 1730.5 c 128,-1,12
 429 1742 429 1742 450.5 1747.5 c 128,-1,13
 472 1753 472 1753 496 1753 c 0,14,15
 518 1753 518 1753 538.5 1747.5 c 128,-1,16
 559 1742 559 1742 574.5 1731 c 128,-1,17
 590 1720 590 1720 599.5 1703.5 c 128,-1,18
 609 1687 609 1687 609 1664 c 1,19,-1
 569 1124 l 2,0,1
244 1124 m 2,20,21
 243 1118 243 1118 235 1112.5 c 128,-1,22
 227 1107 227 1107 214 1103 c 128,-1,23
 201 1099 201 1099 185.5 1097 c 128,-1,24
 170 1095 170 1095 155 1095 c 0,25,26
 129 1095 129 1095 109.5 1102 c 128,-1,27
 90 1109 90 1109 90 1124 c 1,28,-1
 51 1664 l 1,29,30
 51 1686 51 1686 61 1702.5 c 128,-1,31
 71 1719 71 1719 88 1730.5 c 128,-1,32
 105 1742 105 1742 127 1747.5 c 128,-1,33
 149 1753 149 1753 172 1753 c 0,34,35
 194 1753 194 1753 214 1747.5 c 128,-1,36
 234 1742 234 1742 249.5 1731 c 128,-1,37
 265 1720 265 1720 274 1703.5 c 128,-1,38
 283 1687 283 1687 283 1664 c 1,39,-1
 244 1124 l 2,20,21
EndSplineSet
EndChar

StartChar: numbersign
Encoding: 35 35 6
Width: 1100
GlyphClass: 2
Flags: W
LayerCount: 2
Fore
SplineSet
591 569 m 1,0,1
 611 641 611 641 631.5 714 c 128,-1,2
 652 787 652 787 672 859 c 1,3,-1
 508 859 l 1,4,5
 488 787 488 787 469 714 c 128,-1,6
 450 641 450 641 430 569 c 1,7,-1
 591 569 l 1,0,1
26 569 m 1,8,-1
 228 569 l 1,9,10
 247 641 247 641 267.5 714 c 128,-1,11
 288 787 288 787 307 859 c 1,12,-1
 104 859 l 1,13,-1
 149 1029 l 1,14,-1
 352 1029 l 1,15,16
 378 1128 378 1128 406.5 1229.5 c 128,-1,17
 435 1331 435 1331 461 1431 c 1,18,-1
 662 1431 l 1,19,-1
 553 1029 l 1,20,-1
 717 1029 l 1,21,22
 743 1128 743 1128 770 1229.5 c 128,-1,23
 797 1331 797 1331 823 1431 c 1,24,-1
 1023 1431 l 1,25,-1
 917 1029 l 1,26,-1
 1118 1029 l 1,27,-1
 1073 859 l 1,28,-1
 873 859 l 1,29,30
 853 787 853 787 832.5 714 c 128,-1,31
 812 641 812 641 792 569 c 1,32,-1
 995 569 l 1,33,-1
 950 399 l 1,34,-1
 747 399 l 1,35,36
 721 302 721 302 693.5 200.5 c 128,-1,37
 666 99 666 99 640 0 c 1,38,-1
 439 0 l 1,39,-1
 546 399 l 1,40,-1
 384 399 l 1,41,42
 358 302 358 302 329.5 200.5 c 128,-1,43
 301 99 301 99 275 0 c 1,44,-1
 75 0 l 1,45,-1
 184 399 l 1,46,-1
 -19 399 l 1,47,-1
 26 569 l 1,8,-1
EndSplineSet
EndChar

StartChar: dollar
Encoding: 36 36 7
Width: 1139
GlyphClass: 2
Flags: W
LayerCount: 2
Fore
SplineSet
520 1230 m 1,0,1
 435 1227 435 1227 393 1183 c 128,-1,2
 351 1139 351 1139 351 1064 c 0,3,4
 351 998 351 998 390.5 954.5 c 128,-1,5
 430 911 430 911 520 882 c 1,6,-1
 520 1230 l 1,0,1
617 189 m 1,7,8
 667 196 667 196 700.5 210.5 c 128,-1,9
 734 225 734 225 754.5 248 c 128,-1,10
 775 271 775 271 784 304 c 128,-1,11
 793 337 793 337 793 382 c 0,12,13
 793 418 793 418 784 446 c 128,-1,14
 775 474 775 474 754.5 497 c 128,-1,15
 734 520 734 520 700.5 539 c 128,-1,16
 667 558 667 558 617 577 c 1,17,-1
 617 189 l 1,7,8
619 -237 m 1,18,-1
 520 -237 l 1,19,-1
 520 -38 l 1,20,21
 423 -27 423 -27 348.5 -5.5 c 128,-1,22
 274 16 274 16 226 48 c 0,23,24
 139 108 139 108 99 204 c 128,-1,25
 59 300 59 300 59 441 c 1,26,-1
 330 441 l 1,27,28
 344 317 344 317 369 273 c 1,29,30
 410 205 410 205 520 186 c 1,31,-1
 520 611 l 1,32,33
 456 630 456 630 403 648.5 c 128,-1,34
 350 667 350 667 306.5 688 c 128,-1,35
 263 709 263 709 229 734 c 128,-1,36
 195 759 195 759 170 790 c 0,37,38
 92 891 92 891 92 1032 c 0,39,40
 92 1108 92 1108 113 1173 c 128,-1,41
 134 1238 134 1238 171 1289 c 128,-1,42
 208 1340 208 1340 258 1376 c 128,-1,43
 308 1412 308 1412 366 1430 c 0,44,45
 394 1438 394 1438 432 1444.5 c 128,-1,46
 470 1451 470 1451 520 1455 c 1,47,-1
 520 1588 l 1,48,-1
 617 1588 l 1,49,-1
 617 1453 l 1,50,51
 829 1433 829 1433 935.5 1325 c 128,-1,52
 1042 1217 1042 1217 1047 1025 c 1,53,-1
 783 1025 l 1,54,55
 779 1079 779 1079 768 1117 c 128,-1,56
 757 1155 757 1155 737.5 1179.5 c 128,-1,57
 718 1204 718 1204 688.5 1216.5 c 128,-1,58
 659 1229 659 1229 617 1232 c 1,59,-1
 617 854 l 1,60,61
 732 814 732 814 814.5 776.5 c 128,-1,62
 897 739 897 739 936 709 c 0,63,64
 1071 604 1071 604 1071 412 c 0,65,66
 1071 310 1071 310 1038.5 230.5 c 128,-1,67
 1006 151 1006 151 946.5 95 c 128,-1,68
 887 39 887 39 803.5 6 c 128,-1,69
 720 -27 720 -27 619 -36 c 1,70,-1
 619 -237 l 1,18,-1
EndSplineSet
EndChar

StartChar: percent
Encoding: 37 37 8
Width: 1816
GlyphClass: 2
Flags: W
LayerCount: 2
Fore
SplineSet
580 1071 m 0,0,1
 580 1103 580 1103 567.5 1131.5 c 128,-1,2
 555 1160 555 1160 533.5 1181.5 c 128,-1,3
 512 1203 512 1203 483.5 1215.5 c 128,-1,4
 455 1228 455 1228 423 1228 c 256,5,6
 391 1228 391 1228 362 1215.5 c 128,-1,7
 333 1203 333 1203 311.5 1181.5 c 128,-1,8
 290 1160 290 1160 277.5 1131.5 c 128,-1,9
 265 1103 265 1103 265 1071 c 0,10,11
 265 1038 265 1038 277.5 1009.5 c 128,-1,12
 290 981 290 981 311.5 959.5 c 128,-1,13
 333 938 333 938 361.5 925.5 c 128,-1,14
 390 913 390 913 423 913 c 0,15,16
 455 913 455 913 483.5 925.5 c 128,-1,17
 512 938 512 938 533.5 959.5 c 128,-1,18
 555 981 555 981 567.5 1009.5 c 128,-1,19
 580 1038 580 1038 580 1071 c 0,0,1
1393 501 m 256,20,21
 1361 501 1361 501 1332.5 488.5 c 128,-1,22
 1304 476 1304 476 1282.5 454.5 c 128,-1,23
 1261 433 1261 433 1248.5 404.5 c 128,-1,24
 1236 376 1236 376 1236 344 c 0,25,26
 1236 311 1236 311 1248.5 282 c 128,-1,27
 1261 253 1261 253 1282 232 c 128,-1,28
 1303 211 1303 211 1331.5 198.5 c 128,-1,29
 1360 186 1360 186 1393 186 c 0,30,31
 1425 186 1425 186 1454 198.5 c 128,-1,32
 1483 211 1483 211 1504.5 232.5 c 128,-1,33
 1526 254 1526 254 1538.5 283 c 128,-1,34
 1551 312 1551 312 1551 344 c 256,35,36
 1551 376 1551 376 1538.5 404 c 128,-1,37
 1526 432 1526 432 1504 454 c 128,-1,38
 1482 476 1482 476 1453.5 488.5 c 128,-1,39
 1425 501 1425 501 1393 501 c 256,20,21
1235 1450 m 1,40,-1
 1388 1450 l 1,41,-1
 579 -38 l 1,42,-1
 423 -38 l 1,43,-1
 1235 1450 l 1,40,-1
423 698 m 256,44,45
 346 698 346 698 278 727.5 c 128,-1,46
 210 757 210 757 159.5 807.5 c 128,-1,47
 109 858 109 858 79.5 926 c 128,-1,48
 50 994 50 994 50 1071 c 256,49,50
 50 1148 50 1148 79.5 1215.5 c 128,-1,51
 109 1283 109 1283 160 1333.5 c 128,-1,52
 211 1384 211 1384 279 1413.5 c 128,-1,53
 347 1443 347 1443 423 1443 c 0,54,55
 500 1443 500 1443 567.5 1413.5 c 128,-1,56
 635 1384 635 1384 685.5 1333.5 c 128,-1,57
 736 1283 736 1283 765.5 1215.5 c 128,-1,58
 795 1148 795 1148 795 1071 c 0,59,60
 795 995 795 995 766 927 c 128,-1,61
 737 859 737 859 686.5 808 c 128,-1,62
 636 757 636 757 568 727.5 c 128,-1,63
 500 698 500 698 423 698 c 256,44,45
1393 -29 m 0,64,65
 1317 -29 1317 -29 1249 0.5 c 128,-1,66
 1181 30 1181 30 1130.5 80.5 c 128,-1,67
 1080 131 1080 131 1050.5 199 c 128,-1,68
 1021 267 1021 267 1021 344 c 256,69,70
 1021 421 1021 421 1050.5 488.5 c 128,-1,71
 1080 556 1080 556 1130.5 606.5 c 128,-1,72
 1181 657 1181 657 1249 686.5 c 128,-1,73
 1317 716 1317 716 1393 716 c 0,74,75
 1470 716 1470 716 1537.5 686.5 c 128,-1,76
 1605 657 1605 657 1656 606.5 c 128,-1,77
 1707 556 1707 556 1736.5 488.5 c 128,-1,78
 1766 421 1766 421 1766 344 c 256,79,80
 1766 267 1766 267 1736.5 199 c 128,-1,81
 1707 131 1707 131 1656.5 80.5 c 128,-1,82
 1606 30 1606 30 1538 0.5 c 128,-1,83
 1470 -29 1470 -29 1393 -29 c 0,64,65
EndSplineSet
Ligature2: "<17006,16006> Roman in Arabic lookup 82 subtable" zero fraction zero
Ligature2: "<17006,16006> Roman in Arabic lookup 82 subtable" zero slash zero
Ligature2: "Ligature Substitution lookup 49 subtable" zero fraction zero
Ligature2: "Ligature Substitution lookup 49 subtable" zero slash zero
EndChar

StartChar: ampersand
Encoding: 38 38 9
Width: 1479
GlyphClass: 2
Flags: W
LayerCount: 2
Fore
SplineSet
581 1054 m 1,0,1
 589 1040 589 1040 609.5 1013 c 128,-1,2
 630 986 630 986 658 952 c 1,3,4
 696 979 696 979 722 1001.5 c 128,-1,5
 748 1024 748 1024 764 1046 c 128,-1,6
 780 1068 780 1068 786.5 1090 c 128,-1,7
 793 1112 793 1112 793 1137 c 0,8,9
 793 1159 793 1159 785.5 1180 c 128,-1,10
 778 1201 778 1201 763 1217.5 c 128,-1,11
 748 1234 748 1234 725.5 1244 c 128,-1,12
 703 1254 703 1254 673 1254 c 0,13,14
 649 1254 649 1254 627.5 1245.5 c 128,-1,15
 606 1237 606 1237 589.5 1222 c 128,-1,16
 573 1207 573 1207 563 1185 c 128,-1,17
 553 1163 553 1163 553 1136 c 0,18,19
 553 1094 553 1094 581 1054 c 1,0,1
607 205 m 0,20,21
 641 205 641 205 673.5 213.5 c 128,-1,22
 706 222 706 222 736 236.5 c 128,-1,23
 766 251 766 251 792 269.5 c 128,-1,24
 818 288 818 288 839 309 c 1,25,26
 772 391 772 391 705 473.5 c 128,-1,27
 638 556 638 556 571 640 c 1,28,29
 519 604 519 604 485 574.5 c 128,-1,30
 451 545 451 545 431.5 517 c 128,-1,31
 412 489 412 489 404.5 460 c 128,-1,32
 397 431 397 431 397 398 c 0,33,34
 397 363 397 363 412.5 328.5 c 128,-1,35
 428 294 428 294 456 266.5 c 128,-1,36
 484 239 484 239 522.5 222 c 128,-1,37
 561 205 561 205 607 205 c 0,20,21
422 824 m 1,38,39
 362 894 362 894 326 971 c 128,-1,40
 290 1048 290 1048 290 1126 c 0,41,42
 290 1206 290 1206 318.5 1270 c 128,-1,43
 347 1334 347 1334 398.5 1378 c 128,-1,44
 450 1422 450 1422 521.5 1445.5 c 128,-1,45
 593 1469 593 1469 678 1469 c 0,46,47
 756 1469 756 1469 822 1444.5 c 128,-1,48
 888 1420 888 1420 937 1376.5 c 128,-1,49
 986 1333 986 1333 1013.5 1272 c 128,-1,50
 1041 1211 1041 1211 1041 1139 c 0,51,52
 1041 1011 1041 1011 979 928 c 0,53,54
 949 888 949 888 904.5 851 c 128,-1,55
 860 814 860 814 800 779 c 1,56,57
 851 716 851 716 903.5 651 c 128,-1,58
 956 586 956 586 1007 523 c 1,59,60
 1042 574 1042 574 1061.5 634.5 c 128,-1,61
 1081 695 1081 695 1082 764 c 1,62,-1
 1336 764 l 1,63,64
 1330 626 1330 626 1272 492 c 0,65,66
 1255 454 1255 454 1229.5 411 c 128,-1,67
 1204 368 1204 368 1169 323 c 1,68,69
 1235 245 1235 245 1303.5 161.5 c 128,-1,70
 1372 78 1372 78 1438 0 c 1,71,-1
 1089 0 l 1,72,-1
 988 124 l 1,73,74
 954 93 954 93 917.5 66.5 c 128,-1,75
 881 40 881 40 850 23 c 0,76,77
 794 -7 794 -7 727 -20.5 c 128,-1,78
 660 -34 660 -34 587 -36 c 1,79,80
 364 -36 364 -36 237 96 c 1,81,82
 177 162 177 162 144 236.5 c 128,-1,83
 111 311 111 311 111 389 c 0,84,85
 111 524 111 524 177 618 c 0,86,87
 211 666 211 666 264.5 713 c 128,-1,88
 318 760 318 760 393 806 c 2,89,-1
 422 824 l 1,38,39
EndSplineSet
EndChar

StartChar: quotesingle
Encoding: 39 39 10
Width: 334
GlyphClass: 2
Flags: W
LayerCount: 2
Fore
SplineSet
244 1124 m 2,0,1
 243 1118 243 1118 235 1112.5 c 128,-1,2
 227 1107 227 1107 214 1103 c 128,-1,3
 201 1099 201 1099 185.5 1097 c 128,-1,4
 170 1095 170 1095 155 1095 c 0,5,6
 129 1095 129 1095 109.5 1102 c 128,-1,7
 90 1109 90 1109 90 1124 c 1,8,-1
 51 1664 l 1,9,10
 51 1686 51 1686 61 1702.5 c 128,-1,11
 71 1719 71 1719 88 1730.5 c 128,-1,12
 105 1742 105 1742 127 1747.5 c 128,-1,13
 149 1753 149 1753 172 1753 c 0,14,15
 194 1753 194 1753 214 1747.5 c 128,-1,16
 234 1742 234 1742 249.5 1731 c 128,-1,17
 265 1720 265 1720 274 1703.5 c 128,-1,18
 283 1687 283 1687 283 1664 c 1,19,-1
 244 1124 l 2,0,1
EndSplineSet
EndChar

StartChar: parenleft
Encoding: 40 40 11
Width: 714
GlyphClass: 2
Flags: W
LayerCount: 2
Fore
SplineSet
593 -379 m 1,0,1
 614 -403 614 -403 614 -434 c 0,2,3
 614 -457 614 -457 604 -468 c 128,-1,4
 594 -479 594 -479 571 -479 c 0,5,6
 562 -479 562 -479 549.5 -474 c 128,-1,7
 537 -469 537 -469 528 -461 c 0,8,9
 491 -428 491 -428 451 -386 c 128,-1,10
 411 -344 411 -344 372 -295.5 c 128,-1,11
 333 -247 333 -247 297.5 -194 c 128,-1,12
 262 -141 262 -141 236 -86 c 0,13,14
 212 -35 212 -35 197 9 c 128,-1,15
 182 53 182 53 169 96 c 1,16,-1
 170 96 l 1,17,18
 166 110 166 110 161 126 c 128,-1,19
 156 142 156 142 151 158 c 128,-1,20
 146 174 146 174 141.5 188.5 c 128,-1,21
 137 203 137 203 133 213 c 1,22,23
 117 283 117 283 109.5 356.5 c 128,-1,24
 102 430 102 430 100 502 c 1,25,26
 100 651 100 651 136 792 c 128,-1,27
 172 933 172 933 238 1078 c 0,28,29
 301 1214 301 1214 375 1310 c 128,-1,30
 449 1406 449 1406 528 1469 c 0,31,32
 556 1491 556 1491 575 1491 c 0,33,34
 614 1491 614 1491 614 1449 c 0,35,36
 614 1438 614 1438 610 1423.5 c 128,-1,37
 606 1409 606 1409 596 1393 c 0,38,39
 456 1154 456 1154 383 933.5 c 128,-1,40
 310 713 310 713 310 502 c 0,41,42
 310 374 310 374 332.5 248 c 128,-1,43
 355 122 355 122 398 -14 c 1,44,-1
 397 -14 l 1,45,46
 436 -120 436 -120 485.5 -213 c 128,-1,47
 535 -306 535 -306 593 -379 c 1,0,1
EndSplineSet
Substitution2: "Single Substitution lookup 41 subtable" zerowidthspace
EndChar

StartChar: parenright
Encoding: 41 41 12
Width: 814
GlyphClass: 2
Flags: W
LayerCount: 2
Fore
SplineSet
120 1393 m 1,0,1
 100 1425 100 1425 100 1447 c 0,2,3
 100 1492 100 1492 141 1492 c 0,4,5
 152 1492 152 1492 164.5 1486.5 c 128,-1,6
 177 1481 177 1481 186 1474 c 0,7,8
 270 1411 270 1411 343.5 1318.5 c 128,-1,9
 417 1226 417 1226 478 1096 c 0,10,11
 544 954 544 954 579 809.5 c 128,-1,12
 614 665 614 665 614 505 c 0,13,14
 614 367 614 367 578 219.5 c 128,-1,15
 542 72 542 72 476 -69 c 0,16,17
 418 -193 418 -193 340 -293 c 128,-1,18
 262 -393 262 -393 184 -457 c 0,19,20
 178 -463 178 -463 166 -471 c 128,-1,21
 154 -479 154 -479 137 -479 c 0,22,23
 100 -479 100 -479 100 -436 c 0,24,25
 100 -428 100 -428 104.5 -411.5 c 128,-1,26
 109 -395 109 -395 118 -381 c 1,27,-1
 117 -381 l 1,28,29
 264 -140 264 -140 334.5 78 c 128,-1,30
 405 296 405 296 405 505 c 0,31,32
 405 626 405 626 382 756 c 128,-1,33
 359 886 359 886 314 1024 c 1,34,-1
 315 1024 l 1,35,36
 277 1136 277 1136 230 1227 c 128,-1,37
 183 1318 183 1318 120 1393 c 1,0,1
EndSplineSet
Substitution2: "Single Substitution lookup 41 subtable" zerowidthspace
EndChar

StartChar: asterisk
Encoding: 42 42 13
Width: 787
GlyphClass: 2
Flags: W
LayerCount: 2
Fore
SplineSet
97 1310 m 1,0,-1
 306 1242 l 1,1,-1
 306 1483 l 1,2,-1
 481 1483 l 1,3,-1
 481 1242 l 1,4,5
 532 1259 532 1259 585.5 1276.5 c 128,-1,6
 639 1294 639 1294 690 1310 c 1,7,-1
 737 1159 l 1,8,-1
 525 1094 l 1,9,10
 559 1046 559 1046 594.5 995.5 c 128,-1,11
 630 945 630 945 664 896 c 1,12,-1
 534 803 l 1,13,-1
 395 991 l 1,14,15
 361 946 361 946 323.5 897 c 128,-1,16
 286 848 286 848 252 803 c 1,17,-1
 122 896 l 1,18,-1
 262 1094 l 1,19,20
 208 1111 208 1111 156 1126.5 c 128,-1,21
 104 1142 104 1142 50 1159 c 1,22,-1
 97 1310 l 1,0,-1
EndSplineSet
EndChar

StartChar: plus
Encoding: 43 43 14
Width: 1100
GlyphClass: 2
Flags: W
LayerCount: 2
Fore
SplineSet
111 461 m 1,0,-1
 111 673 l 1,1,-1
 441 673 l 1,2,-1
 441 1003 l 1,3,-1
 655 1003 l 1,4,-1
 655 673 l 1,5,-1
 985 673 l 1,6,-1
 985 461 l 1,7,-1
 655 461 l 1,8,-1
 656 129 l 1,9,-1
 442 129 l 1,10,-1
 441 461 l 1,11,-1
 111 461 l 1,0,-1
EndSplineSet
EndChar

StartChar: comma
Encoding: 44 44 15
Width: 563
GlyphClass: 2
Flags: W
LayerCount: 2
Fore
SplineSet
114 -235 m 1,0,1
 199 -212 199 -212 239 -154.5 c 128,-1,2
 279 -97 279 -97 287 0 c 1,3,-1
 114 0 l 1,4,-1
 114 300 l 1,5,-1
 424 300 l 1,6,-1
 424 41 l 2,7,8
 424 7 424 7 419.5 -29.5 c 128,-1,9
 415 -66 415 -66 405.5 -101.5 c 128,-1,10
 396 -137 396 -137 379.5 -170 c 128,-1,11
 363 -203 363 -203 339 -230 c 0,12,13
 314 -258 314 -258 281 -279.5 c 128,-1,14
 248 -301 248 -301 215.5 -316 c 128,-1,15
 183 -331 183 -331 155.5 -339 c 128,-1,16
 128 -347 128 -347 114 -347 c 1,17,-1
 114 -235 l 1,0,1
EndSplineSet
EndChar

StartChar: hyphen
Encoding: 45 45 16
AltUni2: 0000ad.ffffffff.0 002212.ffffffff.0
Width: 1100
GlyphClass: 2
Flags: W
LayerCount: 2
Fore
SplineSet
114 697 m 1,0,-1
 986 697 l 1,1,-1
 986 445 l 1,2,-1
 114 445 l 1,3,-1
 114 697 l 1,0,-1
EndSplineSet
Substitution2: "<17026,18026>  lookup 78 nested-substitutions 0 subtable" hyphenlow
Substitution2: "<17026,16026>  lookup 76 nested-substitutions 0 subtable" hyphenlow
Substitution2: "Single Substitution lookup 41 subtable" hyphenlow
EndChar

StartChar: period
Encoding: 46 46 17
Width: 645
GlyphClass: 2
Flags: W
LayerCount: 2
Fore
SplineSet
445 328 m 1,0,-1
 343 144 l 1,1,-1
 100 282 l 1,2,-1
 197 466 l 1,3,-1
 445 328 l 1,0,-1
EndSplineSet
Substitution2: "<17001,16003> Urdu lookup 85 subtable" uni06D4
Substitution2: "<17008,16008> Numeric Comma in Arabic lookup 80 nested-substitutions 0 subtable" uni066C
Substitution2: "Single Substitution lookup 41 subtable" uni066C
EndChar

StartChar: slash
Encoding: 47 47 18
Width: 563
GlyphClass: 2
Flags: W
LayerCount: 2
Fore
SplineSet
455 1519 m 1,0,-1
 693 1519 l 1,1,-1
 121 0 l 1,2,-1
 -115 0 l 1,3,-1
 455 1519 l 1,0,-1
EndSplineSet
Substitution2: "<17001,16003> Urdu lookup 85 subtable" slash
EndChar

StartChar: zero
Encoding: 48 48 19
Width: 1100
GlyphClass: 2
Flags: W
LayerCount: 2
Fore
SplineSet
549 198 m 0,0,1
 613 198 613 198 653 231.5 c 128,-1,2
 693 265 693 265 715.5 330 c 128,-1,3
 738 395 738 395 746 491 c 128,-1,4
 754 587 754 587 754 711 c 0,5,6
 754 842 754 842 745.5 938.5 c 128,-1,7
 737 1035 737 1035 714.5 1098 c 128,-1,8
 692 1161 692 1161 652 1192 c 128,-1,9
 612 1223 612 1223 549 1223 c 0,10,11
 485 1223 485 1223 444.5 1191.5 c 128,-1,12
 404 1160 404 1160 381 1096.5 c 128,-1,13
 358 1033 358 1033 349.5 936.5 c 128,-1,14
 341 840 341 840 341 711 c 0,15,16
 341 593 341 593 352.5 494 c 128,-1,17
 364 395 364 395 382 329 c 1,18,19
 403 266 403 266 444.5 232 c 128,-1,20
 486 198 486 198 549 198 c 0,0,1
1049 711 m 0,21,22
 1049 351 1049 351 937 158 c 1,23,-1
 937 159 l 1,24,25
 826 -36 826 -36 549 -36 c 0,26,27
 409 -36 409 -36 313.5 14 c 128,-1,28
 218 64 218 64 159 159.5 c 128,-1,29
 100 255 100 255 74.5 394 c 128,-1,30
 49 533 49 533 49 711 c 256,31,32
 49 889 49 889 74.5 1028 c 128,-1,33
 100 1167 100 1167 159 1263 c 128,-1,34
 218 1359 218 1359 313.5 1409.5 c 128,-1,35
 409 1460 409 1460 549 1460 c 0,36,37
 826 1460 826 1460 937 1264 c 0,38,39
 1049 1067 1049 1067 1049 711 c 0,21,22
EndSplineSet
Substitution2: "<17001,16003> Urdu lookup 85 subtable" zero
EndChar

StartChar: one
Encoding: 49 49 20
Width: 1100
GlyphClass: 2
Flags: W
LayerCount: 2
Fore
SplineSet
232 999 m 1,0,-1
 232 1194 l 1,1,2
 370 1200 370 1200 422 1212 c 0,3,4
 461 1221 461 1221 497 1240 c 128,-1,5
 533 1259 533 1259 561 1288 c 128,-1,6
 589 1317 589 1317 607 1357.5 c 128,-1,7
 625 1398 625 1398 628 1450 c 1,8,-1
 867 1450 l 1,9,-1
 867 0 l 1,10,-1
 573 0 l 1,11,-1
 573 999 l 1,12,-1
 232 999 l 1,0,-1
EndSplineSet
Substitution2: "<17001,16003> Urdu lookup 85 subtable" one
EndChar

StartChar: two
Encoding: 50 50 21
Width: 1100
GlyphClass: 2
Flags: W
LayerCount: 2
Fore
SplineSet
120 286 m 1,0,1
 150 356 150 356 226 435.5 c 128,-1,2
 302 515 302 515 407 593 c 0,3,4
 451 625 451 625 491 655 c 128,-1,5
 531 685 531 685 564 711 c 128,-1,6
 597 737 597 737 622 758.5 c 128,-1,7
 647 780 647 780 662 795 c 0,8,9
 705 840 705 840 728 894 c 128,-1,10
 751 948 751 948 751 1002 c 0,11,12
 751 1046 751 1046 738 1084.5 c 128,-1,13
 725 1123 725 1123 700 1152 c 128,-1,14
 675 1181 675 1181 638.5 1197.5 c 128,-1,15
 602 1214 602 1214 555 1214 c 0,16,17
 503 1214 503 1214 465 1200.5 c 128,-1,18
 427 1187 427 1187 401.5 1155 c 128,-1,19
 376 1123 376 1123 363 1070.5 c 128,-1,20
 350 1018 350 1018 347 940 c 1,21,-1
 69 940 l 1,22,23
 91 1457 91 1457 541 1457 c 0,24,25
 656 1457 656 1457 749 1423.5 c 128,-1,26
 842 1390 842 1390 907 1328.5 c 128,-1,27
 972 1267 972 1267 1007.5 1181.5 c 128,-1,28
 1043 1096 1043 1096 1043 992 c 0,29,30
 1043 831 1043 831 947 705 c 0,31,32
 885 622 885 622 741 520 c 2,33,-1
 627 439 l 2,34,35
 575 402 575 402 541 377.5 c 128,-1,36
 507 353 507 353 484.5 333.5 c 128,-1,37
 462 314 462 314 446.5 296 c 128,-1,38
 431 278 431 278 415 253 c 1,39,-1
 1046 253 l 1,40,-1
 1046 0 l 1,41,-1
 53 0 l 1,42,43
 55 79 55 79 72 150.5 c 128,-1,44
 89 222 89 222 120 286 c 1,0,1
EndSplineSet
Substitution2: "<17001,16003> Urdu lookup 85 subtable" two
EndChar

StartChar: three
Encoding: 51 51 22
Width: 1100
GlyphClass: 2
Flags: W
LayerCount: 2
Fore
SplineSet
329 446 m 1,0,1
 329 320 329 320 384 259 c 128,-1,2
 439 198 439 198 545 198 c 0,3,4
 587 198 587 198 624.5 213 c 128,-1,5
 662 228 662 228 690.5 256.5 c 128,-1,6
 719 285 719 285 736 326 c 128,-1,7
 753 367 753 367 753 419 c 0,8,9
 753 560 753 560 638 609 c 0,10,11
 574 636 574 636 429 636 c 1,12,-1
 429 842 l 1,13,14
 515 843 515 843 570.5 854 c 128,-1,15
 626 865 626 865 659 888.5 c 128,-1,16
 692 912 692 912 705 948.5 c 128,-1,17
 718 985 718 985 718 1038 c 0,18,19
 718 1079 718 1079 705.5 1113 c 128,-1,20
 693 1147 693 1147 669.5 1171.5 c 128,-1,21
 646 1196 646 1196 612 1209.5 c 128,-1,22
 578 1223 578 1223 534 1223 c 0,23,24
 483 1223 483 1223 446.5 1206.5 c 128,-1,25
 410 1190 410 1190 386.5 1159.5 c 128,-1,26
 363 1129 363 1129 352 1085.5 c 128,-1,27
 341 1042 341 1042 341 989 c 1,28,-1
 74 989 l 1,29,30
 79 1100 79 1100 111 1194 c 1,31,32
 148 1281 148 1281 220 1352 c 1,33,34
 277 1403 277 1403 353.5 1430 c 128,-1,35
 430 1457 430 1457 543 1457 c 0,36,37
 646 1457 646 1457 731 1429 c 128,-1,38
 816 1401 816 1401 877 1349 c 128,-1,39
 938 1297 938 1297 972 1224 c 128,-1,40
 1006 1151 1006 1151 1006 1061 c 0,41,42
 1006 1013 1006 1013 993 967.5 c 128,-1,43
 980 922 980 922 957.5 883 c 128,-1,44
 935 844 935 844 904 815 c 128,-1,45
 873 786 873 786 836 771 c 1,46,47
 876 767 876 767 942 704 c 0,48,49
 996 653 996 653 1023.5 584 c 128,-1,50
 1051 515 1051 515 1051 427 c 0,51,52
 1051 243 1051 243 923 103 c 0,53,54
 797 -36 797 -36 546 -36 c 0,55,56
 308 -36 308 -36 183.5 81.5 c 128,-1,57
 59 199 59 199 48 446 c 1,58,-1
 329 446 l 1,0,1
EndSplineSet
Substitution2: "<17001,16003> Urdu lookup 85 subtable" three
EndChar

StartChar: four
Encoding: 52 52 23
Width: 1100
GlyphClass: 2
Flags: W
LayerCount: 2
Fore
SplineSet
614 536 m 1,0,-1
 614 1156 l 1,1,2
 523 1000 523 1000 434 846.5 c 128,-1,3
 345 693 345 693 254 536 c 1,4,-1
 614 536 l 1,0,-1
1058 312 m 1,5,-1
 895 312 l 1,6,-1
 895 0 l 1,7,-1
 614 0 l 1,8,-1
 614 312 l 1,9,-1
 41 312 l 1,10,-1
 41 562 l 1,11,-1
 573 1441 l 1,12,-1
 895 1441 l 1,13,-1
 895 536 l 1,14,-1
 1058 536 l 1,15,-1
 1058 312 l 1,5,-1
EndSplineSet
Substitution2: "<17001,16003> Urdu lookup 85 subtable" four
EndChar

StartChar: five
Encoding: 53 53 24
Width: 1100
GlyphClass: 2
Flags: W
LayerCount: 2
Fore
SplineSet
333 389 m 1,0,1
 350 296 350 296 398 246 c 128,-1,2
 446 196 446 196 537 196 c 0,3,4
 590 196 590 196 630.5 216.5 c 128,-1,5
 671 237 671 237 698 272.5 c 128,-1,6
 725 308 725 308 739 355 c 128,-1,7
 753 402 753 402 753 456 c 0,8,9
 753 509 753 509 740.5 556.5 c 128,-1,10
 728 604 728 604 701.5 640 c 128,-1,11
 675 676 675 676 635 697.5 c 128,-1,12
 595 719 595 719 540 719 c 0,13,14
 467 719 467 719 421.5 693.5 c 128,-1,15
 376 668 376 668 349 617 c 1,16,-1
 93 629 l 1,17,-1
 194 1431 l 1,18,-1
 994 1431 l 1,19,-1
 994 1187 l 1,20,-1
 402 1187 l 1,21,22
 389 1109 389 1109 376 1031 c 128,-1,23
 363 953 363 953 350 875 c 1,24,25
 388 899 388 899 417.5 914.5 c 128,-1,26
 447 930 447 930 475 938.5 c 128,-1,27
 503 947 503 947 533 950 c 128,-1,28
 563 953 563 953 603 953 c 0,29,30
 692 953 692 953 773.5 922 c 128,-1,31
 855 891 855 891 916.5 831 c 128,-1,32
 978 771 978 771 1014.5 682.5 c 128,-1,33
 1051 594 1051 594 1051 479 c 0,34,35
 1051 278 1051 278 922 120 c 0,36,37
 794 -38 794 -38 536 -38 c 0,38,39
 434 -38 434 -38 348 -10 c 128,-1,40
 262 18 262 18 198 72.5 c 128,-1,41
 134 127 134 127 95 206.5 c 128,-1,42
 56 286 56 286 48 389 c 1,43,-1
 333 389 l 1,0,1
EndSplineSet
Substitution2: "<17001,16003> Urdu lookup 85 subtable" five
EndChar

StartChar: six
Encoding: 54 54 25
Width: 1100
GlyphClass: 2
Flags: W
LayerCount: 2
Fore
SplineSet
558 196 m 256,0,1
 606 196 606 196 643.5 215.5 c 128,-1,2
 681 235 681 235 707 269 c 128,-1,3
 733 303 733 303 747 349.5 c 128,-1,4
 761 396 761 396 761 451 c 0,5,6
 761 514 761 514 744 562.5 c 128,-1,7
 727 611 727 611 698 644.5 c 128,-1,8
 669 678 669 678 630.5 695 c 128,-1,9
 592 712 592 712 548 712 c 0,10,11
 502 712 502 712 463 694.5 c 128,-1,12
 424 677 424 677 395.5 644.5 c 128,-1,13
 367 612 367 612 351.5 565 c 128,-1,14
 336 518 336 518 336 459 c 0,15,16
 336 402 336 402 353 354 c 128,-1,17
 370 306 370 306 399.5 270.5 c 128,-1,18
 429 235 429 235 469.5 215.5 c 128,-1,19
 510 196 510 196 558 196 c 256,0,1
735 1083 m 1,20,21
 735 1111 735 1111 722 1137 c 128,-1,22
 709 1163 709 1163 687 1183.5 c 128,-1,23
 665 1204 665 1204 635 1216 c 128,-1,24
 605 1228 605 1228 570 1228 c 0,25,26
 514 1228 514 1228 472.5 1205 c 128,-1,27
 431 1182 431 1182 402 1133 c 128,-1,28
 373 1084 373 1084 355.5 1007.5 c 128,-1,29
 338 931 338 931 329 824 c 1,30,31
 383 887 383 887 451.5 914.5 c 128,-1,32
 520 942 520 942 611 942 c 0,33,34
 709 942 709 942 789.5 907 c 128,-1,35
 870 872 870 872 928.5 809.5 c 128,-1,36
 987 747 987 747 1019 661.5 c 128,-1,37
 1051 576 1051 576 1051 475 c 0,38,39
 1051 271 1051 271 930 117 c 1,40,41
 810 -38 810 -38 554 -38 c 0,42,43
 433 -38 433 -38 339 9 c 128,-1,44
 245 56 245 56 180.5 144.5 c 128,-1,45
 116 233 116 233 82.5 361.5 c 128,-1,46
 49 490 49 490 49 653 c 0,47,48
 49 738 49 738 52.5 804.5 c 128,-1,49
 56 871 56 871 63 923 c 0,50,51
 78 1037 78 1037 116.5 1135.5 c 128,-1,52
 155 1234 155 1234 217 1307 c 128,-1,53
 279 1380 279 1380 365 1422 c 128,-1,54
 451 1464 451 1464 563 1464 c 0,55,56
 663 1464 663 1464 744.5 1437 c 128,-1,57
 826 1410 826 1410 884.5 1360.5 c 128,-1,58
 943 1311 943 1311 978 1240.5 c 128,-1,59
 1013 1170 1013 1170 1020 1083 c 1,60,-1
 735 1083 l 1,20,21
EndSplineSet
Substitution2: "<17001,16003> Urdu lookup 85 subtable" six
EndChar

StartChar: seven
Encoding: 55 55 26
Width: 1100
GlyphClass: 2
Flags: W
LayerCount: 2
Fore
SplineSet
1064 1206 m 1,0,1
 1002 1146 1002 1146 887 982 c 0,2,3
 772 819 772 819 696 650 c 0,4,5
 665 581 665 581 638 499.5 c 128,-1,6
 611 418 611 418 586 321 c 0,7,8
 537 129 537 129 537 0 c 1,9,-1
 239 0 l 1,10,11
 252 391 252 391 495 812 c 1,12,13
 649 1069 649 1069 756 1173 c 1,14,-1
 36 1173 l 1,15,-1
 36 1431 l 1,16,-1
 1064 1431 l 1,17,-1
 1064 1206 l 1,0,1
EndSplineSet
Substitution2: "<17001,16003> Urdu lookup 85 subtable" seven
EndChar

StartChar: eight
Encoding: 56 56 27
Width: 1100
GlyphClass: 2
Flags: W
LayerCount: 2
Fore
SplineSet
551 866 m 256,0,1
 594 866 594 866 627.5 879 c 128,-1,2
 661 892 661 892 684.5 916 c 128,-1,3
 708 940 708 940 720 972.5 c 128,-1,4
 732 1005 732 1005 732 1044 c 0,5,6
 732 1129 732 1129 685.5 1177 c 128,-1,7
 639 1225 639 1225 551 1225 c 0,8,9
 464 1225 464 1225 416.5 1177 c 128,-1,10
 369 1129 369 1129 369 1044 c 0,11,12
 369 1005 369 1005 381.5 972.5 c 128,-1,13
 394 940 394 940 417.5 916 c 128,-1,14
 441 892 441 892 474.5 879 c 128,-1,15
 508 866 508 866 551 866 c 256,0,1
551 198 m 256,16,17
 650 198 650 198 704.5 256.5 c 128,-1,18
 759 315 759 315 759 421 c 0,19,20
 759 533 759 533 703.5 589.5 c 128,-1,21
 648 646 648 646 551 646 c 256,22,23
 454 646 454 646 398.5 589.5 c 128,-1,24
 343 533 343 533 343 421 c 0,25,26
 343 315 343 315 397.5 256.5 c 128,-1,27
 452 198 452 198 551 198 c 256,16,17
101 623 m 1,28,29
 156 723 156 723 261 772 c 1,30,31
 210 807 210 807 177.5 846 c 128,-1,32
 145 885 145 885 127 924 c 128,-1,33
 109 963 109 963 102.5 1001.5 c 128,-1,34
 96 1040 96 1040 96 1075 c 0,35,36
 96 1155 96 1155 127 1224.5 c 128,-1,37
 158 1294 158 1294 216.5 1345.5 c 128,-1,38
 275 1397 275 1397 359.5 1427 c 128,-1,39
 444 1457 444 1457 551 1457 c 0,40,41
 659 1457 659 1457 743.5 1427 c 128,-1,42
 828 1397 828 1397 886.5 1345.5 c 128,-1,43
 945 1294 945 1294 975.5 1224.5 c 128,-1,44
 1006 1155 1006 1155 1006 1075 c 0,45,46
 1006 1043 1006 1043 1000 1004.5 c 128,-1,47
 994 966 994 966 976 927 c 128,-1,48
 958 888 958 888 925.5 850.5 c 128,-1,49
 893 813 893 813 840 782 c 1,50,51
 948 721 948 721 1000.5 623 c 128,-1,52
 1053 525 1053 525 1053 402 c 0,53,54
 1053 313 1053 313 1019 233 c 128,-1,55
 985 153 985 153 919.5 93 c 128,-1,56
 854 33 854 33 758.5 -2.5 c 128,-1,57
 663 -38 663 -38 539 -38 c 256,58,59
 415 -38 415 -38 322 -2.5 c 128,-1,60
 229 33 229 33 168 93.5 c 128,-1,61
 107 154 107 154 76.5 234 c 128,-1,62
 46 314 46 314 46 402 c 0,63,64
 46 526 46 526 101 623 c 1,28,29
EndSplineSet
Substitution2: "<17001,16003> Urdu lookup 85 subtable" eight
EndChar

StartChar: nine
Encoding: 57 57 28
Width: 1100
GlyphClass: 2
Flags: W
LayerCount: 2
Fore
SplineSet
659 743 m 1,0,1
 756 804 756 804 756 957 c 0,2,3
 756 1018 756 1018 741 1067 c 128,-1,4
 726 1116 726 1116 698.5 1150.5 c 128,-1,5
 671 1185 671 1185 631.5 1203.5 c 128,-1,6
 592 1222 592 1222 542 1222 c 0,7,8
 445 1222 445 1222 390.5 1154.5 c 128,-1,9
 336 1087 336 1087 336 966 c 0,10,11
 336 836 336 836 388 772.5 c 128,-1,12
 440 709 440 709 549 709 c 0,13,14
 607 709 607 709 659 743 c 1,0,1
530 1462 m 0,15,16
 792 1462 792 1462 923 1279 c 128,-1,17
 1054 1096 1054 1096 1054 732 c 0,18,19
 1054 549 1054 549 1019.5 405.5 c 128,-1,20
 985 262 985 262 917 162.5 c 128,-1,21
 849 63 849 63 748.5 10.5 c 128,-1,22
 648 -42 648 -42 517 -42 c 0,23,24
 437 -42 437 -42 361.5 -18 c 128,-1,25
 286 6 286 6 225.5 53.5 c 128,-1,26
 165 101 165 101 125 172 c 128,-1,27
 85 243 85 243 75 338 c 1,28,-1
 360 338 l 1,29,30
 370 274 370 274 414 234 c 128,-1,31
 458 194 458 194 530 194 c 0,32,33
 585 194 585 194 627 216.5 c 128,-1,34
 669 239 669 239 698.5 287.5 c 128,-1,35
 728 336 728 336 744.5 412 c 128,-1,36
 761 488 761 488 766 596 c 1,37,38
 715 533 715 533 648 504 c 128,-1,39
 581 475 581 475 487 475 c 0,40,41
 314 475 314 475 180 594 c 0,42,43
 46 714 46 714 46 940 c 0,44,45
 46 1056 46 1056 81.5 1152 c 128,-1,46
 117 1248 117 1248 180.5 1317 c 128,-1,47
 244 1386 244 1386 333 1424 c 128,-1,48
 422 1462 422 1462 530 1462 c 0,15,16
EndSplineSet
Substitution2: "<17001,16003> Urdu lookup 85 subtable" nine
EndChar

StartChar: colon
Encoding: 58 58 29
Width: 645
GlyphClass: 2
Flags: W
LayerCount: 2
Fore
SplineSet
445 248 m 1,0,-1
 343 64 l 1,1,-1
 100 202 l 1,2,-1
 197 386 l 1,3,-1
 445 248 l 1,0,-1
445 866 m 1,4,-1
 344 677 l 1,5,-1
 104 816 l 1,6,-1
 201 1007 l 1,7,-1
 445 866 l 1,4,-1
EndSplineSet
Substitution2: "<17001,16003> Urdu lookup 85 subtable" colon
EndChar

StartChar: semicolon
Encoding: 59 59 30
Width: 676
GlyphClass: 2
Flags: W
LayerCount: 2
Fore
SplineSet
228 1048 m 1,0,-1
 533 1048 l 1,1,-1
 533 748 l 1,2,-1
 228 748 l 1,3,-1
 228 1048 l 1,0,-1
228 -235 m 1,4,5
 271 -223 271 -223 302 -204.5 c 128,-1,6
 333 -186 333 -186 353.5 -158 c 128,-1,7
 374 -130 374 -130 385.5 -91.5 c 128,-1,8
 397 -53 397 -53 401 0 c 1,9,-1
 228 0 l 1,10,-1
 228 300 l 1,11,-1
 538 300 l 1,12,-1
 538 41 l 2,13,14
 538 -13 538 -13 528 -66 c 128,-1,15
 518 -119 518 -119 494 -166 c 128,-1,16
 470 -213 470 -213 429.5 -252 c 128,-1,17
 389 -291 389 -291 329 -317 c 0,18,19
 293 -333 293 -333 268 -340 c 128,-1,20
 243 -347 243 -347 228 -347 c 1,21,-1
 228 -235 l 1,4,5
EndSplineSet
Substitution2: "<17001,16003> Urdu lookup 85 subtable" semicolon
EndChar

StartChar: less
Encoding: 60 60 31
Width: 1100
GlyphClass: 2
Flags: W
LayerCount: 2
Fore
SplineSet
110 680 m 1,0,-1
 984 1050 l 1,1,-1
 984 818 l 1,2,-1
 392 573 l 1,3,4
 479 542 479 542 550 511.5 c 128,-1,5
 621 481 621 481 689 450.5 c 128,-1,6
 757 420 757 420 827.5 389 c 128,-1,7
 898 358 898 358 984 327 c 1,8,-1
 984 95 l 1,9,-1
 110 466 l 1,10,-1
 110 680 l 1,0,-1
EndSplineSet
Substitution2: "<17001,16003> Urdu lookup 85 subtable" less
EndChar

StartChar: equal
Encoding: 61 61 32
Width: 1100
GlyphClass: 2
Flags: W
LayerCount: 2
Fore
SplineSet
982 888 m 1,0,-1
 982 656 l 1,1,-1
 109 656 l 1,2,-1
 109 888 l 1,3,-1
 982 888 l 1,0,-1
982 480 m 1,4,-1
 982 249 l 1,5,-1
 109 249 l 1,6,-1
 109 480 l 1,7,-1
 982 480 l 1,4,-1
EndSplineSet
Substitution2: "<17001,16003> Urdu lookup 85 subtable" equal
EndChar

StartChar: greater
Encoding: 62 62 33
Width: 1100
GlyphClass: 2
Flags: W
LayerCount: 2
Fore
SplineSet
983 456 m 1,0,-1
 110 86 l 1,1,-1
 110 318 l 1,2,3
 196 349 196 349 266.5 379.5 c 128,-1,4
 337 410 337 410 405 441 c 128,-1,5
 473 472 473 472 544 502 c 128,-1,6
 615 532 615 532 702 563 c 1,7,-1
 110 808 l 1,8,-1
 110 1040 l 1,9,-1
 983 670 l 1,10,-1
 983 456 l 1,0,-1
EndSplineSet
Substitution2: "<17001,16003> Urdu lookup 85 subtable" greater
EndChar

StartChar: question
Encoding: 63 63 34
Width: 1245
GlyphClass: 2
Flags: W
LayerCount: 2
Fore
SplineSet
484 291 m 1,0,-1
 784 291 l 1,1,-1
 784 0 l 1,2,-1
 484 0 l 1,3,-1
 484 291 l 1,0,-1
318 1413 m 0,4,5
 436 1489 436 1489 609 1489 c 0,6,7
 719 1489 719 1489 814.5 1462.5 c 128,-1,8
 910 1436 910 1436 981 1382.5 c 128,-1,9
 1052 1329 1052 1329 1093 1248.5 c 128,-1,10
 1134 1168 1134 1168 1134 1061 c 0,11,12
 1134 995 1134 995 1117.5 940.5 c 128,-1,13
 1101 886 1101 886 1069 841 c 0,14,15
 1044 806 1044 806 986 755.5 c 128,-1,16
 928 705 928 705 853 648 c 0,17,18
 828 629 828 629 811 609.5 c 128,-1,19
 794 590 794 590 783.5 565.5 c 128,-1,20
 773 541 773 541 768.5 507 c 128,-1,21
 764 473 764 473 763 425 c 1,22,-1
 491 425 l 1,23,24
 494 512 494 512 502 569.5 c 128,-1,25
 510 627 510 627 523 659 c 0,26,27
 541 705 541 705 595 754 c 128,-1,28
 649 803 649 803 730 866 c 0,29,30
 828 943 828 943 828 1045 c 0,31,32
 828 1079 828 1079 818.5 1114.5 c 128,-1,33
 809 1150 809 1150 785.5 1178.5 c 128,-1,34
 762 1207 762 1207 722 1225.5 c 128,-1,35
 682 1244 682 1244 622 1244 c 0,36,37
 564 1244 564 1244 523.5 1222 c 128,-1,38
 483 1200 483 1200 458 1165.5 c 128,-1,39
 433 1131 433 1131 421.5 1089 c 128,-1,40
 410 1047 410 1047 410 1008 c 1,41,-1
 120 1008 l 1,42,43
 132 1295 132 1295 318 1413 c 0,4,5
EndSplineSet
Substitution2: "<17001,16003> Urdu lookup 85 subtable" question
EndChar

StartChar: at
Encoding: 64 64 35
Width: 1997
GlyphClass: 2
Flags: W
LayerCount: 2
Fore
SplineSet
1071 1032 m 0,0,1
 967 1032 967 1032 893 903 c 0,2,3
 856 837 856 837 837 775.5 c 128,-1,4
 818 714 818 714 818 653 c 0,5,6
 818 581 818 581 851.5 536 c 128,-1,7
 885 491 885 491 945 491 c 0,8,9
 1051 491 1051 491 1119 652 c 0,10,11
 1188 816 1188 816 1188 908 c 0,12,13
 1188 962 1188 962 1156.5 997 c 128,-1,14
 1125 1032 1125 1032 1071 1032 c 0,0,1
599 673 m 0,15,16
 599 855 599 855 721 1013 c 1,17,18
 844 1170 844 1170 1024 1170 c 0,19,20
 1115 1170 1115 1170 1172 1126 c 128,-1,21
 1229 1082 1229 1082 1246 1013 c 1,22,23
 1255 1044 1255 1044 1263.5 1074 c 128,-1,24
 1272 1104 1272 1104 1281 1135 c 1,25,-1
 1471 1135 l 1,26,-1
 1344 701 l 1,27,28
 1328 652 1328 652 1322 623.5 c 128,-1,29
 1316 595 1316 595 1316 578 c 0,30,31
 1316 548 1316 548 1336 522 c 128,-1,32
 1356 496 1356 496 1398 496 c 256,33,34
 1440 496 1440 496 1485.5 525.5 c 128,-1,35
 1531 555 1531 555 1569 609 c 128,-1,36
 1607 663 1607 663 1631.5 738.5 c 128,-1,37
 1656 814 1656 814 1656 906 c 0,38,39
 1656 1178 1656 1178 1421 1299 c 1,40,41
 1276 1375 1276 1375 1089 1375 c 0,42,43
 749 1375 749 1375 545 1167 c 0,44,45
 359 978 359 978 359 718 c 0,46,47
 359 582 359 582 412 469.5 c 128,-1,48
 465 357 465 357 557.5 276 c 128,-1,49
 650 195 650 195 775.5 150.5 c 128,-1,50
 901 106 901 106 1046 106 c 0,51,52
 1239 106 1239 106 1400 176 c 0,53,54
 1445 195 1445 195 1490.5 220.5 c 128,-1,55
 1536 246 1536 246 1585 281 c 2,56,-1
 1610 299 l 1,57,-1
 1685 185 l 1,58,59
 1541 73 1541 73 1377 16 c 128,-1,60
 1213 -41 1213 -41 1033 -41 c 0,61,62
 618 -41 618 -41 390 217 c 0,63,64
 201 430 201 430 201 724 c 0,65,66
 201 892 201 892 267.5 1037.5 c 128,-1,67
 334 1183 334 1183 451 1290.5 c 128,-1,68
 568 1398 568 1398 727 1459.5 c 128,-1,69
 886 1521 886 1521 1072 1521 c 0,70,71
 1233 1521 1233 1521 1368.5 1475.5 c 128,-1,72
 1504 1430 1504 1430 1602.5 1347.5 c 128,-1,73
 1701 1265 1701 1265 1756.5 1149.5 c 128,-1,74
 1812 1034 1812 1034 1812 894 c 0,75,76
 1812 667 1812 667 1674 503 c 1,77,78
 1537 342 1537 342 1359 342 c 0,79,80
 1312 342 1312 342 1276 356.5 c 128,-1,81
 1240 371 1240 371 1216 394 c 128,-1,82
 1192 417 1192 417 1179.5 445.5 c 128,-1,83
 1167 474 1167 474 1167 501 c 0,84,85
 1167 507 1167 507 1167.5 514.5 c 128,-1,86
 1168 522 1168 522 1169 531 c 1,87,88
 1115 431 1115 431 1045 387 c 128,-1,89
 975 343 975 343 881 343 c 0,90,91
 821 343 821 343 769 365 c 128,-1,92
 717 387 717 387 679.5 429 c 128,-1,93
 642 471 642 471 620.5 532.5 c 128,-1,94
 599 594 599 594 599 673 c 0,15,16
EndSplineSet
Substitution2: "<17001,16003> Urdu lookup 85 subtable" at
EndChar

StartChar: A
Encoding: 65 65 36
Width: 1473
GlyphClass: 2
Flags: W
LayerCount: 2
Fore
SplineSet
557 558 m 1,0,-1
 929 558 l 1,1,2
 884 701 884 701 837.5 846 c 128,-1,3
 791 991 791 991 746 1133 c 1,4,-1
 557 558 l 1,0,-1
574 1474 m 1,5,-1
 924 1474 l 1,6,-1
 1445 0 l 1,7,-1
 1109 0 l 1,8,-1
 1015 303 l 1,9,-1
 474 303 l 1,10,11
 448 228 448 228 423 151.5 c 128,-1,12
 398 75 398 75 373 0 c 1,13,-1
 49 0 l 1,14,-1
 574 1474 l 1,5,-1
EndSplineSet
Substitution2: "<17001,16003> Urdu lookup 85 subtable" A
EndChar

StartChar: B
Encoding: 66 66 37
Width: 1473
GlyphClass: 2
Flags: W
LayerCount: 2
Fore
SplineSet
453 1216 m 1,0,-1
 453 894 l 1,1,-1
 814 894 l 2,2,3
 862 894 862 894 902 902.5 c 128,-1,4
 942 911 942 911 970.5 930.5 c 128,-1,5
 999 950 999 950 1015 981.5 c 128,-1,6
 1031 1013 1031 1013 1031 1059 c 0,7,8
 1031 1109 1031 1109 1012.5 1139.5 c 128,-1,9
 994 1170 994 1170 960 1187 c 128,-1,10
 926 1204 926 1204 879.5 1210 c 128,-1,11
 833 1216 833 1216 776 1216 c 2,12,-1
 453 1216 l 1,0,-1
453 648 m 1,13,-1
 453 258 l 1,14,-1
 814 258 l 2,15,16
 942 258 942 258 1002 307.5 c 128,-1,17
 1062 357 1062 357 1062 466 c 0,18,19
 1062 560 1062 560 1003 603 c 128,-1,20
 944 646 944 646 819 648 c 1,21,-1
 453 648 l 1,13,-1
1258 1317 m 1,22,23
 1326 1222 1326 1222 1326 1091 c 0,24,25
 1326 1037 1326 1037 1316.5 993.5 c 128,-1,26
 1307 950 1307 950 1286 913.5 c 128,-1,27
 1265 877 1265 877 1231 847 c 128,-1,28
 1197 817 1197 817 1147 791 c 1,29,30
 1262 749 1262 749 1318 661.5 c 128,-1,31
 1374 574 1374 574 1374 445 c 0,32,33
 1374 391 1374 391 1361.5 340 c 128,-1,34
 1349 289 1349 289 1326.5 244 c 128,-1,35
 1304 199 1304 199 1272.5 161 c 128,-1,36
 1241 123 1241 123 1203 94 c 0,37,38
 1131 40 1131 40 1035.5 20 c 128,-1,39
 940 0 940 0 826 0 c 2,40,-1
 158 0 l 1,41,-1
 158 1474 l 1,42,-1
 874 1474 l 1,43,44
 1146 1469 1146 1469 1258 1317 c 1,22,23
EndSplineSet
Substitution2: "<17001,16003> Urdu lookup 85 subtable" B
EndChar

StartChar: C
Encoding: 67 67 38
AltUni2: 00216d.ffffffff.0
Width: 1473
GlyphClass: 2
Flags: W
LayerCount: 2
Fore
SplineSet
296 1320 m 1,0,1
 475 1502 475 1502 754 1502 c 0,2,3
 1126 1502 1126 1502 1298 1258 c 0,4,5
 1347 1189 1347 1189 1371.5 1120.5 c 128,-1,6
 1396 1052 1396 1052 1400 982 c 1,7,-1
 1091 982 l 1,8,9
 1071 1050 1071 1050 1042.5 1098.5 c 128,-1,10
 1014 1147 1014 1147 974.5 1178 c 128,-1,11
 935 1209 935 1209 883.5 1223 c 128,-1,12
 832 1237 832 1237 766 1237 c 0,13,14
 684 1237 684 1237 617 1202.5 c 128,-1,15
 550 1168 550 1168 503 1102 c 128,-1,16
 456 1036 456 1036 430.5 940 c 128,-1,17
 405 844 405 844 405 720 c 0,18,19
 405 594 405 594 433 501.5 c 128,-1,20
 461 409 461 409 509.5 348 c 128,-1,21
 558 287 558 287 624.5 257 c 128,-1,22
 691 227 691 227 767 227 c 0,23,24
 831 227 831 227 881.5 242 c 128,-1,25
 932 257 932 257 971.5 290 c 128,-1,26
 1011 323 1011 323 1040.5 375.5 c 128,-1,27
 1070 428 1070 428 1091 503 c 1,28,-1
 1397 503 l 1,29,30
 1377 383 1377 383 1323.5 284 c 128,-1,31
 1270 185 1270 185 1192 110 c 1,32,33
 1111 38 1111 38 1005 -1.5 c 128,-1,34
 899 -41 899 -41 771 -41 c 0,35,36
 611 -41 611 -41 484.5 12.5 c 128,-1,37
 358 66 358 66 270 165 c 128,-1,38
 182 264 182 264 135.5 406 c 128,-1,39
 89 548 89 548 89 725 c 0,40,41
 89 1113 89 1113 296 1320 c 1,0,1
EndSplineSet
Substitution2: "<17001,16003> Urdu lookup 85 subtable" C
EndChar

StartChar: D
Encoding: 68 68 39
AltUni2: 00216e.ffffffff.0
Width: 1473
GlyphClass: 2
Flags: W
LayerCount: 2
Fore
SplineSet
453 1216 m 1,0,-1
 453 258 l 1,1,-1
 736 258 l 2,2,3
 820 258 820 258 885 292.5 c 128,-1,4
 950 327 950 327 995 391 c 128,-1,5
 1040 455 1040 455 1063 546.5 c 128,-1,6
 1086 638 1086 638 1086 752 c 0,7,8
 1086 976 1086 976 1015 1095 c 1,9,10
 945 1216 945 1216 736 1216 c 2,11,-1
 453 1216 l 1,0,-1
1016 1442 m 0,12,13
 1172 1391 1172 1391 1267 1255 c 0,14,15
 1305 1201 1305 1201 1331.5 1140.5 c 128,-1,16
 1358 1080 1358 1080 1372 1017 c 256,17,18
 1386 954 1386 954 1393 892 c 128,-1,19
 1400 830 1400 830 1400 773 c 0,20,21
 1400 596 1400 596 1358 453 c 128,-1,22
 1316 310 1316 310 1237.5 209.5 c 128,-1,23
 1159 109 1159 109 1045.5 54.5 c 128,-1,24
 932 0 932 0 788 0 c 2,25,-1
 153 0 l 1,26,-1
 153 1474 l 1,27,-1
 788 1474 l 1,28,29
 856 1473 856 1473 912.5 1465.5 c 128,-1,30
 969 1458 969 1458 1016 1442 c 0,12,13
EndSplineSet
Substitution2: "<17001,16003> Urdu lookup 85 subtable" D
EndChar

StartChar: E
Encoding: 69 69 40
Width: 1360
GlyphClass: 2
Flags: W
LayerCount: 2
Fore
SplineSet
1243 1211 m 1,0,-1
 464 1211 l 1,1,-1
 464 901 l 1,2,-1
 1179 901 l 1,3,-1
 1179 643 l 1,4,-1
 464 643 l 1,5,-1
 464 267 l 1,6,-1
 1279 267 l 1,7,-1
 1279 0 l 1,8,-1
 162 0 l 1,9,-1
 162 1474 l 1,10,-1
 1243 1474 l 1,11,-1
 1243 1211 l 1,0,-1
EndSplineSet
Substitution2: "<17001,16003> Urdu lookup 85 subtable" E
EndChar

StartChar: F
Encoding: 70 70 41
Width: 1245
GlyphClass: 2
Flags: W
LayerCount: 2
Fore
SplineSet
153 1472 m 1,0,-1
 1198 1472 l 1,1,-1
 1198 1211 l 1,2,-1
 460 1211 l 1,3,-1
 460 875 l 1,4,-1
 1106 875 l 1,5,-1
 1106 617 l 1,6,-1
 460 617 l 1,7,-1
 460 0 l 1,8,-1
 153 0 l 1,9,-1
 153 1472 l 1,0,-1
EndSplineSet
Substitution2: "<17001,16003> Urdu lookup 85 subtable" F
EndChar

StartChar: G
Encoding: 71 71 42
Width: 1587
GlyphClass: 2
Flags: W
LayerCount: 2
Fore
SplineSet
1142 1013 m 1,0,1
 1129 1072 1129 1072 1099 1117 c 128,-1,2
 1069 1162 1069 1162 1025 1193 c 128,-1,3
 981 1224 981 1224 925 1240 c 128,-1,4
 869 1256 869 1256 804 1256 c 0,5,6
 719 1256 719 1256 645.5 1224.5 c 128,-1,7
 572 1193 572 1193 517 1127 c 128,-1,8
 462 1061 462 1061 430.5 959.5 c 128,-1,9
 399 858 399 858 399 719 c 0,10,11
 399 582 399 582 429 487.5 c 128,-1,12
 459 393 459 393 522 336 c 0,13,14
 647 223 647 223 803 223 c 0,15,16
 879 223 879 223 942.5 246.5 c 128,-1,17
 1006 270 1006 270 1054 312 c 128,-1,18
 1102 354 1102 354 1133.5 413 c 128,-1,19
 1165 472 1165 472 1177 544 c 1,20,-1
 837 544 l 1,21,-1
 837 792 l 1,22,-1
 1452 792 l 1,23,-1
 1452 0 l 1,24,-1
 1246 0 l 1,25,-1
 1216 182 l 1,26,27
 1129 80 1129 80 1058 36 c 0,28,29
 937 -39 937 -39 757 -39 c 0,30,31
 610 -39 610 -39 486.5 15 c 128,-1,32
 363 69 363 69 273 169 c 128,-1,33
 183 269 183 269 132.5 409.5 c 128,-1,34
 82 550 82 550 82 722 c 0,35,36
 82 900 82 900 133 1045.5 c 128,-1,37
 184 1191 184 1191 278 1294.5 c 128,-1,38
 372 1398 372 1398 504.5 1455 c 128,-1,39
 637 1512 637 1512 800 1512 c 0,40,41
 1081 1512 1081 1512 1251 1369 c 0,42,43
 1421 1227 1421 1227 1447 1013 c 1,44,-1
 1142 1013 l 1,0,1
EndSplineSet
Substitution2: "<17001,16003> Urdu lookup 85 subtable" G
EndChar

StartChar: H
Encoding: 72 72 43
Width: 1473
GlyphClass: 2
Flags: W
LayerCount: 2
Fore
SplineSet
151 0 m 1,0,-1
 151 1474 l 1,1,-1
 457 1474 l 1,2,-1
 457 913 l 1,3,-1
 1031 913 l 1,4,-1
 1031 1474 l 1,5,-1
 1338 1474 l 1,6,-1
 1338 0 l 1,7,-1
 1031 0 l 1,8,-1
 1031 657 l 1,9,-1
 457 657 l 1,10,-1
 457 0 l 1,11,-1
 151 0 l 1,0,-1
EndSplineSet
Substitution2: "<17001,16003> Urdu lookup 85 subtable" H
EndChar

StartChar: I
Encoding: 73 73 44
Width: 563
GlyphClass: 2
Flags: W
LayerCount: 2
Fore
SplineSet
436 0 m 1,0,-1
 128 0 l 1,1,-1
 128 1474 l 1,2,-1
 436 1474 l 1,3,-1
 436 0 l 1,0,-1
EndSplineSet
Substitution2: "<17001,16003> Urdu lookup 85 subtable" I
EndChar

StartChar: J
Encoding: 74 74 45
Width: 1133
GlyphClass: 2
Flags: W
LayerCount: 2
Fore
SplineSet
334 560 m 1,0,-1
 334 525 l 1,1,2
 336 441 336 441 344 382 c 128,-1,3
 352 323 352 323 371.5 286.5 c 128,-1,4
 391 250 391 250 425 233.5 c 128,-1,5
 459 217 459 217 514 217 c 0,6,7
 559 217 559 217 590.5 228 c 128,-1,8
 622 239 622 239 641.5 265 c 128,-1,9
 661 291 661 291 669.5 334.5 c 128,-1,10
 678 378 678 378 678 443 c 2,11,-1
 678 1474 l 1,12,-1
 987 1474 l 1,13,-1
 987 448 l 2,14,15
 987 -36 987 -36 525 -36 c 0,16,17
 236 -36 236 -36 140 114 c 0,18,19
 42 266 42 266 42 525 c 2,20,-1
 42 560 l 1,21,-1
 334 560 l 1,0,-1
EndSplineSet
Substitution2: "<17001,16003> Urdu lookup 85 subtable" J
EndChar

StartChar: K
Encoding: 75 75 46
AltUni2: 00212a.ffffffff.0
Width: 1473
GlyphClass: 2
Flags: W
LayerCount: 2
Fore
SplineSet
158 1474 m 1,0,-1
 462 1474 l 1,1,-1
 462 870 l 1,2,3
 606 1023 606 1023 745.5 1172 c 128,-1,4
 885 1321 885 1321 1029 1474 c 1,5,-1
 1430 1474 l 1,6,-1
 826 867 l 1,7,8
 901 764 901 764 981.5 654.5 c 128,-1,9
 1062 545 1062 545 1143 434 c 128,-1,10
 1224 323 1224 323 1304.5 213 c 128,-1,11
 1385 103 1385 103 1460 0 c 1,12,-1
 1062 0 l 1,13,-1
 608 642 l 1,14,15
 573 606 573 606 535 567 c 128,-1,16
 497 528 497 528 462 492 c 1,17,-1
 462 0 l 1,18,-1
 158 0 l 1,19,-1
 158 1474 l 1,0,-1
EndSplineSet
Substitution2: "<17001,16003> Urdu lookup 85 subtable" K
EndChar

StartChar: L
Encoding: 76 76 47
AltUni2: 00216c.ffffffff.0
Width: 1245
GlyphClass: 2
Flags: W
LayerCount: 2
Fore
SplineSet
153 1474 m 1,0,-1
 462 1474 l 1,1,-1
 462 267 l 1,2,-1
 1191 267 l 1,3,-1
 1191 0 l 1,4,-1
 153 0 l 1,5,-1
 153 1474 l 1,0,-1
EndSplineSet
Substitution2: "<17001,16003> Urdu lookup 85 subtable" L
EndChar

StartChar: M
Encoding: 77 77 48
AltUni2: 00216f.ffffffff.0
Width: 1700
GlyphClass: 2
Flags: W
LayerCount: 2
Fore
SplineSet
1129 1474 m 1,0,-1
 1573 1474 l 1,1,-1
 1573 0 l 1,2,-1
 1284 0 l 1,3,-1
 1284 997 l 2,4,5
 1284 1016 1284 1016 1284.5 1048.5 c 128,-1,6
 1285 1081 1285 1081 1285 1115.5 c 128,-1,7
 1285 1150 1285 1150 1285.5 1181 c 128,-1,8
 1286 1212 1286 1212 1286 1227 c 1,9,10
 1217 917 1217 917 1148 613.5 c 128,-1,11
 1079 310 1079 310 1010 0 c 1,12,-1
 709 0 l 1,13,-1
 435 1227 l 1,14,15
 435 1209 435 1209 435.5 1178 c 128,-1,16
 436 1147 436 1147 436 1113 c 128,-1,17
 436 1079 436 1079 436.5 1047 c 128,-1,18
 437 1015 437 1015 437 997 c 2,19,-1
 437 0 l 1,20,-1
 148 0 l 1,21,-1
 148 1474 l 1,22,-1
 597 1474 l 1,23,-1
 864 321 l 1,24,-1
 1129 1474 l 1,0,-1
EndSplineSet
Substitution2: "<17001,16003> Urdu lookup 85 subtable" M
EndChar

StartChar: N
Encoding: 78 78 49
Width: 1473
GlyphClass: 2
Flags: W
LayerCount: 2
Fore
SplineSet
148 1474 m 1,0,-1
 471 1474 l 1,1,-1
 1057 449 l 1,2,-1
 1057 1474 l 1,3,-1
 1345 1474 l 1,4,-1
 1345 0 l 1,5,-1
 1037 0 l 1,6,-1
 436 1043 l 1,7,-1
 436 0 l 1,8,-1
 148 0 l 1,9,-1
 148 1474 l 1,0,-1
EndSplineSet
Substitution2: "<17001,16003> Urdu lookup 85 subtable" N
EndChar

StartChar: O
Encoding: 79 79 50
Width: 1587
GlyphClass: 2
Flags: W
LayerCount: 2
Fore
SplineSet
1201 739 m 256,0,1
 1201 863 1201 863 1173 959 c 128,-1,2
 1145 1055 1145 1055 1093 1121 c 128,-1,3
 1041 1187 1041 1187 968 1221.5 c 128,-1,4
 895 1256 895 1256 805 1256 c 256,5,6
 715 1256 715 1256 641.5 1222 c 128,-1,7
 568 1188 568 1188 515.5 1122.5 c 128,-1,8
 463 1057 463 1057 434.5 960.5 c 128,-1,9
 406 864 406 864 406 739 c 0,10,11
 406 616 406 616 434.5 520 c 128,-1,12
 463 424 463 424 515.5 358 c 128,-1,13
 568 292 568 292 641.5 257 c 128,-1,14
 715 222 715 222 805 222 c 256,15,16
 895 222 895 222 968.5 256 c 128,-1,17
 1042 290 1042 290 1093.5 356 c 128,-1,18
 1145 422 1145 422 1173 518.5 c 128,-1,19
 1201 615 1201 615 1201 739 c 256,0,1
1288 131 m 1,20,21
 1122 -41 1122 -41 805 -41 c 0,22,23
 646 -41 646 -41 526.5 2.5 c 128,-1,24
 407 46 407 46 322 131 c 0,25,26
 216 237 216 237 157 390 c 128,-1,27
 98 543 98 543 98 739 c 0,28,29
 98 916 98 916 143.5 1060 c 128,-1,30
 189 1204 189 1204 278.5 1306 c 128,-1,31
 368 1408 368 1408 500 1463.5 c 128,-1,32
 632 1519 632 1519 805 1519 c 256,33,34
 978 1519 978 1519 1110 1463.5 c 128,-1,35
 1242 1408 1242 1408 1331 1306 c 128,-1,36
 1420 1204 1420 1204 1465.5 1060 c 128,-1,37
 1511 916 1511 916 1511 739 c 0,38,39
 1511 342 1511 342 1288 131 c 1,20,21
EndSplineSet
Substitution2: "<17001,16003> Urdu lookup 85 subtable" O
EndChar

StartChar: P
Encoding: 80 80 51
Width: 1360
GlyphClass: 2
Flags: W
LayerCount: 2
Fore
SplineSet
467 1216 m 1,0,-1
 467 785 l 1,1,-1
 753 785 l 2,2,3
 861 785 861 785 921.5 838 c 128,-1,4
 982 891 982 891 982 1005 c 0,5,6
 982 1118 982 1118 921.5 1167 c 128,-1,7
 861 1216 861 1216 753 1216 c 2,8,-1
 467 1216 l 1,0,-1
467 529 m 1,9,-1
 467 0 l 1,10,-1
 160 0 l 1,11,-1
 160 1474 l 1,12,-1
 802 1474 l 2,13,14
 913 1474 913 1474 1003 1446 c 128,-1,15
 1093 1418 1093 1418 1156 1360 c 128,-1,16
 1219 1302 1219 1302 1253.5 1214.5 c 128,-1,17
 1288 1127 1288 1127 1288 1007 c 0,18,19
 1288 746 1288 746 1156 637 c 1,20,21
 1090 586 1090 586 995 557.5 c 128,-1,22
 900 529 900 529 779 529 c 2,23,-1
 467 529 l 1,9,-1
EndSplineSet
Substitution2: "<17001,16003> Urdu lookup 85 subtable" P
EndChar

StartChar: Q
Encoding: 81 81 52
Width: 1587
GlyphClass: 2
Flags: W
LayerCount: 2
Fore
SplineSet
904 235 m 0,0,1
 917 239 917 239 934 245 c 128,-1,2
 951 251 951 251 971 259 c 1,3,4
 936 293 936 293 896.5 330 c 128,-1,5
 857 367 857 367 822 400 c 1,6,-1
 983 568 l 1,7,-1
 1132 426 l 1,8,9
 1149 461 1149 461 1160.5 492 c 128,-1,10
 1172 523 1172 523 1179 550 c 0,11,12
 1190 592 1190 592 1196 638 c 128,-1,13
 1202 684 1202 684 1201 739 c 1,14,15
 1201 863 1201 863 1175.5 959 c 128,-1,16
 1150 1055 1150 1055 1100 1121 c 128,-1,17
 1050 1187 1050 1187 976 1221.5 c 128,-1,18
 902 1256 902 1256 805 1256 c 0,19,20
 715 1256 715 1256 641.5 1224 c 128,-1,21
 568 1192 568 1192 515.5 1128 c 128,-1,22
 463 1064 463 1064 434.5 967 c 128,-1,23
 406 870 406 870 406 739 c 0,24,25
 406 616 406 616 433.5 520 c 128,-1,26
 461 424 461 424 512.5 357.5 c 128,-1,27
 564 291 564 291 637.5 256.5 c 128,-1,28
 711 222 711 222 802 222 c 0,29,30
 858 222 858 222 904 235 c 0,0,1
1463 431 m 1,31,32
 1424 305 1424 305 1349 221 c 1,33,34
 1391 182 1391 182 1434 141.5 c 128,-1,35
 1477 101 1477 101 1519 62 c 1,36,-1
 1356 -108 l 1,37,-1
 1178 60 l 1,38,39
 1140 37 1140 37 1104 20 c 128,-1,40
 1068 3 1068 3 1039 -8 c 0,41,42
 988 -26 988 -26 929.5 -33 c 128,-1,43
 871 -40 871 -40 802 -41 c 1,44,45
 642 -41 642 -41 512 13 c 128,-1,46
 382 67 382 67 290 168 c 128,-1,47
 198 269 198 269 148 413.5 c 128,-1,48
 98 558 98 558 98 739 c 0,49,50
 98 919 98 919 149 1063.5 c 128,-1,51
 200 1208 200 1208 293 1309.5 c 128,-1,52
 386 1411 386 1411 516.5 1465 c 128,-1,53
 647 1519 647 1519 807 1519 c 0,54,55
 962 1519 962 1519 1091.5 1465 c 128,-1,56
 1221 1411 1221 1411 1314 1312 c 128,-1,57
 1407 1213 1407 1213 1459 1073 c 128,-1,58
 1511 933 1511 933 1511 761 c 0,59,60
 1511 565 1511 565 1463 431 c 1,31,32
EndSplineSet
Substitution2: "<17001,16003> Urdu lookup 85 subtable" Q
EndChar

StartChar: R
Encoding: 82 82 53
Width: 1473
GlyphClass: 2
Flags: W
LayerCount: 2
Fore
SplineSet
462 1216 m 1,0,-1
 462 823 l 1,1,-1
 810 823 l 2,2,3
 939 823 939 823 998 867 c 128,-1,4
 1057 911 1057 911 1057 1012 c 0,5,6
 1057 1066 1057 1066 1044 1104.5 c 128,-1,7
 1031 1143 1031 1143 1002.5 1167.5 c 128,-1,8
 974 1192 974 1192 929 1204 c 128,-1,9
 884 1216 884 1216 819 1216 c 2,10,-1
 462 1216 l 1,0,-1
1263 1333 m 1,11,12
 1311 1276 1311 1276 1339 1209 c 128,-1,13
 1367 1142 1367 1142 1367 1054 c 0,14,15
 1367 1005 1367 1005 1355 952.5 c 128,-1,16
 1343 900 1343 900 1316.5 852.5 c 128,-1,17
 1290 805 1290 805 1247 766 c 128,-1,18
 1204 727 1204 727 1141 704 c 1,19,20
 1242 664 1242 664 1283 587 c 1,21,-1
 1283 588 l 1,22,23
 1326 515 1326 515 1326 358 c 2,24,-1
 1326 259 l 2,25,26
 1326 202 1326 202 1328.5 166 c 128,-1,27
 1331 130 1331 130 1337.5 106.5 c 128,-1,28
 1344 83 1344 83 1356.5 68 c 128,-1,29
 1369 53 1369 53 1390 39 c 1,30,-1
 1390 0 l 1,31,-1
 1050 0 l 1,32,33
 1041 35 1041 35 1034.5 62 c 128,-1,34
 1028 89 1028 89 1024.5 112 c 128,-1,35
 1021 135 1021 135 1019 157.5 c 128,-1,36
 1017 180 1017 180 1017 207 c 2,37,-1
 1015 344 l 2,38,39
 1014 413 1014 413 1002.5 458.5 c 128,-1,40
 991 504 991 504 964 530 c 128,-1,41
 937 556 937 556 892 566.5 c 128,-1,42
 847 577 847 577 779 577 c 2,43,-1
 462 577 l 1,44,-1
 462 0 l 1,45,-1
 160 0 l 1,46,-1
 160 1474 l 1,47,-1
 883 1474 l 1,48,49
 961 1472 961 1472 1020 1462.5 c 128,-1,50
 1079 1453 1079 1453 1121 1436 c 0,51,52
 1161 1419 1161 1419 1197.5 1392 c 128,-1,53
 1234 1365 1234 1365 1263 1333 c 1,11,12
EndSplineSet
Substitution2: "<17001,16003> Urdu lookup 85 subtable" R
EndChar

StartChar: S
Encoding: 83 83 54
Width: 1360
GlyphClass: 2
Flags: W
LayerCount: 2
Fore
SplineSet
377 456 m 1,0,1
 386 390 386 390 409 344 c 128,-1,2
 432 298 432 298 470.5 269.5 c 128,-1,3
 509 241 509 241 563 228 c 128,-1,4
 617 215 617 215 688 215 c 0,5,6
 845 215 845 215 919 264.5 c 128,-1,7
 993 314 993 314 993 408 c 0,8,9
 993 455 993 455 965 487 c 128,-1,10
 937 519 937 519 883.5 542.5 c 128,-1,11
 830 566 830 566 752 584.5 c 128,-1,12
 674 603 674 603 573 624 c 1,13,14
 345 677 345 677 255 737 c 1,15,16
 183 788 183 788 144.5 868.5 c 128,-1,17
 106 949 106 949 106 1057 c 0,18,19
 106 1155 106 1155 142.5 1239 c 128,-1,20
 179 1323 179 1323 251 1385 c 128,-1,21
 323 1447 323 1447 429 1482 c 128,-1,22
 535 1517 535 1517 673 1517 c 0,23,24
 790 1517 790 1517 892.5 1485.5 c 128,-1,25
 995 1454 995 1454 1072 1392.5 c 128,-1,26
 1149 1331 1149 1331 1194.5 1241 c 128,-1,27
 1240 1151 1240 1151 1243 1034 c 1,28,-1
 946 1034 l 1,29,30
 940 1148 940 1148 863.5 1203.5 c 128,-1,31
 787 1259 787 1259 652 1259 c 0,32,33
 593 1259 593 1259 545 1247 c 128,-1,34
 497 1235 497 1235 463 1211.5 c 128,-1,35
 429 1188 429 1188 410.5 1154.5 c 128,-1,36
 392 1121 392 1121 392 1078 c 0,37,38
 392 1001 392 1001 461 962 c 1,39,40
 503 937 503 937 653 901 c 2,41,-1
 907 840 l 2,42,43
 989 820 989 820 1053 792.5 c 128,-1,44
 1117 765 1117 765 1159 733 c 0,45,46
 1225 682 1225 682 1258 606 c 128,-1,47
 1291 530 1291 530 1291 431 c 256,48,49
 1291 332 1291 332 1252 246 c 128,-1,50
 1213 160 1213 160 1138 97 c 128,-1,51
 1063 34 1063 34 953 -2 c 128,-1,52
 843 -38 843 -38 700 -38 c 0,53,54
 555 -38 555 -38 440 -3.5 c 128,-1,55
 325 31 325 31 245.5 95 c 128,-1,56
 166 159 166 159 124 250.5 c 128,-1,57
 82 342 82 342 82 456 c 1,58,-1
 377 456 l 1,0,1
EndSplineSet
Substitution2: "<17001,16003> Urdu lookup 85 subtable" S
EndChar

StartChar: T
Encoding: 84 84 55
Width: 1245
GlyphClass: 2
Flags: W
LayerCount: 2
Fore
SplineSet
1224 1474 m 1,0,-1
 1224 1211 l 1,1,-1
 784 1211 l 1,2,-1
 784 0 l 1,3,-1
 472 0 l 1,4,-1
 472 1211 l 1,5,-1
 30 1211 l 1,6,-1
 30 1474 l 1,7,-1
 1224 1474 l 1,0,-1
EndSplineSet
Substitution2: "<17001,16003> Urdu lookup 85 subtable" T
EndChar

StartChar: U
Encoding: 85 85 56
Width: 1473
GlyphClass: 2
Flags: W
LayerCount: 2
Fore
SplineSet
153 1474 m 1,0,-1
 467 1474 l 1,1,-1
 467 568 l 2,2,3
 467 473 467 473 482 407.5 c 128,-1,4
 497 342 497 342 530.5 301 c 128,-1,5
 564 260 564 260 617 242 c 128,-1,6
 670 224 670 224 746 224 c 256,7,8
 822 224 822 224 875 242 c 128,-1,9
 928 260 928 260 961 301 c 128,-1,10
 994 342 994 342 1009 407.5 c 128,-1,11
 1024 473 1024 473 1024 568 c 2,12,-1
 1024 1474 l 1,13,-1
 1338 1474 l 1,14,-1
 1338 568 l 2,15,16
 1338 408 1338 408 1301.5 293 c 128,-1,17
 1265 178 1265 178 1191.5 104.5 c 128,-1,18
 1118 31 1118 31 1006.5 -3.5 c 128,-1,19
 895 -38 895 -38 746 -38 c 0,20,21
 596 -38 596 -38 485 -3.5 c 128,-1,22
 374 31 374 31 300 104.5 c 128,-1,23
 226 178 226 178 189.5 293 c 128,-1,24
 153 408 153 408 153 568 c 2,25,-1
 153 1474 l 1,0,-1
EndSplineSet
Substitution2: "<17001,16003> Urdu lookup 85 subtable" U
EndChar

StartChar: V
Encoding: 86 86 57
Width: 1360
GlyphClass: 2
Flags: W
LayerCount: 2
Fore
SplineSet
1015 1474 m 1,0,-1
 1336 1474 l 1,1,-1
 834 0 l 1,2,-1
 541 0 l 1,3,-1
 44 1474 l 1,4,-1
 374 1474 l 1,5,-1
 693 358 l 1,6,-1
 1015 1474 l 1,0,-1
EndSplineSet
Substitution2: "<17001,16003> Urdu lookup 85 subtable" V
EndChar

StartChar: W
Encoding: 87 87 58
Width: 1927
GlyphClass: 2
Flags: W
LayerCount: 2
Fore
SplineSet
356 1474 m 1,0,-1
 551 630 l 1,1,-1
 592 401 l 1,2,3
 603 458 603 458 612.5 513 c 128,-1,4
 622 568 622 568 633 625 c 2,5,-1
 799 1474 l 1,6,-1
 1126 1474 l 1,7,-1
 1301 630 l 1,8,-1
 1344 400 l 1,9,10
 1355 457 1355 457 1366 510.5 c 128,-1,11
 1377 564 1377 564 1388 621 c 1,12,-1
 1585 1474 l 1,13,-1
 1900 1474 l 1,14,-1
 1485 0 l 1,15,-1
 1190 0 l 1,16,-1
 1012 862 l 1,17,-1
 961 1139 l 1,18,19
 949 1073 949 1073 935.5 1000.5 c 128,-1,20
 922 928 922 928 910 862 c 1,21,-1
 732 0 l 1,22,-1
 445 0 l 1,23,-1
 27 1474 l 1,24,-1
 356 1474 l 1,0,-1
EndSplineSet
Substitution2: "<17001,16003> Urdu lookup 85 subtable" W
EndChar

StartChar: X
Encoding: 88 88 59
Width: 1360
GlyphClass: 2
Flags: W
LayerCount: 2
Fore
SplineSet
389 0 m 1,0,-1
 29 0 l 1,1,-1
 502 751 l 1,2,3
 390 932 390 932 277 1112.5 c 128,-1,4
 164 1293 164 1293 52 1474 c 1,5,-1
 421 1474 l 1,6,-1
 684 997 l 1,7,8
 753 1117 753 1117 819 1235 c 128,-1,9
 885 1353 885 1353 954 1474 c 1,10,-1
 1311 1474 l 1,11,-1
 861 763 l 1,12,13
 916 676 916 676 977 578.5 c 128,-1,14
 1038 481 1038 481 1100.5 381.5 c 128,-1,15
 1163 282 1163 282 1224 184.5 c 128,-1,16
 1285 87 1285 87 1339 0 c 1,17,-1
 964 0 l 1,18,-1
 684 500 l 1,19,-1
 389 0 l 1,0,-1
EndSplineSet
Substitution2: "<17001,16003> Urdu lookup 85 subtable" X
EndChar

StartChar: Y
Encoding: 89 89 60
Width: 1360
GlyphClass: 2
Flags: W
LayerCount: 2
Fore
SplineSet
993 1474 m 1,0,-1
 1344 1474 l 1,1,-1
 851 554 l 1,2,-1
 851 0 l 1,3,-1
 541 0 l 1,4,-1
 541 554 l 1,5,6
 415 780 415 780 286 1014 c 128,-1,7
 157 1248 157 1248 31 1474 c 1,8,-1
 396 1474 l 1,9,-1
 701 834 l 1,10,-1
 993 1474 l 1,0,-1
EndSplineSet
Substitution2: "<17001,16003> Urdu lookup 85 subtable" Y
EndChar

StartChar: Z
Encoding: 90 90 61
Width: 1245
GlyphClass: 2
Flags: W
LayerCount: 2
Fore
SplineSet
49 262 m 1,0,-1
 807 1211 l 1,1,-1
 68 1211 l 1,2,-1
 68 1474 l 1,3,-1
 1194 1474 l 1,4,-1
 1194 1225 l 1,5,-1
 426 262 l 1,6,-1
 1196 262 l 1,7,-1
 1196 0 l 1,8,-1
 49 0 l 1,9,-1
 49 262 l 1,0,-1
EndSplineSet
Substitution2: "<17001,16003> Urdu lookup 85 subtable" Z
EndChar

StartChar: bracketleft
Encoding: 91 91 62
Width: 652
GlyphClass: 2
Flags: W
LayerCount: 2
Fore
SplineSet
100 -487 m 1,0,-1
 100 1461 l 1,1,-1
 552 1461 l 1,2,-1
 552 1282 l 1,3,-1
 288 1282 l 1,4,-1
 288 -305 l 1,5,-1
 552 -305 l 1,6,-1
 552 -487 l 1,7,-1
 100 -487 l 1,0,-1
EndSplineSet
Substitution2: "<17001,16003> Urdu lookup 85 subtable" bracketleft
EndChar

StartChar: backslash
Encoding: 92 92 63
Width: 563
GlyphClass: 2
Flags: W
LayerCount: 2
Fore
SplineSet
121 1519 m 1,0,-1
 693 0 l 1,1,-1
 455 0 l 1,2,-1
 -115 1519 l 1,3,-1
 121 1519 l 1,0,-1
EndSplineSet
Substitution2: "<17001,16003> Urdu lookup 85 subtable" backslash
EndChar

StartChar: bracketright
Encoding: 93 93 64
Width: 752
GlyphClass: 2
Flags: W
LayerCount: 2
Fore
SplineSet
100 -487 m 1,0,-1
 100 -305 l 1,1,-1
 362 -305 l 1,2,-1
 362 1282 l 1,3,-1
 100 1282 l 1,4,-1
 100 1461 l 1,5,-1
 552 1461 l 1,6,-1
 552 -487 l 1,7,-1
 100 -487 l 1,0,-1
EndSplineSet
Substitution2: "<17001,16003> Urdu lookup 85 subtable" bracketright
EndChar

StartChar: asciicircum
Encoding: 94 94 65
Width: 1190
GlyphClass: 2
Flags: W
LayerCount: 2
Fore
SplineSet
714 1474 m 1,0,-1
 1080 589 l 1,1,-1
 828 589 l 1,2,-1
 602 1152 l 1,3,4
 545 1011 545 1011 487.5 871 c 128,-1,5
 430 731 430 731 373 589 c 1,6,-1
 120 589 l 1,7,-1
 487 1474 l 1,8,-1
 714 1474 l 1,0,-1
EndSplineSet
Substitution2: "<17001,16003> Urdu lookup 85 subtable" asciicircum
EndChar

StartChar: underscore
Encoding: 95 95 66
Width: 1133
GlyphClass: 2
Flags: W
LayerCount: 2
Fore
SplineSet
-3 -976 m 1,0,-1
 -3 -843 l 1,1,-1
 1136 -843 l 1,2,-1
 1136 -976 l 1,3,-1
 -3 -976 l 1,0,-1
EndSplineSet
Substitution2: "<17001,16003> Urdu lookup 85 subtable" underscore
EndChar

StartChar: grave
Encoding: 96 96 67
Width: 676
GlyphClass: 2
Flags: W
LayerCount: 2
Fore
SplineSet
515 1235 m 1,0,-1
 306 1235 l 1,1,-1
 1 1536 l 1,2,-1
 322 1536 l 1,3,-1
 515 1235 l 1,0,-1
EndSplineSet
Substitution2: "<17001,16003> Urdu lookup 85 subtable" grave
EndChar

StartChar: a
Encoding: 97 97 68
Width: 1133
GlyphClass: 2
Flags: W
LayerCount: 2
Fore
SplineSet
730 528 m 1,0,1
 713 517 713 517 696 509.5 c 128,-1,2
 679 502 679 502 657.5 496 c 128,-1,3
 636 490 636 490 607 484 c 128,-1,4
 578 478 578 478 537 470 c 0,5,6
 447 454 447 454 408 431 c 1,7,-1
 409 431 l 1,8,9
 343 392 343 392 343 312 c 0,10,11
 343 276 343 276 354 250 c 128,-1,12
 365 224 365 224 383.5 207.5 c 128,-1,13
 402 191 402 191 427.5 183 c 128,-1,14
 453 175 453 175 481 175 c 0,15,16
 525 175 525 175 569 187 c 128,-1,17
 613 199 613 199 648.5 228 c 128,-1,18
 684 257 684 257 706.5 305 c 128,-1,19
 729 353 729 353 730 424 c 1,20,-1
 730 528 l 1,0,1
558 664 m 2,21,22
 608 670 608 670 641 679 c 128,-1,23
 674 688 674 688 694 700.5 c 128,-1,24
 714 713 714 713 722.5 730 c 128,-1,25
 731 747 731 747 731 769 c 0,26,27
 731 835 731 835 685.5 860.5 c 128,-1,28
 640 886 640 886 549 886 c 0,29,30
 461 886 461 886 420.5 848.5 c 128,-1,31
 380 811 380 811 367 736 c 1,32,-1
 91 736 l 1,33,34
 103 925 103 925 218 1020.5 c 128,-1,35
 333 1116 333 1116 559 1116 c 0,36,37
 647 1116 647 1116 727.5 1097.5 c 128,-1,38
 808 1079 808 1079 877 1046 c 1,39,40
 943 1009 943 1009 979.5 941.5 c 128,-1,41
 1016 874 1016 874 1016 777 c 2,42,-1
 1016 278 l 1,43,-1
 1016 265 l 2,44,45
 1016 244 1016 244 1017 221.5 c 128,-1,46
 1018 199 1018 199 1018 173 c 2,47,-1
 1018 152 l 1,48,49
 1020 125 1020 125 1023.5 107 c 128,-1,50
 1027 89 1027 89 1034 77.5 c 128,-1,51
 1041 66 1041 66 1051.5 58.5 c 128,-1,52
 1062 51 1062 51 1077 44 c 1,53,-1
 1077 0 l 1,54,-1
 766 0 l 1,55,56
 753 32 753 32 748 60.5 c 128,-1,57
 743 89 743 89 740 126 c 1,58,59
 711 95 711 95 677.5 68.5 c 128,-1,60
 644 42 644 42 606 19 c 0,61,62
 514 -34 514 -34 397 -34 c 0,63,64
 322 -34 322 -34 259.5 -12.5 c 128,-1,65
 197 9 197 9 152 50.5 c 128,-1,66
 107 92 107 92 81.5 152.5 c 128,-1,67
 56 213 56 213 56 291 c 0,68,69
 56 370 56 370 77.5 431 c 128,-1,70
 99 492 99 492 147 536.5 c 128,-1,71
 195 581 195 581 272.5 609.5 c 128,-1,72
 350 638 350 638 461 652 c 2,73,-1
 558 664 l 2,21,22
EndSplineSet
Substitution2: "<17001,16003> Urdu lookup 85 subtable" a
EndChar

StartChar: b
Encoding: 98 98 69
Width: 1245
GlyphClass: 2
Flags: W
LayerCount: 2
Fore
SplineSet
877 529 m 0,0,1
 877 606 877 606 861.5 668 c 128,-1,2
 846 730 846 730 816 773.5 c 128,-1,3
 786 817 786 817 741.5 840.5 c 128,-1,4
 697 864 697 864 638 864 c 0,5,6
 518 864 518 864 457 779 c 128,-1,7
 396 694 396 694 396 530 c 0,8,9
 396 462 396 462 411.5 403 c 128,-1,10
 427 344 427 344 458 300.5 c 128,-1,11
 489 257 489 257 536 232.5 c 128,-1,12
 583 208 583 208 646 208 c 0,13,14
 700 208 700 208 743 231.5 c 128,-1,15
 786 255 786 255 816 297.5 c 128,-1,16
 846 340 846 340 861.5 399 c 128,-1,17
 877 458 877 458 877 529 c 0,0,1
1177 559 m 0,18,19
 1177 435 1177 435 1147 327.5 c 128,-1,20
 1117 220 1117 220 1059 140.5 c 128,-1,21
 1001 61 1001 61 916 16 c 128,-1,22
 831 -29 831 -29 722 -29 c 0,23,24
 653 -29 653 -29 599.5 -15 c 128,-1,25
 546 -1 546 -1 504 25 c 0,26,27
 481 40 481 40 454 68 c 128,-1,28
 427 96 427 96 400 134 c 1,29,-1
 400 0 l 1,30,-1
 120 0 l 1,31,-1
 120 1472 l 1,32,-1
 405 1472 l 1,33,-1
 405 952 l 1,34,35
 434 992 434 992 466 1022.5 c 128,-1,36
 498 1053 498 1053 536 1073 c 128,-1,37
 574 1093 574 1093 619 1103.5 c 128,-1,38
 664 1114 664 1114 719 1114 c 0,39,40
 828 1114 828 1114 913 1072.5 c 128,-1,41
 998 1031 998 1031 1056.5 957.5 c 128,-1,42
 1115 884 1115 884 1146 782 c 128,-1,43
 1177 680 1177 680 1177 559 c 0,18,19
EndSplineSet
Substitution2: "<17001,16003> Urdu lookup 85 subtable" b
EndChar

StartChar: c
Encoding: 99 99 70
AltUni2: 00217d.ffffffff.0
Width: 1133
GlyphClass: 2
Flags: W
LayerCount: 2
Fore
SplineSet
780 698 m 1,0,1
 776 737 776 737 762 769 c 128,-1,2
 748 801 748 801 724 824.5 c 128,-1,3
 700 848 700 848 666.5 861 c 128,-1,4
 633 874 633 874 591 874 c 0,5,6
 479 874 479 874 423 790 c 128,-1,7
 367 706 367 706 367 530 c 0,8,9
 367 362 367 362 422 282.5 c 128,-1,10
 477 203 477 203 586 203 c 0,11,12
 636 203 636 203 670.5 217.5 c 128,-1,13
 705 232 705 232 727.5 258 c 128,-1,14
 750 284 750 284 762 319.5 c 128,-1,15
 774 355 774 355 778 396 c 1,16,-1
 1070 396 l 1,17,18
 1063 308 1063 308 1024 229.5 c 128,-1,19
 985 151 985 151 920.5 91.5 c 128,-1,20
 856 32 856 32 769 -3 c 128,-1,21
 682 -38 682 -38 579 -38 c 0,22,23
 446 -38 446 -38 349.5 3.5 c 128,-1,24
 253 45 253 45 190.5 119 c 128,-1,25
 128 193 128 193 98 296.5 c 128,-1,26
 68 400 68 400 68 523 c 0,27,28
 68 663 68 663 103 773 c 128,-1,29
 138 883 138 883 204 959.5 c 128,-1,30
 270 1036 270 1036 366 1076 c 128,-1,31
 462 1116 462 1116 583 1116 c 0,32,33
 688 1116 688 1116 770.5 1093 c 128,-1,34
 853 1070 853 1070 919 1025 c 256,35,36
 985 980 985 980 1023 898 c 128,-1,37
 1061 816 1061 816 1073 698 c 1,38,-1
 780 698 l 1,0,1
EndSplineSet
Substitution2: "<17001,16003> Urdu lookup 85 subtable" c
EndChar

StartChar: d
Encoding: 100 100 71
AltUni2: 00217e.ffffffff.0
Width: 1245
GlyphClass: 2
Flags: W
LayerCount: 2
Fore
SplineSet
840 529 m 0,0,1
 840 607 840 607 823 669.5 c 128,-1,2
 806 732 806 732 774.5 775.5 c 128,-1,3
 743 819 743 819 697.5 842.5 c 128,-1,4
 652 866 652 866 596 866 c 0,5,6
 533 866 533 866 487.5 840 c 128,-1,7
 442 814 442 814 412.5 769.5 c 128,-1,8
 383 725 383 725 369 665.5 c 128,-1,9
 355 606 355 606 355 538 c 0,10,11
 355 464 355 464 369.5 403 c 128,-1,12
 384 342 384 342 414 298.5 c 128,-1,13
 444 255 444 255 489 231.5 c 128,-1,14
 534 208 534 208 594 208 c 0,15,16
 655 208 655 208 701 232 c 128,-1,17
 747 256 747 256 778 299 c 128,-1,18
 809 342 809 342 824.5 401 c 128,-1,19
 840 460 840 460 840 529 c 0,0,1
832 1472 m 1,20,-1
 1122 1472 l 1,21,-1
 1122 0 l 1,22,-1
 844 0 l 1,23,-1
 844 148 l 1,24,25
 814 101 814 101 780 66.5 c 128,-1,26
 746 32 746 32 706 9.5 c 128,-1,27
 666 -13 666 -13 618 -23.5 c 128,-1,28
 570 -34 570 -34 512 -34 c 0,29,30
 416 -34 416 -34 333.5 7.5 c 128,-1,31
 251 49 251 49 190 123 c 128,-1,32
 129 197 129 197 94.5 298 c 128,-1,33
 60 399 60 399 60 517 c 0,34,35
 60 657 60 657 93.5 768 c 128,-1,36
 127 879 127 879 188.5 956 c 128,-1,37
 250 1033 250 1033 337 1074.5 c 128,-1,38
 424 1116 424 1116 532 1116 c 0,39,40
 632 1116 632 1116 708 1075 c 128,-1,41
 784 1034 784 1034 832 956 c 1,42,-1
 832 1472 l 1,20,-1
EndSplineSet
Substitution2: "<17001,16003> Urdu lookup 85 subtable" d
EndChar

StartChar: e
Encoding: 101 101 72
Width: 1133
GlyphClass: 2
Flags: W
LayerCount: 2
Fore
SplineSet
780 655 m 1,0,1
 774 707 774 707 755.5 749 c 128,-1,2
 737 791 737 791 708 821 c 128,-1,3
 679 851 679 851 641.5 867 c 128,-1,4
 604 883 604 883 560 883 c 0,5,6
 512 883 512 883 474.5 866 c 128,-1,7
 437 849 437 849 409.5 819 c 128,-1,8
 382 789 382 789 364.5 747 c 128,-1,9
 347 705 347 705 339 655 c 1,10,-1
 780 655 l 1,0,1
985 908 m 1,11,12
 1048 814 1048 814 1068 682 c 0,13,14
 1073 649 1073 649 1075 603.5 c 128,-1,15
 1077 558 1077 558 1077 500 c 2,16,-1
 1077 465 l 1,17,-1
 332 465 l 1,18,19
 338 335 338 335 401 266 c 128,-1,20
 464 197 464 197 576 197 c 0,21,22
 712 197 712 197 771 322 c 1,23,-1
 1063 322 l 1,24,25
 1058 273 1058 273 1031.5 222.5 c 128,-1,26
 1005 172 1005 172 962 123 c 0,27,28
 893 45 893 45 794.5 4.5 c 128,-1,29
 696 -36 696 -36 570 -36 c 0,30,31
 363 -36 363 -36 202 98 c 1,32,33
 44 232 44 232 44 534 c 0,34,35
 44 677 44 677 81.5 786 c 128,-1,36
 119 895 119 895 187.5 969 c 128,-1,37
 256 1043 256 1043 351 1081 c 128,-1,38
 446 1119 446 1119 560 1119 c 0,39,40
 697 1119 697 1119 805.5 1069 c 128,-1,41
 914 1019 914 1019 985 908 c 1,11,12
EndSplineSet
Substitution2: "<17001,16003> Urdu lookup 85 subtable" e
EndChar

StartChar: f
Encoding: 102 102 73
Width: 676
GlyphClass: 2
Flags: W
LayerCount: 2
Fore
SplineSet
642 1249 m 1,0,1
 630 1251 630 1251 608.5 1252 c 128,-1,2
 587 1253 587 1253 555 1253 c 0,3,4
 530 1253 530 1253 512 1246 c 128,-1,5
 494 1239 494 1239 483 1227 c 128,-1,6
 472 1215 472 1215 467 1200.5 c 128,-1,7
 462 1186 462 1186 462 1171 c 2,8,-1
 462 1080 l 1,9,-1
 649 1080 l 1,10,-1
 649 878 l 1,11,-1
 462 878 l 1,12,-1
 462 0 l 1,13,-1
 176 0 l 1,14,-1
 176 878 l 1,15,-1
 17 878 l 1,16,-1
 17 1080 l 1,17,-1
 173 1080 l 1,18,-1
 173 1149 l 2,19,20
 173 1324 173 1324 232 1391 c 1,21,22
 298 1489 298 1489 532 1489 c 0,23,24
 546 1489 546 1489 557.5 1488 c 128,-1,25
 569 1487 569 1487 581 1486 c 128,-1,26
 593 1485 593 1485 608 1484 c 128,-1,27
 623 1483 623 1483 642 1483 c 1,28,-1
 642 1249 l 1,0,1
EndSplineSet
Substitution2: "<17001,16003> Urdu lookup 85 subtable" f
EndChar

StartChar: g
Encoding: 103 103 74
Width: 1245
GlyphClass: 2
Flags: W
LayerCount: 2
Fore
SplineSet
835 550 m 0,0,1
 835 627 835 627 818 686 c 128,-1,2
 801 745 801 745 769.5 785 c 128,-1,3
 738 825 738 825 694 845.5 c 128,-1,4
 650 866 650 866 595 866 c 0,5,6
 481 866 481 866 420 780 c 128,-1,7
 359 694 359 694 359 541 c 0,8,9
 359 470 359 470 375.5 413.5 c 128,-1,10
 392 357 392 357 422.5 317.5 c 128,-1,11
 453 278 453 278 497.5 257 c 128,-1,12
 542 236 542 236 598 236 c 0,13,14
 647 236 647 236 690 254.5 c 128,-1,15
 733 273 733 273 765.5 311.5 c 128,-1,16
 798 350 798 350 816.5 409.5 c 128,-1,17
 835 469 835 469 835 550 c 0,0,1
670 1091 m 1,18,19
 773 1051 773 1051 837 937 c 1,20,-1
 837 1090 l 1,21,-1
 1115 1090 l 1,22,-1
 1115 57 l 2,23,24
 1115 -48 1115 -48 1096.5 -128 c 128,-1,25
 1078 -208 1078 -208 1044 -262 c 1,26,27
 981 -353 981 -353 865.5 -399 c 128,-1,28
 750 -445 750 -445 576 -445 c 0,29,30
 474 -445 474 -445 387.5 -425 c 128,-1,31
 301 -405 301 -405 237 -364.5 c 128,-1,32
 173 -324 173 -324 134.5 -262.5 c 128,-1,33
 96 -201 96 -201 89 -117 c 1,34,-1
 400 -117 l 1,35,36
 416 -180 416 -180 461 -204 c 128,-1,37
 506 -228 506 -228 593 -228 c 0,38,39
 658 -228 658 -228 703 -213 c 128,-1,40
 748 -198 748 -198 777 -161 c 128,-1,41
 806 -124 806 -124 819 -61.5 c 128,-1,42
 832 1 832 1 832 96 c 2,43,-1
 832 163 l 1,44,45
 805 118 805 118 773.5 86 c 128,-1,46
 742 54 742 54 704.5 33.5 c 128,-1,47
 667 13 667 13 622.5 4 c 128,-1,48
 578 -5 578 -5 524 -5 c 0,49,50
 418 -5 418 -5 333 33.5 c 128,-1,51
 248 72 248 72 188 143.5 c 128,-1,52
 128 215 128 215 95.5 316 c 128,-1,53
 63 417 63 417 63 542 c 0,54,55
 63 662 63 662 93.5 766.5 c 128,-1,56
 124 871 124 871 183 949 c 128,-1,57
 242 1027 242 1027 328.5 1071.5 c 128,-1,58
 415 1116 415 1116 527 1116 c 0,59,60
 611 1116 611 1116 670 1091 c 1,18,19
EndSplineSet
Substitution2: "<17001,16003> Urdu lookup 85 subtable" g
EndChar

StartChar: h
Encoding: 104 104 75
Width: 1245
GlyphClass: 2
Flags: W
LayerCount: 2
Fore
SplineSet
1050 977 m 1,0,1
 1095 914 1095 914 1105 850 c 0,2,3
 1110 818 1110 818 1112.5 765.5 c 128,-1,4
 1115 713 1115 713 1115 640 c 2,5,-1
 1115 0 l 1,6,-1
 823 0 l 1,7,-1
 823 663 l 2,8,9
 823 766 823 766 782.5 823 c 128,-1,10
 742 880 742 880 646 880 c 0,11,12
 532 880 532 880 474.5 805.5 c 128,-1,13
 417 731 417 731 417 590 c 2,14,-1
 417 0 l 1,15,-1
 132 0 l 1,16,-1
 132 1469 l 1,17,-1
 417 1469 l 1,18,-1
 417 952 l 1,19,20
 479 1044 479 1044 560 1081 c 128,-1,21
 641 1118 641 1118 731 1118 c 0,22,23
 834 1118 834 1118 915 1083.5 c 128,-1,24
 996 1049 996 1049 1050 977 c 1,0,1
EndSplineSet
Substitution2: "<17001,16003> Urdu lookup 85 subtable" h
EndChar

StartChar: i
Encoding: 105 105 76
Width: 563
GlyphClass: 2
Flags: W
LayerCount: 2
Fore
SplineSet
424 1218 m 1,0,-1
 133 1218 l 1,1,-1
 133 1483 l 1,2,-1
 424 1483 l 1,3,-1
 424 1218 l 1,0,-1
133 1090 m 1,4,-1
 424 1090 l 1,5,-1
 424 0 l 1,6,-1
 133 0 l 1,7,-1
 133 1090 l 1,4,-1
EndSplineSet
Substitution2: "<17001,16003> Urdu lookup 85 subtable" i
EndChar

StartChar: j
Encoding: 106 106 77
Width: 563
GlyphClass: 2
Flags: W
LayerCount: 2
Fore
SplineSet
429 1218 m 1,0,-1
 142 1218 l 1,1,-1
 142 1483 l 1,2,-1
 429 1483 l 1,3,-1
 429 1218 l 1,0,-1
5 -207 m 1,4,5
 29 -209 29 -209 39 -209.5 c 128,-1,6
 49 -210 49 -210 58 -210 c 0,7,8
 79 -210 79 -210 94.5 -205.5 c 128,-1,9
 110 -201 110 -201 120.5 -190 c 128,-1,10
 131 -179 131 -179 136.5 -159.5 c 128,-1,11
 142 -140 142 -140 142 -111 c 2,12,-1
 142 1085 l 1,13,-1
 429 1085 l 1,14,-1
 429 -116 l 2,15,16
 429 -197 429 -197 415.5 -258 c 128,-1,17
 402 -319 402 -319 366 -359 c 128,-1,18
 330 -399 330 -399 268 -419 c 128,-1,19
 206 -439 206 -439 108 -439 c 0,20,21
 76 -439 76 -439 5 -436 c 1,22,-1
 5 -207 l 1,4,5
EndSplineSet
Substitution2: "<17001,16003> Urdu lookup 85 subtable" j
EndChar

StartChar: k
Encoding: 107 107 78
Width: 1133
GlyphClass: 2
Flags: W
LayerCount: 2
Fore
SplineSet
127 1469 m 1,0,-1
 408 1469 l 1,1,-1
 408 678 l 1,2,3
 498 781 498 781 584.5 881.5 c 128,-1,4
 671 982 671 982 761 1085 c 1,5,-1
 1117 1085 l 1,6,-1
 736 668 l 1,7,8
 833 503 833 503 933.5 333.5 c 128,-1,9
 1034 164 1034 164 1131 0 c 1,10,-1
 786 0 l 1,11,-1
 525 464 l 1,12,13
 498 436 498 436 466.5 403 c 128,-1,14
 435 370 435 370 408 343 c 1,15,-1
 408 0 l 1,16,-1
 127 0 l 1,17,-1
 127 1469 l 1,0,-1
EndSplineSet
Substitution2: "<17001,16003> Urdu lookup 85 subtable" k
EndChar

StartChar: l
Encoding: 108 108 79
AltUni2: 00217c.ffffffff.0
Width: 563
GlyphClass: 2
Flags: W
LayerCount: 2
Fore
SplineSet
422 0 m 1,0,-1
 135 0 l 1,1,-1
 135 1474 l 1,2,-1
 422 1474 l 1,3,-1
 422 0 l 1,0,-1
EndSplineSet
Substitution2: "<17001,16003> Urdu lookup 85 subtable" l
EndChar

StartChar: m
Encoding: 109 109 80
AltUni2: 00217f.ffffffff.0
Width: 1815
GlyphClass: 2
Flags: W
LayerCount: 2
Fore
SplineSet
1617 989 m 0,0,1
 1638 964 1638 964 1652 937.5 c 128,-1,2
 1666 911 1666 911 1674.5 877 c 128,-1,3
 1683 843 1683 843 1686 797 c 128,-1,4
 1689 751 1689 751 1689 687 c 2,5,-1
 1687 0 l 1,6,-1
 1393 0 l 1,7,-1
 1393 694 l 2,8,9
 1393 784 1393 784 1353 827.5 c 128,-1,10
 1313 871 1313 871 1235 871 c 0,11,12
 1145 871 1145 871 1097.5 814.5 c 128,-1,13
 1050 758 1050 758 1050 649 c 2,14,-1
 1050 0 l 1,15,-1
 761 0 l 1,16,-1
 761 649 l 2,17,18
 761 711 761 711 752 753 c 128,-1,19
 743 795 743 795 723.5 820.5 c 128,-1,20
 704 846 704 846 674 857 c 128,-1,21
 644 868 644 868 601 868 c 0,22,23
 552 868 552 868 517 856.5 c 128,-1,24
 482 845 482 845 459.5 819.5 c 128,-1,25
 437 794 437 794 426.5 754 c 128,-1,26
 416 714 416 714 416 656 c 2,27,-1
 416 0 l 1,28,-1
 125 0 l 1,29,-1
 125 1088 l 1,30,-1
 404 1088 l 1,31,-1
 404 933 l 1,32,33
 455 1015 455 1015 502 1051 c 0,34,35
 583 1114 583 1114 717 1114 c 0,36,37
 835 1114 835 1114 906 1068 c 128,-1,38
 977 1022 977 1022 1013 931 c 1,39,40
 1070 1028 1070 1028 1154.5 1071 c 128,-1,41
 1239 1114 1239 1114 1347 1114 c 0,42,43
 1420 1114 1420 1114 1490 1086 c 128,-1,44
 1560 1058 1560 1058 1617 989 c 0,0,1
EndSplineSet
Substitution2: "<17001,16003> Urdu lookup 85 subtable" m
EndChar

StartChar: n
Encoding: 110 110 81
Width: 1245
GlyphClass: 2
Flags: W
LayerCount: 2
Fore
SplineSet
1118 0 m 1,0,-1
 825 0 l 1,1,-1
 825 663 l 2,2,3
 825 777 825 777 780.5 827.5 c 128,-1,4
 736 878 736 878 643 878 c 0,5,6
 531 878 531 878 474 807.5 c 128,-1,7
 417 737 417 737 417 590 c 2,8,-1
 417 0 l 1,9,-1
 132 0 l 1,10,-1
 132 1088 l 1,11,-1
 408 1088 l 1,12,-1
 408 933 l 1,13,14
 462 1015 462 1015 510 1051 c 0,15,16
 598 1116 598 1116 734 1116 c 0,17,18
 819 1116 819 1116 889.5 1094.5 c 128,-1,19
 960 1073 960 1073 1011 1027 c 128,-1,20
 1062 981 1062 981 1090 908.5 c 128,-1,21
 1118 836 1118 836 1118 734 c 2,22,-1
 1118 0 l 1,0,-1
EndSplineSet
Substitution2: "<17001,16003> Urdu lookup 85 subtable" n
EndChar

StartChar: o
Encoding: 111 111 82
Width: 1245
GlyphClass: 2
Flags: W
LayerCount: 2
Fore
SplineSet
877 543 m 0,0,1
 877 709 877 709 811 796 c 128,-1,2
 745 883 745 883 619 883 c 256,3,4
 493 883 493 883 426.5 796 c 128,-1,5
 360 709 360 709 360 543 c 0,6,7
 360 378 360 378 426.5 290.5 c 128,-1,8
 493 203 493 203 619 203 c 256,9,10
 745 203 745 203 811 290.5 c 128,-1,11
 877 378 877 378 877 543 c 0,0,1
620 -38 m 256,12,13
 338 -38 338 -38 201 132 c 0,14,15
 63 303 63 303 63 543 c 0,16,17
 63 782 63 782 201 953 c 0,18,19
 339 1125 339 1125 620 1125 c 0,20,21
 903 1125 903 1125 1039 953 c 1,22,23
 1177 781 1177 781 1177 543 c 0,24,25
 1177 303 1177 303 1039 132 c 0,26,27
 902 -38 902 -38 620 -38 c 256,12,13
EndSplineSet
Substitution2: "<17001,16003> Urdu lookup 85 subtable" o
EndChar

StartChar: p
Encoding: 112 112 83
Width: 1245
GlyphClass: 2
Flags: W
LayerCount: 2
Fore
SplineSet
637 864 m 0,0,1
 518 864 518 864 456.5 774 c 128,-1,2
 395 684 395 684 395 520 c 0,3,4
 395 447 395 447 412.5 389.5 c 128,-1,5
 430 332 430 332 461.5 292 c 128,-1,6
 493 252 493 252 538 231 c 128,-1,7
 583 210 583 210 637 210 c 0,8,9
 696 210 696 210 741.5 234 c 128,-1,10
 787 258 787 258 817.5 302.5 c 128,-1,11
 848 347 848 347 864 408.5 c 128,-1,12
 880 470 880 470 880 545 c 0,13,14
 880 605 880 605 866.5 662 c 128,-1,15
 853 719 853 719 824 764 c 128,-1,16
 795 809 795 809 749 836.5 c 128,-1,17
 703 864 703 864 637 864 c 0,0,1
1175 559 m 1,18,19
 1175 418 1175 418 1141 308 c 128,-1,20
 1107 198 1107 198 1045.5 122.5 c 128,-1,21
 984 47 984 47 899 8 c 128,-1,22
 814 -31 814 -31 712 -31 c 0,23,24
 660 -31 660 -31 616.5 -22 c 128,-1,25
 573 -13 573 -13 536 7.5 c 128,-1,26
 499 28 499 28 467 59.5 c 128,-1,27
 435 91 435 91 405 136 c 1,28,-1
 405 -428 l 1,29,-1
 122 -428 l 1,30,-1
 122 1090 l 1,31,-1
 396 1090 l 1,32,-1
 396 933 l 1,33,34
 461 1028 461 1028 538 1071 c 128,-1,35
 615 1114 615 1114 719 1114 c 0,36,37
 813 1114 813 1114 894.5 1077.5 c 128,-1,38
 976 1041 976 1041 1042 974 c 0,39,40
 1109 905 1109 905 1141.5 800.5 c 128,-1,41
 1174 696 1174 696 1175 559 c 1,18,19
EndSplineSet
Substitution2: "<17001,16003> Urdu lookup 85 subtable" p
EndChar

StartChar: q
Encoding: 113 113 84
Width: 1245
GlyphClass: 2
Flags: W
LayerCount: 2
Fore
SplineSet
800 337 m 0,0,1
 840 416 840 416 840 546 c 0,2,3
 840 621 840 621 823 680 c 128,-1,4
 806 739 806 739 774 780.5 c 128,-1,5
 742 822 742 822 696 844 c 128,-1,6
 650 866 650 866 593 866 c 0,7,8
 539 866 539 866 495.5 845.5 c 128,-1,9
 452 825 452 825 420.5 783 c 128,-1,10
 389 741 389 741 372 678.5 c 128,-1,11
 355 616 355 616 355 532 c 0,12,13
 355 370 355 370 415 291 c 128,-1,14
 475 212 475 212 592 212 c 0,15,16
 738 212 738 212 800 337 c 0,0,1
741 1052 m 0,17,18
 766 1033 766 1033 789.5 1003.5 c 128,-1,19
 813 974 813 974 839 931 c 1,20,-1
 839 1088 l 1,21,-1
 1115 1088 l 1,22,-1
 1115 -431 l 1,23,-1
 832 -431 l 1,24,-1
 832 131 l 1,25,26
 816 99 816 99 789 69.5 c 128,-1,27
 762 40 762 40 723 17 c 128,-1,28
 684 -6 684 -6 631.5 -20 c 128,-1,29
 579 -34 579 -34 512 -34 c 0,30,31
 417 -34 417 -34 334 6.5 c 128,-1,32
 251 47 251 47 189.5 120 c 128,-1,33
 128 193 128 193 92.5 295 c 128,-1,34
 57 397 57 397 57 520 c 0,35,36
 57 654 57 654 92 764.5 c 128,-1,37
 127 875 127 875 188.5 953.5 c 128,-1,38
 250 1032 250 1032 335 1075 c 128,-1,39
 420 1118 420 1118 520 1118 c 0,40,41
 657 1118 657 1118 741 1052 c 0,17,18
EndSplineSet
Substitution2: "<17001,16003> Urdu lookup 85 subtable" q
EndChar

StartChar: r
Encoding: 114 114 85
Width: 791
GlyphClass: 2
Flags: W
LayerCount: 2
Fore
SplineSet
761 821 m 1,0,1
 734 824 734 824 712.5 825 c 128,-1,2
 691 826 691 826 678 826 c 0,3,4
 609 826 609 826 559.5 810 c 128,-1,5
 510 794 510 794 477.5 758 c 128,-1,6
 445 722 445 722 430 663.5 c 128,-1,7
 415 605 415 605 415 521 c 2,8,-1
 415 0 l 1,9,-1
 126 0 l 1,10,-1
 126 1090 l 1,11,-1
 400 1090 l 1,12,-1
 400 904 l 1,13,14
 465 1008 465 1008 513 1050 c 0,15,16
 554 1085 554 1085 610.5 1100.5 c 128,-1,17
 667 1116 667 1116 733 1116 c 0,18,19
 738 1116 738 1116 744 1116 c 128,-1,20
 750 1116 750 1116 761 1114 c 1,21,-1
 761 821 l 1,0,1
EndSplineSet
Substitution2: "<17001,16003> Urdu lookup 85 subtable" r
EndChar

StartChar: s
Encoding: 115 115 86
Width: 1133
GlyphClass: 2
Flags: W
LayerCount: 2
Fore
SplineSet
353 350 m 1,0,1
 359 302 359 302 375 270 c 128,-1,2
 391 238 391 238 419 219 c 128,-1,3
 447 200 447 200 488.5 192.5 c 128,-1,4
 530 185 530 185 587 185 c 0,5,6
 672 185 672 185 720.5 209 c 128,-1,7
 769 233 769 233 769 284 c 0,8,9
 769 332 769 332 729 356 c 0,10,11
 708 369 708 369 635 389.5 c 128,-1,12
 562 410 562 410 433 441 c 0,13,14
 342 463 342 463 278 490.5 c 128,-1,15
 214 518 214 518 174 554.5 c 128,-1,16
 134 591 134 591 115.5 639.5 c 128,-1,17
 97 688 97 688 96 753 c 1,18,19
 96 830 96 830 127 897 c 128,-1,20
 158 964 158 964 216 1013.5 c 128,-1,21
 274 1063 274 1063 358 1092 c 128,-1,22
 442 1121 442 1121 548 1121 c 0,23,24
 648 1121 648 1121 732 1102.5 c 128,-1,25
 816 1084 816 1084 878 1041 c 128,-1,26
 940 998 940 998 979 928.5 c 128,-1,27
 1018 859 1018 859 1028 757 c 1,28,-1
 742 757 l 1,29,30
 734 835 734 835 687 868.5 c 128,-1,31
 640 902 640 902 552 902 c 0,32,33
 506 902 506 902 473.5 894 c 128,-1,34
 441 886 441 886 420.5 873 c 128,-1,35
 400 860 400 860 390.5 842.5 c 128,-1,36
 381 825 381 825 381 806 c 0,37,38
 381 760 381 760 422 736 c 1,39,40
 446 725 446 725 520 704.5 c 128,-1,41
 594 684 594 684 719 657 c 0,42,43
 893 618 893 618 975.5 536 c 128,-1,44
 1058 454 1058 454 1058 331 c 0,45,46
 1058 252 1058 252 1029.5 184.5 c 128,-1,47
 1001 117 1001 117 940.5 68 c 128,-1,48
 880 19 880 19 787 -9 c 128,-1,49
 694 -37 694 -37 565 -37 c 0,50,51
 435 -37 435 -37 340 -7.5 c 128,-1,52
 245 22 245 22 183.5 73.5 c 128,-1,53
 122 125 122 125 92.5 196 c 128,-1,54
 63 267 63 267 63 350 c 1,55,-1
 353 350 l 1,0,1
EndSplineSet
Substitution2: "<17001,16003> Urdu lookup 85 subtable" s
EndChar

StartChar: t
Encoding: 116 116 87
Width: 676
GlyphClass: 2
Flags: W
LayerCount: 2
Fore
SplineSet
17 876 m 1,0,-1
 17 1080 l 1,1,-1
 169 1080 l 1,2,-1
 169 1384 l 1,3,-1
 453 1384 l 1,4,-1
 453 1080 l 1,5,-1
 630 1080 l 1,6,-1
 630 876 l 1,7,-1
 453 876 l 1,8,-1
 453 302 l 2,9,10
 453 269 453 269 455 249.5 c 128,-1,11
 457 230 457 230 468.5 219.5 c 128,-1,12
 480 209 480 209 504 206 c 128,-1,13
 528 203 528 203 573 203 c 0,14,15
 586 203 586 203 601 203.5 c 128,-1,16
 616 204 616 204 630 205 c 1,17,-1
 630 -10 l 1,18,-1
 494 -15 l 2,19,20
 485 -15 485 -15 476.5 -15.5 c 128,-1,21
 468 -16 468 -16 460 -16 c 0,22,23
 384 -16 384 -16 329 -4 c 128,-1,24
 274 8 274 8 238.5 35 c 128,-1,25
 203 62 203 62 186 104.5 c 128,-1,26
 169 147 169 147 169 207 c 2,27,-1
 169 876 l 1,28,-1
 17 876 l 1,0,-1
EndSplineSet
Substitution2: "<17001,16003> Urdu lookup 85 subtable" t
EndChar

StartChar: u
Encoding: 117 117 88
Width: 1245
GlyphClass: 2
Flags: W
LayerCount: 2
Fore
SplineSet
415 1090 m 1,0,-1
 415 433 l 2,1,2
 415 314 415 314 456.5 263 c 128,-1,3
 498 212 498 212 589 212 c 0,4,5
 704 212 704 212 760 283.5 c 128,-1,6
 816 355 816 355 816 497 c 2,7,-1
 816 1090 l 1,8,-1
 1106 1090 l 1,9,-1
 1106 0 l 1,10,-1
 828 0 l 1,11,-1
 828 152 l 1,12,13
 826 150 826 150 823.5 145.5 c 128,-1,14
 821 141 821 141 818 136 c 1,15,-1
 818 137 l 1,16,17
 806 113 806 113 784.5 91 c 128,-1,18
 763 69 763 69 738 51 c 128,-1,19
 713 33 713 33 687.5 19.5 c 128,-1,20
 662 6 662 6 641 -2 c 0,21,22
 582 -24 582 -24 495 -24 c 0,23,24
 399 -24 399 -24 328.5 2 c 128,-1,25
 258 28 258 28 212.5 83.5 c 128,-1,26
 167 139 167 139 144.5 225.5 c 128,-1,27
 122 312 122 312 122 433 c 2,28,-1
 122 1090 l 1,29,-1
 415 1090 l 1,0,-1
EndSplineSet
Substitution2: "<17001,16003> Urdu lookup 85 subtable" u
EndChar

StartChar: v
Encoding: 118 118 89
Width: 1133
GlyphClass: 2
Flags: W
LayerCount: 2
Fore
SplineSet
801 1090 m 1,0,-1
 1108 1090 l 1,1,-1
 716 0 l 1,2,-1
 413 0 l 1,3,-1
 23 1090 l 1,4,-1
 344 1090 l 1,5,-1
 570 291 l 1,6,-1
 801 1090 l 1,0,-1
EndSplineSet
Substitution2: "<17001,16003> Urdu lookup 85 subtable" v
EndChar

StartChar: w
Encoding: 119 119 90
Width: 1587
GlyphClass: 2
Flags: W
LayerCount: 2
Fore
SplineSet
643 1090 m 1,0,-1
 934 1090 l 1,1,-1
 1099 311 l 1,2,3
 1141 507 1141 507 1183 700.5 c 128,-1,4
 1225 894 1225 894 1267 1090 c 1,5,-1
 1566 1090 l 1,6,-1
 1250 0 l 1,7,-1
 956 0 l 1,8,-1
 786 789 l 1,9,10
 743 590 743 590 700 394.5 c 128,-1,11
 657 199 657 199 614 0 c 1,12,-1
 317 0 l 1,13,-1
 11 1090 l 1,14,-1
 319 1090 l 1,15,-1
 487 315 l 1,16,-1
 643 1090 l 1,0,-1
EndSplineSet
Substitution2: "<17001,16003> Urdu lookup 85 subtable" w
EndChar

StartChar: x
Encoding: 120 120 91
Width: 1133
GlyphClass: 2
Flags: W
LayerCount: 2
Fore
SplineSet
22 0 m 1,0,-1
 393 552 l 1,1,2
 351 615 351 615 306 683 c 128,-1,3
 261 751 261 751 215.5 820 c 128,-1,4
 170 889 170 889 125 957 c 128,-1,5
 80 1025 80 1025 38 1088 c 1,6,-1
 388 1088 l 1,7,-1
 570 774 l 1,8,9
 615 853 615 853 659 931.5 c 128,-1,10
 703 1010 703 1010 748 1088 c 1,11,-1
 1088 1088 l 1,12,-1
 731 557 l 1,13,14
 822 419 822 419 916.5 278 c 128,-1,15
 1011 137 1011 137 1102 0 c 1,16,-1
 746 0 l 1,17,-1
 558 326 l 1,18,19
 510 245 510 245 464 163 c 128,-1,20
 418 81 418 81 370 0 c 1,21,-1
 22 0 l 1,0,-1
EndSplineSet
Substitution2: "<17001,16003> Urdu lookup 85 subtable" x
EndChar

StartChar: y
Encoding: 121 121 92
Width: 1133
GlyphClass: 2
Flags: W
LayerCount: 2
Fore
SplineSet
174 -207 m 1,0,-1
 210 -209 l 2,1,2
 217 -210 217 -210 224 -210 c 128,-1,3
 231 -210 231 -210 238 -210 c 0,4,5
 266 -210 266 -210 289.5 -207.5 c 128,-1,6
 313 -205 313 -205 333 -195.5 c 128,-1,7
 353 -186 353 -186 369.5 -166.5 c 128,-1,8
 386 -147 386 -147 399 -113 c 0,9,10
 408 -90 408 -90 413.5 -74.5 c 128,-1,11
 419 -59 419 -59 418 -52 c 0,12,13
 418 -48 418 -48 417 -47 c 2,14,-1
 18 1090 l 1,15,-1
 336 1090 l 1,16,-1
 573 290 l 1,17,18
 630 492 630 492 685 690 c 128,-1,19
 740 888 740 888 797 1090 c 1,20,-1
 1101 1090 l 1,21,-1
 728 19 l 2,22,23
 676 -131 676 -131 631.5 -228.5 c 128,-1,24
 587 -326 587 -326 557 -365 c 1,25,26
 519 -409 519 -409 448 -424.5 c 128,-1,27
 377 -440 377 -440 264 -440 c 0,28,29
 242 -440 242 -440 223.5 -439.5 c 128,-1,30
 205 -439 205 -439 174 -436 c 1,31,-1
 174 -207 l 1,0,-1
EndSplineSet
Substitution2: "<17001,16003> Urdu lookup 85 subtable" y
EndChar

StartChar: z
Encoding: 122 122 93
Width: 1018
GlyphClass: 2
Flags: W
LayerCount: 2
Fore
SplineSet
68 857 m 1,0,-1
 68 1090 l 1,1,-1
 952 1090 l 1,2,-1
 952 852 l 1,3,-1
 402 236 l 1,4,-1
 971 236 l 1,5,-1
 971 0 l 1,6,-1
 30 0 l 1,7,-1
 30 224 l 1,8,-1
 586 857 l 1,9,-1
 68 857 l 1,0,-1
EndSplineSet
Substitution2: "<17001,16003> Urdu lookup 85 subtable" z
EndChar

StartChar: braceleft
Encoding: 123 123 94
Width: 852
GlyphClass: 2
Flags: W
LayerCount: 2
Fore
SplineSet
100 590 m 1,0,1
 156 598 156 598 203 619 c 128,-1,2
 250 640 250 640 284.5 670.5 c 128,-1,3
 319 701 319 701 338.5 739 c 128,-1,4
 358 777 358 777 358 819 c 0,5,6
 358 828 358 828 356 844 c 128,-1,7
 354 860 354 860 350.5 880.5 c 128,-1,8
 347 901 347 901 342.5 924.5 c 128,-1,9
 338 948 338 948 333 972 c 2,10,-1
 327 1003 l 2,11,12
 312 1085 312 1085 310 1133 c 1,13,14
 310 1216 310 1216 341 1291 c 128,-1,15
 372 1366 372 1366 429.5 1426.5 c 128,-1,16
 487 1487 487 1487 569 1529 c 128,-1,17
 651 1571 651 1571 752 1587 c 1,18,-1
 752 1487 l 1,19,20
 508 1432 508 1432 508 1262 c 0,21,22
 508 1253 508 1253 509.5 1237.5 c 128,-1,23
 511 1222 511 1222 514 1202.5 c 128,-1,24
 517 1183 517 1183 521 1161 c 128,-1,25
 525 1139 525 1139 529 1117 c 1,26,-1
 528 1118 l 1,27,28
 534 1093 534 1093 539 1064.5 c 128,-1,29
 544 1036 544 1036 547.5 1009 c 128,-1,30
 551 982 551 982 553 958.5 c 128,-1,31
 555 935 555 935 555 920 c 0,32,33
 555 676 555 676 291 539 c 1,34,35
 560 408 560 408 560 177 c 0,36,37
 560 151 560 151 554 106 c 128,-1,38
 548 61 548 61 541 13 c 1,39,-1
 538 -4 l 2,40,41
 538 -9 538 -9 536 -17 c 0,42,43
 532 -40 532 -40 528 -64.5 c 128,-1,44
 524 -89 524 -89 521 -111 c 128,-1,45
 518 -133 518 -133 516 -151 c 128,-1,46
 514 -169 514 -169 514 -178 c 0,47,48
 514 -219 514 -219 532 -255 c 128,-1,49
 550 -291 550 -291 581.5 -319.5 c 128,-1,50
 613 -348 613 -348 656.5 -367 c 128,-1,51
 700 -386 700 -386 752 -393 c 1,52,-1
 752 -503 l 1,53,54
 652 -485 652 -485 570.5 -444.5 c 128,-1,55
 489 -404 489 -404 432 -345 c 128,-1,56
 375 -286 375 -286 344 -211.5 c 128,-1,57
 313 -137 313 -137 313 -51 c 0,58,59
 313 -23 313 -23 320.5 25 c 128,-1,60
 328 73 328 73 336.5 124 c 128,-1,61
 345 175 345 175 352.5 219.5 c 128,-1,62
 360 264 360 264 360 286 c 0,63,64
 360 443 360 443 100 499 c 1,65,-1
 100 590 l 1,0,1
EndSplineSet
Substitution2: "<17001,16003> Urdu lookup 85 subtable" braceleft
EndChar

StartChar: bar
Encoding: 124 124 95
Width: 567
GlyphClass: 2
Flags: W
LayerCount: 2
Fore
SplineSet
426 1488 m 1,0,-1
 426 0 l 1,1,-1
 161 0 l 1,2,-1
 161 1488 l 1,3,-1
 426 1488 l 1,0,-1
EndSplineSet
Substitution2: "<17001,16003> Urdu lookup 85 subtable" bar
EndChar

StartChar: braceright
Encoding: 125 125 96
Width: 852
GlyphClass: 2
Flags: W
LayerCount: 2
Fore
SplineSet
752 499 m 1,0,1
 493 444 493 444 493 286 c 0,2,3
 493 264 493 264 500.5 219.5 c 128,-1,4
 508 175 508 175 516.5 124 c 128,-1,5
 525 73 525 73 532.5 25 c 128,-1,6
 540 -23 540 -23 540 -51 c 0,7,8
 540 -137 540 -137 509 -212 c 128,-1,9
 478 -287 478 -287 420.5 -346 c 128,-1,10
 363 -405 363 -405 282 -445.5 c 128,-1,11
 201 -486 201 -486 100 -503 c 1,12,-1
 100 -393 l 1,13,14
 153 -386 153 -386 196.5 -367 c 128,-1,15
 240 -348 240 -348 271.5 -319.5 c 128,-1,16
 303 -291 303 -291 320.5 -255 c 128,-1,17
 338 -219 338 -219 338 -178 c 0,18,19
 338 -162 338 -162 334.5 -135.5 c 128,-1,20
 331 -109 331 -109 326 -76 c 128,-1,21
 321 -43 321 -43 315.5 -7 c 128,-1,22
 310 29 310 29 305 63 c 128,-1,23
 300 97 300 97 296.5 127 c 128,-1,24
 293 157 293 157 293 177 c 0,25,26
 293 297 293 297 359.5 385 c 128,-1,27
 426 473 426 473 561 539 c 1,28,29
 298 676 298 676 298 920 c 0,30,31
 298 948 298 948 305.5 997 c 128,-1,32
 313 1046 313 1046 321.5 1098 c 128,-1,33
 330 1150 330 1150 337.5 1195.5 c 128,-1,34
 345 1241 345 1241 345 1262 c 0,35,36
 345 1431 345 1431 100 1487 c 1,37,-1
 100 1587 l 1,38,39
 201 1571 201 1571 283 1529 c 128,-1,40
 365 1487 365 1487 422.5 1426.5 c 128,-1,41
 480 1366 480 1366 511.5 1291 c 128,-1,42
 543 1216 543 1216 543 1133 c 1,43,44
 541 1085 541 1085 526 1003 c 2,45,-1
 520 972 l 2,46,47
 516 949 516 949 511.5 925.5 c 128,-1,48
 507 902 507 902 503.5 881 c 128,-1,49
 500 860 500 860 497.5 844 c 128,-1,50
 495 828 495 828 495 819 c 0,51,52
 495 777 495 777 514.5 739 c 128,-1,53
 534 701 534 701 568.5 670.5 c 128,-1,54
 603 640 603 640 650 619 c 128,-1,55
 697 598 697 598 752 590 c 1,56,-1
 752 499 l 1,0,1
EndSplineSet
Substitution2: "<17001,16003> Urdu lookup 85 subtable" braceright
EndChar

StartChar: asciitilde
Encoding: 126 126 97
Width: 1190
GlyphClass: 2
Flags: W
LayerCount: 2
Fore
SplineSet
111 652 m 0,0,1
 160 710 160 710 211 733.5 c 128,-1,2
 262 757 262 757 319 757 c 0,3,4
 335 757 335 757 357.5 754.5 c 128,-1,5
 380 752 380 752 404.5 747 c 128,-1,6
 429 742 429 742 453 735.5 c 128,-1,7
 477 729 477 729 497 721 c 2,8,-1
 730 631 l 2,9,10
 772 615 772 615 810 609 c 128,-1,11
 848 603 848 603 869 602 c 1,12,13
 902 602 902 602 928 616.5 c 128,-1,14
 954 631 954 631 973.5 655 c 128,-1,15
 993 679 993 679 1006.5 711 c 128,-1,16
 1020 743 1020 743 1029 778 c 1,17,-1
 1201 778 l 1,18,19
 1187 687 1187 687 1160 604.5 c 128,-1,20
 1133 522 1133 522 1091.5 460 c 128,-1,21
 1050 398 1050 398 993.5 361.5 c 128,-1,22
 937 325 937 325 865 325 c 0,23,24
 823 325 823 325 775.5 336 c 128,-1,25
 728 347 728 347 664 372 c 0,26,27
 624 387 624 387 579.5 406 c 128,-1,28
 535 425 535 425 490 441.5 c 128,-1,29
 445 458 445 458 401.5 469 c 128,-1,30
 358 480 358 480 322 480 c 0,31,32
 265 480 265 480 222 437.5 c 128,-1,33
 179 395 179 395 160 305 c 1,34,-1
 -15 305 l 1,35,36
 21 544 21 544 111 652 c 0,0,1
EndSplineSet
Substitution2: "<17001,16003> Urdu lookup 85 subtable" asciitilde
EndChar

StartChar: Adieresis
Encoding: 196 196 98
Width: 1473
GlyphClass: 2
Flags: W
LayerCount: 2
Fore
SplineSet
815 1847 m 1,0,-1
 1078 1847 l 1,1,-1
 1078 1609 l 1,2,-1
 815 1609 l 1,3,-1
 815 1847 l 1,0,-1
415 1847 m 1,4,-1
 678 1847 l 1,5,-1
 678 1609 l 1,6,-1
 415 1609 l 1,7,-1
 415 1847 l 1,4,-1
557 558 m 1,8,-1
 929 558 l 1,9,10
 884 701 884 701 837.5 846 c 128,-1,11
 791 991 791 991 746 1133 c 1,12,-1
 557 558 l 1,8,-1
574 1474 m 1,13,-1
 924 1474 l 1,14,-1
 1445 0 l 1,15,-1
 1109 0 l 1,16,-1
 1015 303 l 1,17,-1
 474 303 l 1,18,19
 448 228 448 228 423 151.5 c 128,-1,20
 398 75 398 75 373 0 c 1,21,-1
 49 0 l 1,22,-1
 574 1474 l 1,13,-1
EndSplineSet
Substitution2: "<17001,16003> Urdu lookup 85 subtable" Adieresis
EndChar

StartChar: Aring
Encoding: 197 197 99
AltUni2: 00212b.ffffffff.0
Width: 1473
GlyphClass: 2
Flags: W
LayerCount: 2
Fore
SplineSet
759 1630 m 256,0,1
 783 1630 783 1630 804.5 1639.5 c 128,-1,2
 826 1649 826 1649 841.5 1665 c 128,-1,3
 857 1681 857 1681 866.5 1702 c 128,-1,4
 876 1723 876 1723 876 1747 c 256,5,6
 876 1771 876 1771 866.5 1792 c 128,-1,7
 857 1813 857 1813 841 1829 c 128,-1,8
 825 1845 825 1845 804 1854.5 c 128,-1,9
 783 1864 783 1864 759 1864 c 256,10,11
 735 1864 735 1864 714 1854.5 c 128,-1,12
 693 1845 693 1845 676.5 1829 c 128,-1,13
 660 1813 660 1813 650.5 1792 c 128,-1,14
 641 1771 641 1771 641 1747 c 256,15,16
 641 1723 641 1723 650.5 1701.5 c 128,-1,17
 660 1680 660 1680 676 1664.5 c 128,-1,18
 692 1649 692 1649 713.5 1639.5 c 128,-1,19
 735 1630 735 1630 759 1630 c 256,0,1
557 558 m 1,20,-1
 929 558 l 1,21,22
 884 701 884 701 837.5 846 c 128,-1,23
 791 991 791 991 746 1133 c 1,24,-1
 557 558 l 1,20,-1
759 1965 m 256,25,26
 804 1965 804 1965 844 1947.5 c 128,-1,27
 884 1930 884 1930 914 1900.5 c 128,-1,28
 944 1871 944 1871 961 1831.5 c 128,-1,29
 978 1792 978 1792 978 1747 c 256,30,31
 978 1702 978 1702 961 1662 c 128,-1,32
 944 1622 944 1622 914 1592.5 c 128,-1,33
 884 1563 884 1563 844 1545.5 c 128,-1,34
 804 1528 804 1528 759 1528 c 256,35,36
 714 1528 714 1528 674 1545.5 c 128,-1,37
 634 1563 634 1563 604.5 1592.5 c 128,-1,38
 575 1622 575 1622 557.5 1662 c 128,-1,39
 540 1702 540 1702 540 1747 c 256,40,41
 540 1792 540 1792 557.5 1831.5 c 128,-1,42
 575 1871 575 1871 604.5 1900.5 c 128,-1,43
 634 1930 634 1930 674 1947.5 c 128,-1,44
 714 1965 714 1965 759 1965 c 256,25,26
574 1474 m 1,45,-1
 924 1474 l 1,46,-1
 1445 0 l 1,47,-1
 1109 0 l 1,48,-1
 1015 303 l 1,49,-1
 474 303 l 1,50,51
 448 228 448 228 423 151.5 c 128,-1,52
 398 75 398 75 373 0 c 1,53,-1
 49 0 l 1,54,-1
 574 1474 l 1,45,-1
EndSplineSet
Substitution2: "<17001,16003> Urdu lookup 85 subtable" Aring
EndChar

StartChar: Ccedilla
Encoding: 199 199 100
Width: 1473
GlyphClass: 2
Flags: W
LayerCount: 2
Fore
SplineSet
296 1320 m 1,0,1
 475 1502 475 1502 754 1502 c 0,2,3
 1126 1502 1126 1502 1298 1258 c 0,4,5
 1347 1189 1347 1189 1371.5 1120.5 c 128,-1,6
 1396 1052 1396 1052 1400 982 c 1,7,-1
 1091 982 l 1,8,9
 1071 1050 1071 1050 1042.5 1098.5 c 128,-1,10
 1014 1147 1014 1147 974.5 1178 c 128,-1,11
 935 1209 935 1209 883.5 1223 c 128,-1,12
 832 1237 832 1237 766 1237 c 0,13,14
 684 1237 684 1237 617 1202.5 c 128,-1,15
 550 1168 550 1168 503 1102 c 128,-1,16
 456 1036 456 1036 430.5 940 c 128,-1,17
 405 844 405 844 405 720 c 0,18,19
 405 594 405 594 433 501.5 c 128,-1,20
 461 409 461 409 509.5 348 c 128,-1,21
 558 287 558 287 624.5 257 c 128,-1,22
 691 227 691 227 767 227 c 0,23,24
 831 227 831 227 881.5 242 c 128,-1,25
 932 257 932 257 971.5 290 c 128,-1,26
 1011 323 1011 323 1040.5 375.5 c 128,-1,27
 1070 428 1070 428 1091 503 c 1,28,-1
 1397 503 l 1,29,30
 1377 383 1377 383 1323.5 284 c 128,-1,31
 1270 185 1270 185 1192 110 c 1,32,33
 1153 76 1153 76 1107 48.5 c 128,-1,34
 1061 21 1061 21 1011 1.5 c 128,-1,35
 961 -18 961 -18 907.5 -29 c 128,-1,36
 854 -40 854 -40 800 -41 c 1,37,38
 785 -64 785 -64 770.5 -85 c 128,-1,39
 756 -106 756 -106 741 -129 c 1,40,41
 769 -120 769 -120 785 -118.5 c 128,-1,42
 801 -117 801 -117 815 -117 c 0,43,44
 897 -117 897 -117 945 -156.5 c 128,-1,45
 993 -196 993 -196 993 -271 c 0,46,47
 993 -317 993 -317 972.5 -354 c 128,-1,48
 952 -391 952 -391 916 -416.5 c 128,-1,49
 880 -442 880 -442 831 -456 c 128,-1,50
 782 -470 782 -470 724 -470 c 0,51,52
 703 -470 703 -470 682.5 -468 c 128,-1,53
 662 -466 662 -466 637 -460 c 128,-1,54
 612 -454 612 -454 580.5 -443.5 c 128,-1,55
 549 -433 549 -433 507 -417 c 1,56,-1
 545 -330 l 1,57,58
 585 -342 585 -342 609 -348.5 c 128,-1,59
 633 -355 633 -355 648.5 -358.5 c 128,-1,60
 664 -362 664 -362 675.5 -362.5 c 128,-1,61
 687 -363 687 -363 702 -363 c 0,62,63
 732 -363 732 -363 753 -356 c 128,-1,64
 774 -349 774 -349 787.5 -338 c 128,-1,65
 801 -327 801 -327 807 -313.5 c 128,-1,66
 813 -300 813 -300 813 -286 c 0,67,68
 813 -265 813 -265 805 -251 c 128,-1,69
 797 -237 797 -237 784.5 -228 c 128,-1,70
 772 -219 772 -219 756 -215 c 128,-1,71
 740 -211 740 -211 723 -211 c 0,72,73
 703 -211 703 -211 683 -215.5 c 128,-1,74
 663 -220 663 -220 638 -228 c 1,75,-1
 594 -187 l 1,76,-1
 688 -41 l 1,77,78
 451 -41 451 -41 271 163 c 0,79,80
 89 369 89 369 89 725 c 0,81,82
 89 1113 89 1113 296 1320 c 1,0,1
EndSplineSet
Substitution2: "<17001,16003> Urdu lookup 85 subtable" Ccedilla
EndChar

StartChar: Eacute
Encoding: 201 201 101
Width: 1360
GlyphClass: 2
Flags: W
LayerCount: 2
Fore
SplineSet
1054 1890 m 1,0,-1
 748 1590 l 1,1,-1
 539 1590 l 1,2,-1
 732 1890 l 1,3,-1
 1054 1890 l 1,0,-1
1243 1211 m 1,4,-1
 464 1211 l 1,5,-1
 464 901 l 1,6,-1
 1179 901 l 1,7,-1
 1179 643 l 1,8,-1
 464 643 l 1,9,-1
 464 267 l 1,10,-1
 1279 267 l 1,11,-1
 1279 0 l 1,12,-1
 162 0 l 1,13,-1
 162 1474 l 1,14,-1
 1243 1474 l 1,15,-1
 1243 1211 l 1,4,-1
EndSplineSet
Substitution2: "<17001,16003> Urdu lookup 85 subtable" Eacute
EndChar

StartChar: Ntilde
Encoding: 209 209 102
Width: 1473
GlyphClass: 2
Flags: W
LayerCount: 2
Fore
SplineSet
820 1805 m 2,0,1
 838 1799 838 1799 850.5 1795 c 128,-1,2
 863 1791 863 1791 872 1788.5 c 128,-1,3
 881 1786 881 1786 888 1785 c 128,-1,4
 895 1784 895 1784 904 1784 c 0,5,6
 927 1784 927 1784 943.5 1790.5 c 128,-1,7
 960 1797 960 1797 971 1808.5 c 128,-1,8
 982 1820 982 1820 988.5 1835.5 c 128,-1,9
 995 1851 995 1851 999 1869 c 1,10,-1
 1133 1869 l 1,11,12
 1124 1817 1124 1817 1107 1771.5 c 128,-1,13
 1090 1726 1090 1726 1062.5 1692.5 c 128,-1,14
 1035 1659 1035 1659 996.5 1640 c 128,-1,15
 958 1621 958 1621 905 1621 c 0,16,17
 893 1621 893 1621 875.5 1623.5 c 128,-1,18
 858 1626 858 1626 837.5 1630.5 c 128,-1,19
 817 1635 817 1635 795.5 1641 c 128,-1,20
 774 1647 774 1647 754 1654 c 2,21,-1
 673 1681 l 2,22,23
 640 1692 640 1692 608 1692 c 0,24,25
 570 1692 570 1692 547 1670.5 c 128,-1,26
 524 1649 524 1649 513 1607 c 1,27,-1
 382 1607 l 1,28,29
 396 1676 396 1676 417.5 1724 c 128,-1,30
 439 1772 439 1772 469 1802 c 128,-1,31
 499 1832 499 1832 538.5 1845.5 c 128,-1,32
 578 1859 578 1859 629 1859 c 0,33,34
 656 1859 656 1859 682 1853 c 128,-1,35
 708 1847 708 1847 726 1840 c 2,36,-1
 820 1805 l 2,0,1
148 1474 m 1,37,-1
 471 1474 l 1,38,-1
 1057 449 l 1,39,-1
 1057 1474 l 1,40,-1
 1345 1474 l 1,41,-1
 1345 0 l 1,42,-1
 1037 0 l 1,43,-1
 436 1043 l 1,44,-1
 436 0 l 1,45,-1
 148 0 l 1,46,-1
 148 1474 l 1,37,-1
EndSplineSet
Substitution2: "<17001,16003> Urdu lookup 85 subtable" Ntilde
EndChar

StartChar: Odieresis
Encoding: 214 214 103
Width: 1587
GlyphClass: 2
Flags: W
LayerCount: 2
Fore
SplineSet
873 1892 m 1,0,-1
 1136 1892 l 1,1,-1
 1136 1654 l 1,2,-1
 873 1654 l 1,3,-1
 873 1892 l 1,0,-1
473 1892 m 1,4,-1
 736 1892 l 1,5,-1
 736 1654 l 1,6,-1
 473 1654 l 1,7,-1
 473 1892 l 1,4,-1
1201 739 m 256,8,9
 1201 863 1201 863 1173 959 c 128,-1,10
 1145 1055 1145 1055 1093 1121 c 128,-1,11
 1041 1187 1041 1187 968 1221.5 c 128,-1,12
 895 1256 895 1256 805 1256 c 256,13,14
 715 1256 715 1256 641.5 1222 c 128,-1,15
 568 1188 568 1188 515.5 1122.5 c 128,-1,16
 463 1057 463 1057 434.5 960.5 c 128,-1,17
 406 864 406 864 406 739 c 0,18,19
 406 616 406 616 434.5 520 c 128,-1,20
 463 424 463 424 515.5 358 c 128,-1,21
 568 292 568 292 641.5 257 c 128,-1,22
 715 222 715 222 805 222 c 256,23,24
 895 222 895 222 968.5 256 c 128,-1,25
 1042 290 1042 290 1093.5 356 c 128,-1,26
 1145 422 1145 422 1173 518.5 c 128,-1,27
 1201 615 1201 615 1201 739 c 256,8,9
1288 131 m 1,28,29
 1122 -41 1122 -41 805 -41 c 0,30,31
 646 -41 646 -41 526.5 2.5 c 128,-1,32
 407 46 407 46 322 131 c 0,33,34
 216 237 216 237 157 390 c 128,-1,35
 98 543 98 543 98 739 c 0,36,37
 98 916 98 916 143.5 1060 c 128,-1,38
 189 1204 189 1204 278.5 1306 c 128,-1,39
 368 1408 368 1408 500 1463.5 c 128,-1,40
 632 1519 632 1519 805 1519 c 256,41,42
 978 1519 978 1519 1110 1463.5 c 128,-1,43
 1242 1408 1242 1408 1331 1306 c 128,-1,44
 1420 1204 1420 1204 1465.5 1060 c 128,-1,45
 1511 916 1511 916 1511 739 c 0,46,47
 1511 342 1511 342 1288 131 c 1,28,29
EndSplineSet
Substitution2: "<17001,16003> Urdu lookup 85 subtable" Odieresis
EndChar

StartChar: Udieresis
Encoding: 220 220 104
Width: 1473
GlyphClass: 2
Flags: W
LayerCount: 2
Fore
SplineSet
814 1847 m 1,0,-1
 1077 1847 l 1,1,-1
 1077 1609 l 1,2,-1
 814 1609 l 1,3,-1
 814 1847 l 1,0,-1
414 1847 m 1,4,-1
 677 1847 l 1,5,-1
 677 1609 l 1,6,-1
 414 1609 l 1,7,-1
 414 1847 l 1,4,-1
153 1474 m 1,8,-1
 467 1474 l 1,9,-1
 467 568 l 2,10,11
 467 473 467 473 482 407.5 c 128,-1,12
 497 342 497 342 530.5 301 c 128,-1,13
 564 260 564 260 617 242 c 128,-1,14
 670 224 670 224 746 224 c 256,15,16
 822 224 822 224 875 242 c 128,-1,17
 928 260 928 260 961 301 c 128,-1,18
 994 342 994 342 1009 407.5 c 128,-1,19
 1024 473 1024 473 1024 568 c 2,20,-1
 1024 1474 l 1,21,-1
 1338 1474 l 1,22,-1
 1338 568 l 2,23,24
 1338 408 1338 408 1301.5 293 c 128,-1,25
 1265 178 1265 178 1191.5 104.5 c 128,-1,26
 1118 31 1118 31 1006.5 -3.5 c 128,-1,27
 895 -38 895 -38 746 -38 c 0,28,29
 596 -38 596 -38 485 -3.5 c 128,-1,30
 374 31 374 31 300 104.5 c 128,-1,31
 226 178 226 178 189.5 293 c 128,-1,32
 153 408 153 408 153 568 c 2,33,-1
 153 1474 l 1,8,-1
EndSplineSet
Substitution2: "<17001,16003> Urdu lookup 85 subtable" Udieresis
EndChar

StartChar: aacute
Encoding: 225 225 105
Width: 1133
GlyphClass: 2
Flags: W
LayerCount: 2
Fore
SplineSet
917 1536 m 1,0,-1
 611 1235 l 1,1,-1
 402 1235 l 1,2,-1
 595 1536 l 1,3,-1
 917 1536 l 1,0,-1
730 528 m 1,4,5
 713 517 713 517 696 509.5 c 128,-1,6
 679 502 679 502 657.5 496 c 128,-1,7
 636 490 636 490 607 484 c 128,-1,8
 578 478 578 478 537 470 c 0,9,10
 447 454 447 454 408 431 c 1,11,-1
 409 431 l 1,12,13
 343 392 343 392 343 312 c 0,14,15
 343 276 343 276 354 250 c 128,-1,16
 365 224 365 224 383.5 207.5 c 128,-1,17
 402 191 402 191 427.5 183 c 128,-1,18
 453 175 453 175 481 175 c 0,19,20
 525 175 525 175 569 187 c 128,-1,21
 613 199 613 199 648.5 228 c 128,-1,22
 684 257 684 257 706.5 305 c 128,-1,23
 729 353 729 353 730 424 c 1,24,-1
 730 528 l 1,4,5
558 664 m 2,25,26
 608 670 608 670 641 679 c 128,-1,27
 674 688 674 688 694 700.5 c 128,-1,28
 714 713 714 713 722.5 730 c 128,-1,29
 731 747 731 747 731 769 c 0,30,31
 731 835 731 835 685.5 860.5 c 128,-1,32
 640 886 640 886 549 886 c 0,33,34
 461 886 461 886 420.5 848.5 c 128,-1,35
 380 811 380 811 367 736 c 1,36,-1
 91 736 l 1,37,38
 103 925 103 925 218 1020.5 c 128,-1,39
 333 1116 333 1116 559 1116 c 0,40,41
 647 1116 647 1116 727.5 1097.5 c 128,-1,42
 808 1079 808 1079 877 1046 c 1,43,44
 943 1009 943 1009 979.5 941.5 c 128,-1,45
 1016 874 1016 874 1016 777 c 2,46,-1
 1016 278 l 1,47,-1
 1016 265 l 2,48,49
 1016 244 1016 244 1017 221.5 c 128,-1,50
 1018 199 1018 199 1018 173 c 2,51,-1
 1018 152 l 1,52,53
 1020 125 1020 125 1023.5 107 c 128,-1,54
 1027 89 1027 89 1034 77.5 c 128,-1,55
 1041 66 1041 66 1051.5 58.5 c 128,-1,56
 1062 51 1062 51 1077 44 c 1,57,-1
 1077 0 l 1,58,-1
 766 0 l 1,59,60
 753 32 753 32 748 60.5 c 128,-1,61
 743 89 743 89 740 126 c 1,62,63
 711 95 711 95 677.5 68.5 c 128,-1,64
 644 42 644 42 606 19 c 0,65,66
 514 -34 514 -34 397 -34 c 0,67,68
 322 -34 322 -34 259.5 -12.5 c 128,-1,69
 197 9 197 9 152 50.5 c 128,-1,70
 107 92 107 92 81.5 152.5 c 128,-1,71
 56 213 56 213 56 291 c 0,72,73
 56 370 56 370 77.5 431 c 128,-1,74
 99 492 99 492 147 536.5 c 128,-1,75
 195 581 195 581 272.5 609.5 c 128,-1,76
 350 638 350 638 461 652 c 2,77,-1
 558 664 l 2,25,26
EndSplineSet
Substitution2: "<17001,16003> Urdu lookup 85 subtable" aacute
EndChar

StartChar: agrave
Encoding: 224 224 106
Width: 1133
GlyphClass: 2
Flags: W
LayerCount: 2
Fore
SplineSet
744 1235 m 1,0,-1
 535 1235 l 1,1,-1
 230 1536 l 1,2,-1
 551 1536 l 1,3,-1
 744 1235 l 1,0,-1
730 528 m 1,4,5
 713 517 713 517 696 509.5 c 128,-1,6
 679 502 679 502 657.5 496 c 128,-1,7
 636 490 636 490 607 484 c 128,-1,8
 578 478 578 478 537 470 c 0,9,10
 447 454 447 454 408 431 c 1,11,-1
 409 431 l 1,12,13
 343 392 343 392 343 312 c 0,14,15
 343 276 343 276 354 250 c 128,-1,16
 365 224 365 224 383.5 207.5 c 128,-1,17
 402 191 402 191 427.5 183 c 128,-1,18
 453 175 453 175 481 175 c 0,19,20
 525 175 525 175 569 187 c 128,-1,21
 613 199 613 199 648.5 228 c 128,-1,22
 684 257 684 257 706.5 305 c 128,-1,23
 729 353 729 353 730 424 c 1,24,-1
 730 528 l 1,4,5
558 664 m 2,25,26
 608 670 608 670 641 679 c 128,-1,27
 674 688 674 688 694 700.5 c 128,-1,28
 714 713 714 713 722.5 730 c 128,-1,29
 731 747 731 747 731 769 c 0,30,31
 731 835 731 835 685.5 860.5 c 128,-1,32
 640 886 640 886 549 886 c 0,33,34
 461 886 461 886 420.5 848.5 c 128,-1,35
 380 811 380 811 367 736 c 1,36,-1
 91 736 l 1,37,38
 103 925 103 925 218 1020.5 c 128,-1,39
 333 1116 333 1116 559 1116 c 0,40,41
 647 1116 647 1116 727.5 1097.5 c 128,-1,42
 808 1079 808 1079 877 1046 c 1,43,44
 943 1009 943 1009 979.5 941.5 c 128,-1,45
 1016 874 1016 874 1016 777 c 2,46,-1
 1016 278 l 1,47,-1
 1016 265 l 2,48,49
 1016 244 1016 244 1017 221.5 c 128,-1,50
 1018 199 1018 199 1018 173 c 2,51,-1
 1018 152 l 1,52,53
 1020 125 1020 125 1023.5 107 c 128,-1,54
 1027 89 1027 89 1034 77.5 c 128,-1,55
 1041 66 1041 66 1051.5 58.5 c 128,-1,56
 1062 51 1062 51 1077 44 c 1,57,-1
 1077 0 l 1,58,-1
 766 0 l 1,59,60
 753 32 753 32 748 60.5 c 128,-1,61
 743 89 743 89 740 126 c 1,62,63
 711 95 711 95 677.5 68.5 c 128,-1,64
 644 42 644 42 606 19 c 0,65,66
 514 -34 514 -34 397 -34 c 0,67,68
 322 -34 322 -34 259.5 -12.5 c 128,-1,69
 197 9 197 9 152 50.5 c 128,-1,70
 107 92 107 92 81.5 152.5 c 128,-1,71
 56 213 56 213 56 291 c 0,72,73
 56 370 56 370 77.5 431 c 128,-1,74
 99 492 99 492 147 536.5 c 128,-1,75
 195 581 195 581 272.5 609.5 c 128,-1,76
 350 638 350 638 461 652 c 2,77,-1
 558 664 l 2,25,26
EndSplineSet
Substitution2: "<17001,16003> Urdu lookup 85 subtable" agrave
EndChar

StartChar: acircumflex
Encoding: 226 226 107
Width: 1133
GlyphClass: 2
Flags: W
LayerCount: 2
Fore
SplineSet
730 528 m 1,0,1
 713 517 713 517 696 509.5 c 128,-1,2
 679 502 679 502 657.5 496 c 128,-1,3
 636 490 636 490 607 484 c 128,-1,4
 578 478 578 478 537 470 c 0,5,6
 447 454 447 454 408 431 c 1,7,-1
 409 431 l 1,8,9
 343 392 343 392 343 312 c 0,10,11
 343 276 343 276 354 250 c 128,-1,12
 365 224 365 224 383.5 207.5 c 128,-1,13
 402 191 402 191 427.5 183 c 128,-1,14
 453 175 453 175 481 175 c 0,15,16
 525 175 525 175 569 187 c 128,-1,17
 613 199 613 199 648.5 228 c 128,-1,18
 684 257 684 257 706.5 305 c 128,-1,19
 729 353 729 353 730 424 c 1,20,-1
 730 528 l 1,0,1
937 1235 m 1,21,-1
 702 1235 l 1,22,-1
 573 1402 l 1,23,24
 541 1360 541 1360 508 1318.5 c 128,-1,25
 475 1277 475 1277 443 1235 c 1,26,-1
 208 1235 l 1,27,-1
 444 1536 l 1,28,-1
 702 1536 l 1,29,-1
 937 1235 l 1,21,-1
558 664 m 2,30,31
 608 670 608 670 641 679 c 128,-1,32
 674 688 674 688 694 700.5 c 128,-1,33
 714 713 714 713 722.5 730 c 128,-1,34
 731 747 731 747 731 769 c 0,35,36
 731 835 731 835 685.5 860.5 c 128,-1,37
 640 886 640 886 549 886 c 0,38,39
 461 886 461 886 420.5 848.5 c 128,-1,40
 380 811 380 811 367 736 c 1,41,-1
 91 736 l 1,42,43
 103 925 103 925 218 1020.5 c 128,-1,44
 333 1116 333 1116 559 1116 c 0,45,46
 647 1116 647 1116 727.5 1097.5 c 128,-1,47
 808 1079 808 1079 877 1046 c 1,48,49
 943 1009 943 1009 979.5 941.5 c 128,-1,50
 1016 874 1016 874 1016 777 c 2,51,-1
 1016 278 l 1,52,-1
 1016 265 l 2,53,54
 1016 244 1016 244 1017 221.5 c 128,-1,55
 1018 199 1018 199 1018 173 c 2,56,-1
 1018 152 l 1,57,58
 1020 125 1020 125 1023.5 107 c 128,-1,59
 1027 89 1027 89 1034 77.5 c 128,-1,60
 1041 66 1041 66 1051.5 58.5 c 128,-1,61
 1062 51 1062 51 1077 44 c 1,62,-1
 1077 0 l 1,63,-1
 766 0 l 1,64,65
 753 32 753 32 748 60.5 c 128,-1,66
 743 89 743 89 740 126 c 1,67,68
 711 95 711 95 677.5 68.5 c 128,-1,69
 644 42 644 42 606 19 c 0,70,71
 514 -34 514 -34 397 -34 c 0,72,73
 322 -34 322 -34 259.5 -12.5 c 128,-1,74
 197 9 197 9 152 50.5 c 128,-1,75
 107 92 107 92 81.5 152.5 c 128,-1,76
 56 213 56 213 56 291 c 0,77,78
 56 370 56 370 77.5 431 c 128,-1,79
 99 492 99 492 147 536.5 c 128,-1,80
 195 581 195 581 272.5 609.5 c 128,-1,81
 350 638 350 638 461 652 c 2,82,-1
 558 664 l 2,30,31
EndSplineSet
Substitution2: "<17001,16003> Urdu lookup 85 subtable" acircumflex
EndChar

StartChar: adieresis
Encoding: 228 228 108
Width: 1133
GlyphClass: 2
Flags: W
LayerCount: 2
Fore
SplineSet
641 1493 m 1,0,-1
 904 1493 l 1,1,-1
 904 1254 l 1,2,-1
 641 1254 l 1,3,-1
 641 1493 l 1,0,-1
241 1493 m 1,4,-1
 504 1493 l 1,5,-1
 504 1254 l 1,6,-1
 241 1254 l 1,7,-1
 241 1493 l 1,4,-1
730 528 m 1,8,9
 713 517 713 517 696 509.5 c 128,-1,10
 679 502 679 502 657.5 496 c 128,-1,11
 636 490 636 490 607 484 c 128,-1,12
 578 478 578 478 537 470 c 0,13,14
 447 454 447 454 408 431 c 1,15,-1
 409 431 l 1,16,17
 343 392 343 392 343 312 c 0,18,19
 343 276 343 276 354 250 c 128,-1,20
 365 224 365 224 383.5 207.5 c 128,-1,21
 402 191 402 191 427.5 183 c 128,-1,22
 453 175 453 175 481 175 c 0,23,24
 525 175 525 175 569 187 c 128,-1,25
 613 199 613 199 648.5 228 c 128,-1,26
 684 257 684 257 706.5 305 c 128,-1,27
 729 353 729 353 730 424 c 1,28,-1
 730 528 l 1,8,9
558 664 m 2,29,30
 608 670 608 670 641 679 c 128,-1,31
 674 688 674 688 694 700.5 c 128,-1,32
 714 713 714 713 722.5 730 c 128,-1,33
 731 747 731 747 731 769 c 0,34,35
 731 835 731 835 685.5 860.5 c 128,-1,36
 640 886 640 886 549 886 c 0,37,38
 461 886 461 886 420.5 848.5 c 128,-1,39
 380 811 380 811 367 736 c 1,40,-1
 91 736 l 1,41,42
 103 925 103 925 218 1020.5 c 128,-1,43
 333 1116 333 1116 559 1116 c 0,44,45
 647 1116 647 1116 727.5 1097.5 c 128,-1,46
 808 1079 808 1079 877 1046 c 1,47,48
 943 1009 943 1009 979.5 941.5 c 128,-1,49
 1016 874 1016 874 1016 777 c 2,50,-1
 1016 278 l 1,51,-1
 1016 265 l 2,52,53
 1016 244 1016 244 1017 221.5 c 128,-1,54
 1018 199 1018 199 1018 173 c 2,55,-1
 1018 152 l 1,56,57
 1020 125 1020 125 1023.5 107 c 128,-1,58
 1027 89 1027 89 1034 77.5 c 128,-1,59
 1041 66 1041 66 1051.5 58.5 c 128,-1,60
 1062 51 1062 51 1077 44 c 1,61,-1
 1077 0 l 1,62,-1
 766 0 l 1,63,64
 753 32 753 32 748 60.5 c 128,-1,65
 743 89 743 89 740 126 c 1,66,67
 711 95 711 95 677.5 68.5 c 128,-1,68
 644 42 644 42 606 19 c 0,69,70
 514 -34 514 -34 397 -34 c 0,71,72
 322 -34 322 -34 259.5 -12.5 c 128,-1,73
 197 9 197 9 152 50.5 c 128,-1,74
 107 92 107 92 81.5 152.5 c 128,-1,75
 56 213 56 213 56 291 c 0,76,77
 56 370 56 370 77.5 431 c 128,-1,78
 99 492 99 492 147 536.5 c 128,-1,79
 195 581 195 581 272.5 609.5 c 128,-1,80
 350 638 350 638 461 652 c 2,81,-1
 558 664 l 2,29,30
EndSplineSet
Substitution2: "<17001,16003> Urdu lookup 85 subtable" adieresis
EndChar

StartChar: atilde
Encoding: 227 227 109
Width: 1133
GlyphClass: 2
Flags: W
LayerCount: 2
Fore
SplineSet
730 528 m 1,0,1
 713 517 713 517 696 509.5 c 128,-1,2
 679 502 679 502 657.5 496 c 128,-1,3
 636 490 636 490 607 484 c 128,-1,4
 578 478 578 478 537 470 c 0,5,6
 447 454 447 454 408 431 c 1,7,-1
 409 431 l 1,8,9
 343 392 343 392 343 312 c 0,10,11
 343 276 343 276 354 250 c 128,-1,12
 365 224 365 224 383.5 207.5 c 128,-1,13
 402 191 402 191 427.5 183 c 128,-1,14
 453 175 453 175 481 175 c 0,15,16
 525 175 525 175 569 187 c 128,-1,17
 613 199 613 199 648.5 228 c 128,-1,18
 684 257 684 257 706.5 305 c 128,-1,19
 729 353 729 353 730 424 c 1,20,-1
 730 528 l 1,0,1
635 1448 m 2,21,22
 652 1442 652 1442 664 1437.5 c 128,-1,23
 676 1433 676 1433 685.5 1430.5 c 128,-1,24
 695 1428 695 1428 702.5 1427 c 128,-1,25
 710 1426 710 1426 719 1426 c 0,26,27
 742 1426 742 1426 758.5 1433 c 128,-1,28
 775 1440 775 1440 786 1451.5 c 128,-1,29
 797 1463 797 1463 803.5 1478.5 c 128,-1,30
 810 1494 810 1494 814 1512 c 1,31,-1
 948 1512 l 1,32,33
 939 1460 939 1460 922 1414.5 c 128,-1,34
 905 1369 905 1369 877.5 1335 c 128,-1,35
 850 1301 850 1301 811.5 1282 c 128,-1,36
 773 1263 773 1263 720 1263 c 0,37,38
 708 1263 708 1263 690.5 1265.5 c 128,-1,39
 673 1268 673 1268 652.5 1272.5 c 128,-1,40
 632 1277 632 1277 610.5 1283 c 128,-1,41
 589 1289 589 1289 569 1296 c 2,42,-1
 488 1323 l 2,43,44
 455 1334 455 1334 423 1334 c 0,45,46
 385 1334 385 1334 362 1312.5 c 128,-1,47
 339 1291 339 1291 328 1249 c 1,48,-1
 197 1249 l 1,49,50
 211 1319 211 1319 232.5 1367 c 128,-1,51
 254 1415 254 1415 284 1445 c 128,-1,52
 314 1475 314 1475 354 1488.5 c 128,-1,53
 394 1502 394 1502 444 1502 c 0,54,55
 471 1502 471 1502 497 1496 c 128,-1,56
 523 1490 523 1490 541 1483 c 2,57,-1
 635 1448 l 2,21,22
558 664 m 2,58,59
 608 670 608 670 641 679 c 128,-1,60
 674 688 674 688 694 700.5 c 128,-1,61
 714 713 714 713 722.5 730 c 128,-1,62
 731 747 731 747 731 769 c 0,63,64
 731 835 731 835 685.5 860.5 c 128,-1,65
 640 886 640 886 549 886 c 0,66,67
 461 886 461 886 420.5 848.5 c 128,-1,68
 380 811 380 811 367 736 c 1,69,-1
 91 736 l 1,70,71
 103 925 103 925 218 1020.5 c 128,-1,72
 333 1116 333 1116 559 1116 c 0,73,74
 647 1116 647 1116 727.5 1097.5 c 128,-1,75
 808 1079 808 1079 877 1046 c 1,76,77
 943 1009 943 1009 979.5 941.5 c 128,-1,78
 1016 874 1016 874 1016 777 c 2,79,-1
 1016 278 l 1,80,-1
 1016 265 l 2,81,82
 1016 244 1016 244 1017 221.5 c 128,-1,83
 1018 199 1018 199 1018 173 c 2,84,-1
 1018 152 l 1,85,86
 1020 125 1020 125 1023.5 107 c 128,-1,87
 1027 89 1027 89 1034 77.5 c 128,-1,88
 1041 66 1041 66 1051.5 58.5 c 128,-1,89
 1062 51 1062 51 1077 44 c 1,90,-1
 1077 0 l 1,91,-1
 766 0 l 1,92,93
 753 32 753 32 748 60.5 c 128,-1,94
 743 89 743 89 740 126 c 1,95,96
 711 95 711 95 677.5 68.5 c 128,-1,97
 644 42 644 42 606 19 c 0,98,99
 514 -34 514 -34 397 -34 c 0,100,101
 322 -34 322 -34 259.5 -12.5 c 128,-1,102
 197 9 197 9 152 50.5 c 128,-1,103
 107 92 107 92 81.5 152.5 c 128,-1,104
 56 213 56 213 56 291 c 0,105,106
 56 370 56 370 77.5 431 c 128,-1,107
 99 492 99 492 147 536.5 c 128,-1,108
 195 581 195 581 272.5 609.5 c 128,-1,109
 350 638 350 638 461 652 c 2,110,-1
 558 664 l 2,58,59
EndSplineSet
Substitution2: "<17001,16003> Urdu lookup 85 subtable" atilde
EndChar

StartChar: aring
Encoding: 229 229 110
Width: 1133
GlyphClass: 2
Flags: W
LayerCount: 2
Fore
SplineSet
573 1325 m 256,0,1
 597 1325 597 1325 618.5 1334.5 c 128,-1,2
 640 1344 640 1344 655.5 1360 c 128,-1,3
 671 1376 671 1376 680.5 1397 c 128,-1,4
 690 1418 690 1418 690 1442 c 256,5,6
 690 1466 690 1466 680.5 1487 c 128,-1,7
 671 1508 671 1508 655 1524.5 c 128,-1,8
 639 1541 639 1541 618 1550.5 c 128,-1,9
 597 1560 597 1560 573 1560 c 256,10,11
 549 1560 549 1560 528 1550.5 c 128,-1,12
 507 1541 507 1541 490.5 1525 c 128,-1,13
 474 1509 474 1509 464.5 1487.5 c 128,-1,14
 455 1466 455 1466 455 1442 c 256,15,16
 455 1418 455 1418 464.5 1396.5 c 128,-1,17
 474 1375 474 1375 490 1359.5 c 128,-1,18
 506 1344 506 1344 527.5 1334.5 c 128,-1,19
 549 1325 549 1325 573 1325 c 256,0,1
730 528 m 1,20,21
 713 517 713 517 696 509.5 c 128,-1,22
 679 502 679 502 657.5 496 c 128,-1,23
 636 490 636 490 607 484 c 128,-1,24
 578 478 578 478 537 470 c 0,25,26
 447 454 447 454 408 431 c 1,27,-1
 409 431 l 1,28,29
 343 392 343 392 343 312 c 0,30,31
 343 276 343 276 354 250 c 128,-1,32
 365 224 365 224 383.5 207.5 c 128,-1,33
 402 191 402 191 427.5 183 c 128,-1,34
 453 175 453 175 481 175 c 0,35,36
 525 175 525 175 569 187 c 128,-1,37
 613 199 613 199 648.5 228 c 128,-1,38
 684 257 684 257 706.5 305 c 128,-1,39
 729 353 729 353 730 424 c 1,40,-1
 730 528 l 1,20,21
573 1661 m 256,41,42
 618 1661 618 1661 658 1644 c 128,-1,43
 698 1627 698 1627 728 1597 c 128,-1,44
 758 1567 758 1567 775 1527 c 128,-1,45
 792 1487 792 1487 792 1442 c 256,46,47
 792 1397 792 1397 775 1357 c 128,-1,48
 758 1317 758 1317 728 1287.5 c 128,-1,49
 698 1258 698 1258 658 1240.5 c 128,-1,50
 618 1223 618 1223 573 1223 c 256,51,52
 528 1223 528 1223 488 1240.5 c 128,-1,53
 448 1258 448 1258 418.5 1287.5 c 128,-1,54
 389 1317 389 1317 371.5 1357 c 128,-1,55
 354 1397 354 1397 354 1442 c 256,56,57
 354 1487 354 1487 371.5 1527 c 128,-1,58
 389 1567 389 1567 418.5 1597 c 128,-1,59
 448 1627 448 1627 488 1644 c 128,-1,60
 528 1661 528 1661 573 1661 c 256,41,42
558 664 m 2,61,62
 608 670 608 670 641 679 c 128,-1,63
 674 688 674 688 694 700.5 c 128,-1,64
 714 713 714 713 722.5 730 c 128,-1,65
 731 747 731 747 731 769 c 0,66,67
 731 835 731 835 685.5 860.5 c 128,-1,68
 640 886 640 886 549 886 c 0,69,70
 461 886 461 886 420.5 848.5 c 128,-1,71
 380 811 380 811 367 736 c 1,72,-1
 91 736 l 1,73,74
 103 925 103 925 218 1020.5 c 128,-1,75
 333 1116 333 1116 559 1116 c 0,76,77
 647 1116 647 1116 727.5 1097.5 c 128,-1,78
 808 1079 808 1079 877 1046 c 1,79,80
 943 1009 943 1009 979.5 941.5 c 128,-1,81
 1016 874 1016 874 1016 777 c 2,82,-1
 1016 278 l 1,83,-1
 1016 265 l 2,84,85
 1016 244 1016 244 1017 221.5 c 128,-1,86
 1018 199 1018 199 1018 173 c 2,87,-1
 1018 152 l 1,88,89
 1020 125 1020 125 1023.5 107 c 128,-1,90
 1027 89 1027 89 1034 77.5 c 128,-1,91
 1041 66 1041 66 1051.5 58.5 c 128,-1,92
 1062 51 1062 51 1077 44 c 1,93,-1
 1077 0 l 1,94,-1
 766 0 l 1,95,96
 753 32 753 32 748 60.5 c 128,-1,97
 743 89 743 89 740 126 c 1,98,99
 711 95 711 95 677.5 68.5 c 128,-1,100
 644 42 644 42 606 19 c 0,101,102
 514 -34 514 -34 397 -34 c 0,103,104
 322 -34 322 -34 259.5 -12.5 c 128,-1,105
 197 9 197 9 152 50.5 c 128,-1,106
 107 92 107 92 81.5 152.5 c 128,-1,107
 56 213 56 213 56 291 c 0,108,109
 56 370 56 370 77.5 431 c 128,-1,110
 99 492 99 492 147 536.5 c 128,-1,111
 195 581 195 581 272.5 609.5 c 128,-1,112
 350 638 350 638 461 652 c 2,113,-1
 558 664 l 2,61,62
EndSplineSet
Substitution2: "<17001,16003> Urdu lookup 85 subtable" aring
EndChar

StartChar: ccedilla
Encoding: 231 231 111
Width: 1133
GlyphClass: 2
Flags: W
LayerCount: 2
Fore
SplineSet
780 698 m 1,0,1
 776 737 776 737 762 769 c 128,-1,2
 748 801 748 801 724 824.5 c 128,-1,3
 700 848 700 848 666.5 861 c 128,-1,4
 633 874 633 874 591 874 c 0,5,6
 479 874 479 874 423 790 c 128,-1,7
 367 706 367 706 367 530 c 0,8,9
 367 362 367 362 422 282.5 c 128,-1,10
 477 203 477 203 586 203 c 0,11,12
 636 203 636 203 670.5 217.5 c 128,-1,13
 705 232 705 232 727.5 258 c 128,-1,14
 750 284 750 284 762 319.5 c 128,-1,15
 774 355 774 355 778 396 c 1,16,-1
 1070 396 l 1,17,18
 1063 306 1063 306 1023.5 227.5 c 128,-1,19
 984 149 984 149 922 90.5 c 128,-1,20
 860 32 860 32 780 -2 c 128,-1,21
 700 -36 700 -36 611 -38 c 1,22,23
 596 -61 596 -61 580.5 -83 c 128,-1,24
 565 -105 565 -105 550 -128 c 1,25,26
 577 -119 577 -119 593.5 -118 c 128,-1,27
 610 -117 610 -117 624 -117 c 0,28,29
 706 -117 706 -117 754 -156.5 c 128,-1,30
 802 -196 802 -196 802 -271 c 0,31,32
 802 -317 802 -317 781.5 -354 c 128,-1,33
 761 -391 761 -391 725 -416.5 c 128,-1,34
 689 -442 689 -442 640 -456 c 128,-1,35
 591 -470 591 -470 533 -470 c 0,36,37
 512 -470 512 -470 491.5 -468 c 128,-1,38
 471 -466 471 -466 446 -460 c 128,-1,39
 421 -454 421 -454 389.5 -443.5 c 128,-1,40
 358 -433 358 -433 316 -417 c 1,41,-1
 354 -330 l 1,42,43
 394 -342 394 -342 418 -348.5 c 128,-1,44
 442 -355 442 -355 457.5 -358.5 c 128,-1,45
 473 -362 473 -362 484.5 -362.5 c 128,-1,46
 496 -363 496 -363 511 -363 c 0,47,48
 541 -363 541 -363 562 -356 c 128,-1,49
 583 -349 583 -349 596.5 -338 c 128,-1,50
 610 -327 610 -327 616 -313.5 c 128,-1,51
 622 -300 622 -300 622 -286 c 0,52,53
 622 -265 622 -265 614 -251 c 128,-1,54
 606 -237 606 -237 593.5 -228 c 128,-1,55
 581 -219 581 -219 565 -215 c 128,-1,56
 549 -211 549 -211 532 -211 c 0,57,58
 512 -211 512 -211 492 -215.5 c 128,-1,59
 472 -220 472 -220 447 -228 c 1,60,-1
 403 -187 l 1,61,-1
 502 -38 l 1,62,63
 409 -38 409 -38 329.5 3.5 c 128,-1,64
 250 45 250 45 192 119.5 c 128,-1,65
 134 194 134 194 101 297 c 128,-1,66
 68 400 68 400 68 523 c 0,67,68
 68 663 68 663 103 773 c 128,-1,69
 138 883 138 883 204 959.5 c 128,-1,70
 270 1036 270 1036 366 1076 c 128,-1,71
 462 1116 462 1116 583 1116 c 0,72,73
 688 1116 688 1116 770.5 1093 c 128,-1,74
 853 1070 853 1070 919 1025 c 256,75,76
 985 980 985 980 1023 898 c 128,-1,77
 1061 816 1061 816 1073 698 c 1,78,-1
 780 698 l 1,0,1
EndSplineSet
Substitution2: "<17001,16003> Urdu lookup 85 subtable" ccedilla
EndChar

StartChar: eacute
Encoding: 233 233 112
Width: 1133
GlyphClass: 2
Flags: W
LayerCount: 2
Fore
SplineSet
780 655 m 1,0,1
 774 707 774 707 755.5 749 c 128,-1,2
 737 791 737 791 708 821 c 128,-1,3
 679 851 679 851 641.5 867 c 128,-1,4
 604 883 604 883 560 883 c 0,5,6
 512 883 512 883 474.5 866 c 128,-1,7
 437 849 437 849 409.5 819 c 128,-1,8
 382 789 382 789 364.5 747 c 128,-1,9
 347 705 347 705 339 655 c 1,10,-1
 780 655 l 1,0,1
923 1536 m 1,11,-1
 618 1235 l 1,12,-1
 409 1235 l 1,13,-1
 602 1536 l 1,14,-1
 923 1536 l 1,11,-1
985 908 m 1,15,16
 1048 814 1048 814 1068 682 c 0,17,18
 1073 649 1073 649 1075 603.5 c 128,-1,19
 1077 558 1077 558 1077 500 c 2,20,-1
 1077 465 l 1,21,-1
 332 465 l 1,22,23
 338 335 338 335 401 266 c 128,-1,24
 464 197 464 197 576 197 c 0,25,26
 712 197 712 197 771 322 c 1,27,-1
 1063 322 l 1,28,29
 1058 273 1058 273 1031.5 222.5 c 128,-1,30
 1005 172 1005 172 962 123 c 0,31,32
 893 45 893 45 794.5 4.5 c 128,-1,33
 696 -36 696 -36 570 -36 c 0,34,35
 363 -36 363 -36 202 98 c 1,36,37
 44 232 44 232 44 534 c 0,38,39
 44 677 44 677 81.5 786 c 128,-1,40
 119 895 119 895 187.5 969 c 128,-1,41
 256 1043 256 1043 351 1081 c 128,-1,42
 446 1119 446 1119 560 1119 c 0,43,44
 697 1119 697 1119 805.5 1069 c 128,-1,45
 914 1019 914 1019 985 908 c 1,15,16
EndSplineSet
Substitution2: "<17001,16003> Urdu lookup 85 subtable" eacute
EndChar

StartChar: egrave
Encoding: 232 232 113
Width: 1133
GlyphClass: 2
Flags: W
LayerCount: 2
Fore
SplineSet
780 655 m 1,0,1
 774 707 774 707 755.5 749 c 128,-1,2
 737 791 737 791 708 821 c 128,-1,3
 679 851 679 851 641.5 867 c 128,-1,4
 604 883 604 883 560 883 c 0,5,6
 512 883 512 883 474.5 866 c 128,-1,7
 437 849 437 849 409.5 819 c 128,-1,8
 382 789 382 789 364.5 747 c 128,-1,9
 347 705 347 705 339 655 c 1,10,-1
 780 655 l 1,0,1
751 1235 m 1,11,-1
 542 1235 l 1,12,-1
 237 1536 l 1,13,-1
 558 1536 l 1,14,-1
 751 1235 l 1,11,-1
985 908 m 1,15,16
 1048 814 1048 814 1068 682 c 0,17,18
 1073 649 1073 649 1075 603.5 c 128,-1,19
 1077 558 1077 558 1077 500 c 2,20,-1
 1077 465 l 1,21,-1
 332 465 l 1,22,23
 338 335 338 335 401 266 c 128,-1,24
 464 197 464 197 576 197 c 0,25,26
 712 197 712 197 771 322 c 1,27,-1
 1063 322 l 1,28,29
 1058 273 1058 273 1031.5 222.5 c 128,-1,30
 1005 172 1005 172 962 123 c 0,31,32
 893 45 893 45 794.5 4.5 c 128,-1,33
 696 -36 696 -36 570 -36 c 0,34,35
 363 -36 363 -36 202 98 c 1,36,37
 44 232 44 232 44 534 c 0,38,39
 44 677 44 677 81.5 786 c 128,-1,40
 119 895 119 895 187.5 969 c 128,-1,41
 256 1043 256 1043 351 1081 c 128,-1,42
 446 1119 446 1119 560 1119 c 0,43,44
 697 1119 697 1119 805.5 1069 c 128,-1,45
 914 1019 914 1019 985 908 c 1,15,16
EndSplineSet
Substitution2: "<17001,16003> Urdu lookup 85 subtable" egrave
EndChar

StartChar: ecircumflex
Encoding: 234 234 114
Width: 1133
GlyphClass: 2
Flags: W
LayerCount: 2
Fore
SplineSet
780 655 m 1,0,1
 774 707 774 707 755.5 749 c 128,-1,2
 737 791 737 791 708 821 c 128,-1,3
 679 851 679 851 641.5 867 c 128,-1,4
 604 883 604 883 560 883 c 0,5,6
 512 883 512 883 474.5 866 c 128,-1,7
 437 849 437 849 409.5 819 c 128,-1,8
 382 789 382 789 364.5 747 c 128,-1,9
 347 705 347 705 339 655 c 1,10,-1
 780 655 l 1,0,1
944 1235 m 1,11,-1
 709 1235 l 1,12,-1
 580 1402 l 1,13,14
 548 1360 548 1360 515 1318.5 c 128,-1,15
 482 1277 482 1277 450 1235 c 1,16,-1
 214 1235 l 1,17,-1
 451 1536 l 1,18,-1
 709 1536 l 1,19,-1
 944 1235 l 1,11,-1
985 908 m 1,20,21
 1048 814 1048 814 1068 682 c 0,22,23
 1073 649 1073 649 1075 603.5 c 128,-1,24
 1077 558 1077 558 1077 500 c 2,25,-1
 1077 465 l 1,26,-1
 332 465 l 1,27,28
 338 335 338 335 401 266 c 128,-1,29
 464 197 464 197 576 197 c 0,30,31
 712 197 712 197 771 322 c 1,32,-1
 1063 322 l 1,33,34
 1058 273 1058 273 1031.5 222.5 c 128,-1,35
 1005 172 1005 172 962 123 c 0,36,37
 893 45 893 45 794.5 4.5 c 128,-1,38
 696 -36 696 -36 570 -36 c 0,39,40
 363 -36 363 -36 202 98 c 1,41,42
 44 232 44 232 44 534 c 0,43,44
 44 677 44 677 81.5 786 c 128,-1,45
 119 895 119 895 187.5 969 c 128,-1,46
 256 1043 256 1043 351 1081 c 128,-1,47
 446 1119 446 1119 560 1119 c 0,48,49
 697 1119 697 1119 805.5 1069 c 128,-1,50
 914 1019 914 1019 985 908 c 1,20,21
EndSplineSet
Substitution2: "<17001,16003> Urdu lookup 85 subtable" ecircumflex
EndChar

StartChar: edieresis
Encoding: 235 235 115
Width: 1133
GlyphClass: 2
Flags: W
LayerCount: 2
Fore
SplineSet
648 1493 m 1,0,-1
 911 1493 l 1,1,-1
 911 1254 l 1,2,-1
 648 1254 l 1,3,-1
 648 1493 l 1,0,-1
248 1493 m 1,4,-1
 511 1493 l 1,5,-1
 511 1254 l 1,6,-1
 248 1254 l 1,7,-1
 248 1493 l 1,4,-1
780 655 m 1,8,9
 774 707 774 707 755.5 749 c 128,-1,10
 737 791 737 791 708 821 c 128,-1,11
 679 851 679 851 641.5 867 c 128,-1,12
 604 883 604 883 560 883 c 0,13,14
 512 883 512 883 474.5 866 c 128,-1,15
 437 849 437 849 409.5 819 c 128,-1,16
 382 789 382 789 364.5 747 c 128,-1,17
 347 705 347 705 339 655 c 1,18,-1
 780 655 l 1,8,9
985 908 m 1,19,20
 1048 814 1048 814 1068 682 c 0,21,22
 1073 649 1073 649 1075 603.5 c 128,-1,23
 1077 558 1077 558 1077 500 c 2,24,-1
 1077 465 l 1,25,-1
 332 465 l 1,26,27
 338 335 338 335 401 266 c 128,-1,28
 464 197 464 197 576 197 c 0,29,30
 712 197 712 197 771 322 c 1,31,-1
 1063 322 l 1,32,33
 1058 273 1058 273 1031.5 222.5 c 128,-1,34
 1005 172 1005 172 962 123 c 0,35,36
 893 45 893 45 794.5 4.5 c 128,-1,37
 696 -36 696 -36 570 -36 c 0,38,39
 363 -36 363 -36 202 98 c 1,40,41
 44 232 44 232 44 534 c 0,42,43
 44 677 44 677 81.5 786 c 128,-1,44
 119 895 119 895 187.5 969 c 128,-1,45
 256 1043 256 1043 351 1081 c 128,-1,46
 446 1119 446 1119 560 1119 c 0,47,48
 697 1119 697 1119 805.5 1069 c 128,-1,49
 914 1019 914 1019 985 908 c 1,19,20
EndSplineSet
Substitution2: "<17001,16003> Urdu lookup 85 subtable" edieresis
EndChar

StartChar: iacute
Encoding: 237 237 116
Width: 563
GlyphClass: 2
Flags: W
LayerCount: 2
Fore
SplineSet
628 1536 m 1,0,-1
 322 1235 l 1,1,-1
 113 1235 l 1,2,-1
 306 1536 l 1,3,-1
 628 1536 l 1,0,-1
133 1090 m 1,4,-1
 424 1090 l 1,5,-1
 424 0 l 1,6,-1
 133 0 l 1,7,-1
 133 1090 l 1,4,-1
EndSplineSet
Substitution2: "<17001,16003> Urdu lookup 85 subtable" iacute
EndChar

StartChar: igrave
Encoding: 236 236 117
Width: 563
GlyphClass: 2
Flags: W
LayerCount: 2
Fore
SplineSet
458 1235 m 1,0,-1
 249 1235 l 1,1,-1
 -56 1536 l 1,2,-1
 265 1536 l 1,3,-1
 458 1235 l 1,0,-1
133 1090 m 1,4,-1
 424 1090 l 1,5,-1
 424 0 l 1,6,-1
 133 0 l 1,7,-1
 133 1090 l 1,4,-1
EndSplineSet
Substitution2: "<17001,16003> Urdu lookup 85 subtable" igrave
EndChar

StartChar: icircumflex
Encoding: 238 238 118
Width: 563
GlyphClass: 2
Flags: W
LayerCount: 2
Fore
SplineSet
650 1235 m 1,0,-1
 415 1235 l 1,1,-1
 286 1402 l 1,2,3
 254 1360 254 1360 221 1318.5 c 128,-1,4
 188 1277 188 1277 156 1235 c 1,5,-1
 -79 1235 l 1,6,-1
 157 1536 l 1,7,-1
 415 1536 l 1,8,-1
 650 1235 l 1,0,-1
133 1090 m 1,9,-1
 415 1090 l 1,10,-1
 415 0 l 1,11,-1
 133 0 l 1,12,-1
 133 1090 l 1,9,-1
EndSplineSet
Substitution2: "<17001,16003> Urdu lookup 85 subtable" icircumflex
EndChar

StartChar: idieresis
Encoding: 239 239 119
Width: 563
GlyphClass: 2
Flags: W
LayerCount: 2
Fore
SplineSet
353 1493 m 1,0,-1
 616 1493 l 1,1,-1
 616 1254 l 1,2,-1
 353 1254 l 1,3,-1
 353 1493 l 1,0,-1
-47 1493 m 1,4,-1
 216 1493 l 1,5,-1
 216 1254 l 1,6,-1
 -47 1254 l 1,7,-1
 -47 1493 l 1,4,-1
133 1090 m 1,8,-1
 424 1090 l 1,9,-1
 424 0 l 1,10,-1
 133 0 l 1,11,-1
 133 1090 l 1,8,-1
EndSplineSet
Substitution2: "<17001,16003> Urdu lookup 85 subtable" idieresis
EndChar

StartChar: ntilde
Encoding: 241 241 120
Width: 1245
GlyphClass: 2
Flags: W
LayerCount: 2
Fore
SplineSet
691 1448 m 2,0,1
 708 1442 708 1442 720 1437.5 c 128,-1,2
 732 1433 732 1433 741.5 1430.5 c 128,-1,3
 751 1428 751 1428 758.5 1427 c 128,-1,4
 766 1426 766 1426 775 1426 c 0,5,6
 798 1426 798 1426 814.5 1433 c 128,-1,7
 831 1440 831 1440 842 1451.5 c 128,-1,8
 853 1463 853 1463 859.5 1478.5 c 128,-1,9
 866 1494 866 1494 870 1512 c 1,10,-1
 1004 1512 l 1,11,12
 995 1460 995 1460 978 1414.5 c 128,-1,13
 961 1369 961 1369 933.5 1335 c 128,-1,14
 906 1301 906 1301 867.5 1282 c 128,-1,15
 829 1263 829 1263 776 1263 c 0,16,17
 764 1263 764 1263 746.5 1265.5 c 128,-1,18
 729 1268 729 1268 708.5 1272.5 c 128,-1,19
 688 1277 688 1277 666.5 1283 c 128,-1,20
 645 1289 645 1289 625 1296 c 2,21,-1
 544 1323 l 2,22,23
 511 1334 511 1334 479 1334 c 0,24,25
 441 1334 441 1334 418 1312.5 c 128,-1,26
 395 1291 395 1291 384 1249 c 1,27,-1
 253 1249 l 1,28,29
 267 1319 267 1319 288.5 1367 c 128,-1,30
 310 1415 310 1415 340 1445 c 128,-1,31
 370 1475 370 1475 410 1488.5 c 128,-1,32
 450 1502 450 1502 500 1502 c 0,33,34
 527 1502 527 1502 553 1496 c 128,-1,35
 579 1490 579 1490 597 1483 c 2,36,-1
 691 1448 l 2,0,1
1118 0 m 1,37,-1
 825 0 l 1,38,-1
 825 663 l 2,39,40
 825 777 825 777 780.5 827.5 c 128,-1,41
 736 878 736 878 643 878 c 0,42,43
 531 878 531 878 474 807.5 c 128,-1,44
 417 737 417 737 417 590 c 2,45,-1
 417 0 l 1,46,-1
 132 0 l 1,47,-1
 132 1088 l 1,48,-1
 408 1088 l 1,49,-1
 408 933 l 1,50,51
 462 1015 462 1015 510 1051 c 0,52,53
 598 1116 598 1116 734 1116 c 0,54,55
 819 1116 819 1116 889.5 1094.5 c 128,-1,56
 960 1073 960 1073 1011 1027 c 128,-1,57
 1062 981 1062 981 1090 908.5 c 128,-1,58
 1118 836 1118 836 1118 734 c 2,59,-1
 1118 0 l 1,37,-1
EndSplineSet
Substitution2: "<17001,16003> Urdu lookup 85 subtable" ntilde
EndChar

StartChar: oacute
Encoding: 243 243 121
Width: 1245
GlyphClass: 2
Flags: W
LayerCount: 2
Fore
SplineSet
964 1536 m 1,0,-1
 658 1235 l 1,1,-1
 449 1235 l 1,2,-1
 642 1536 l 1,3,-1
 964 1536 l 1,0,-1
877 543 m 0,4,5
 877 709 877 709 811 796 c 128,-1,6
 745 883 745 883 619 883 c 256,7,8
 493 883 493 883 426.5 796 c 128,-1,9
 360 709 360 709 360 543 c 0,10,11
 360 378 360 378 426.5 290.5 c 128,-1,12
 493 203 493 203 619 203 c 256,13,14
 745 203 745 203 811 290.5 c 128,-1,15
 877 378 877 378 877 543 c 0,4,5
620 -38 m 256,16,17
 338 -38 338 -38 201 132 c 0,18,19
 63 303 63 303 63 543 c 0,20,21
 63 782 63 782 201 953 c 0,22,23
 339 1125 339 1125 620 1125 c 0,24,25
 903 1125 903 1125 1039 953 c 1,26,27
 1177 781 1177 781 1177 543 c 0,28,29
 1177 303 1177 303 1039 132 c 0,30,31
 902 -38 902 -38 620 -38 c 256,16,17
EndSplineSet
Substitution2: "<17001,16003> Urdu lookup 85 subtable" oacute
EndChar

StartChar: ograve
Encoding: 242 242 122
Width: 1245
GlyphClass: 2
Flags: W
LayerCount: 2
Fore
SplineSet
791 1235 m 1,0,-1
 582 1235 l 1,1,-1
 277 1536 l 1,2,-1
 598 1536 l 1,3,-1
 791 1235 l 1,0,-1
877 543 m 0,4,5
 877 709 877 709 811 796 c 128,-1,6
 745 883 745 883 619 883 c 256,7,8
 493 883 493 883 426.5 796 c 128,-1,9
 360 709 360 709 360 543 c 0,10,11
 360 378 360 378 426.5 290.5 c 128,-1,12
 493 203 493 203 619 203 c 256,13,14
 745 203 745 203 811 290.5 c 128,-1,15
 877 378 877 378 877 543 c 0,4,5
620 -38 m 256,16,17
 338 -38 338 -38 201 132 c 0,18,19
 63 303 63 303 63 543 c 0,20,21
 63 782 63 782 201 953 c 0,22,23
 339 1125 339 1125 620 1125 c 0,24,25
 903 1125 903 1125 1039 953 c 1,26,27
 1177 781 1177 781 1177 543 c 0,28,29
 1177 303 1177 303 1039 132 c 0,30,31
 902 -38 902 -38 620 -38 c 256,16,17
EndSplineSet
Substitution2: "<17001,16003> Urdu lookup 85 subtable" ograve
EndChar

StartChar: ocircumflex
Encoding: 244 244 123
Width: 1245
GlyphClass: 2
Flags: W
LayerCount: 2
Fore
SplineSet
984 1235 m 1,0,-1
 749 1235 l 1,1,-1
 620 1402 l 1,2,3
 588 1360 588 1360 555 1318.5 c 128,-1,4
 522 1277 522 1277 490 1235 c 1,5,-1
 255 1235 l 1,6,-1
 491 1536 l 1,7,-1
 749 1536 l 1,8,-1
 984 1235 l 1,0,-1
877 543 m 0,9,10
 877 709 877 709 811 796 c 128,-1,11
 745 883 745 883 619 883 c 256,12,13
 493 883 493 883 426.5 796 c 128,-1,14
 360 709 360 709 360 543 c 0,15,16
 360 378 360 378 426.5 290.5 c 128,-1,17
 493 203 493 203 619 203 c 256,18,19
 745 203 745 203 811 290.5 c 128,-1,20
 877 378 877 378 877 543 c 0,9,10
620 -38 m 256,21,22
 338 -38 338 -38 201 132 c 0,23,24
 63 303 63 303 63 543 c 0,25,26
 63 782 63 782 201 953 c 0,27,28
 339 1125 339 1125 620 1125 c 0,29,30
 903 1125 903 1125 1039 953 c 1,31,32
 1177 781 1177 781 1177 543 c 0,33,34
 1177 303 1177 303 1039 132 c 0,35,36
 902 -38 902 -38 620 -38 c 256,21,22
EndSplineSet
Substitution2: "<17001,16003> Urdu lookup 85 subtable" ocircumflex
EndChar

StartChar: odieresis
Encoding: 246 246 124
Width: 1245
GlyphClass: 2
Flags: W
LayerCount: 2
Fore
SplineSet
688 1493 m 1,0,-1
 951 1493 l 1,1,-1
 951 1254 l 1,2,-1
 688 1254 l 1,3,-1
 688 1493 l 1,0,-1
288 1493 m 1,4,-1
 551 1493 l 1,5,-1
 551 1254 l 1,6,-1
 288 1254 l 1,7,-1
 288 1493 l 1,4,-1
877 543 m 0,8,9
 877 709 877 709 811 796 c 128,-1,10
 745 883 745 883 619 883 c 256,11,12
 493 883 493 883 426.5 796 c 128,-1,13
 360 709 360 709 360 543 c 0,14,15
 360 378 360 378 426.5 290.5 c 128,-1,16
 493 203 493 203 619 203 c 256,17,18
 745 203 745 203 811 290.5 c 128,-1,19
 877 378 877 378 877 543 c 0,8,9
620 -38 m 256,20,21
 338 -38 338 -38 201 132 c 0,22,23
 63 303 63 303 63 543 c 0,24,25
 63 782 63 782 201 953 c 0,26,27
 339 1125 339 1125 620 1125 c 0,28,29
 903 1125 903 1125 1039 953 c 1,30,31
 1177 781 1177 781 1177 543 c 0,32,33
 1177 303 1177 303 1039 132 c 0,34,35
 902 -38 902 -38 620 -38 c 256,20,21
EndSplineSet
Substitution2: "<17001,16003> Urdu lookup 85 subtable" odieresis
EndChar

StartChar: otilde
Encoding: 245 245 125
Width: 1245
GlyphClass: 2
Flags: W
LayerCount: 2
Fore
SplineSet
682 1448 m 2,0,1
 699 1442 699 1442 711 1437.5 c 128,-1,2
 723 1433 723 1433 732.5 1430.5 c 128,-1,3
 742 1428 742 1428 749.5 1427 c 128,-1,4
 757 1426 757 1426 766 1426 c 0,5,6
 789 1426 789 1426 805.5 1433 c 128,-1,7
 822 1440 822 1440 833 1451.5 c 128,-1,8
 844 1463 844 1463 850.5 1478.5 c 128,-1,9
 857 1494 857 1494 861 1512 c 1,10,-1
 995 1512 l 1,11,12
 986 1460 986 1460 969 1414.5 c 128,-1,13
 952 1369 952 1369 924.5 1335 c 128,-1,14
 897 1301 897 1301 858.5 1282 c 128,-1,15
 820 1263 820 1263 767 1263 c 0,16,17
 755 1263 755 1263 737.5 1265.5 c 128,-1,18
 720 1268 720 1268 699.5 1272.5 c 128,-1,19
 679 1277 679 1277 657.5 1283 c 128,-1,20
 636 1289 636 1289 616 1296 c 2,21,-1
 535 1323 l 2,22,23
 502 1334 502 1334 470 1334 c 0,24,25
 432 1334 432 1334 409 1312.5 c 128,-1,26
 386 1291 386 1291 375 1249 c 1,27,-1
 244 1249 l 1,28,29
 259 1320 259 1320 280.5 1368 c 128,-1,30
 302 1416 302 1416 332 1446 c 128,-1,31
 362 1476 362 1476 401 1489 c 128,-1,32
 440 1502 440 1502 491 1502 c 0,33,34
 518 1502 518 1502 544 1496 c 128,-1,35
 570 1490 570 1490 588 1483 c 2,36,-1
 682 1448 l 2,0,1
877 543 m 0,37,38
 877 709 877 709 811 796 c 128,-1,39
 745 883 745 883 619 883 c 256,40,41
 493 883 493 883 426.5 796 c 128,-1,42
 360 709 360 709 360 543 c 0,43,44
 360 378 360 378 426.5 290.5 c 128,-1,45
 493 203 493 203 619 203 c 256,46,47
 745 203 745 203 811 290.5 c 128,-1,48
 877 378 877 378 877 543 c 0,37,38
620 -38 m 256,49,50
 338 -38 338 -38 201 132 c 0,51,52
 63 303 63 303 63 543 c 0,53,54
 63 782 63 782 201 953 c 0,55,56
 339 1125 339 1125 620 1125 c 0,57,58
 903 1125 903 1125 1039 953 c 1,59,60
 1177 781 1177 781 1177 543 c 0,61,62
 1177 303 1177 303 1039 132 c 0,63,64
 902 -38 902 -38 620 -38 c 256,49,50
EndSplineSet
Substitution2: "<17001,16003> Urdu lookup 85 subtable" otilde
EndChar

StartChar: uacute
Encoding: 250 250 126
Width: 1245
GlyphClass: 2
Flags: W
LayerCount: 2
Fore
SplineSet
958 1536 m 1,0,-1
 652 1235 l 1,1,-1
 443 1235 l 1,2,-1
 636 1536 l 1,3,-1
 958 1536 l 1,0,-1
415 1090 m 1,4,-1
 415 433 l 2,5,6
 415 314 415 314 456.5 263 c 128,-1,7
 498 212 498 212 589 212 c 0,8,9
 704 212 704 212 760 283.5 c 128,-1,10
 816 355 816 355 816 497 c 2,11,-1
 816 1090 l 1,12,-1
 1106 1090 l 1,13,-1
 1106 0 l 1,14,-1
 828 0 l 1,15,-1
 828 152 l 1,16,17
 826 150 826 150 823.5 145.5 c 128,-1,18
 821 141 821 141 818 136 c 1,19,-1
 818 137 l 1,20,21
 806 113 806 113 784.5 91 c 128,-1,22
 763 69 763 69 738 51 c 128,-1,23
 713 33 713 33 687.5 19.5 c 128,-1,24
 662 6 662 6 641 -2 c 0,25,26
 582 -24 582 -24 495 -24 c 0,27,28
 399 -24 399 -24 328.5 2 c 128,-1,29
 258 28 258 28 212.5 83.5 c 128,-1,30
 167 139 167 139 144.5 225.5 c 128,-1,31
 122 312 122 312 122 433 c 2,32,-1
 122 1090 l 1,33,-1
 415 1090 l 1,4,-1
EndSplineSet
Substitution2: "<17001,16003> Urdu lookup 85 subtable" uacute
EndChar

StartChar: ugrave
Encoding: 249 249 127
Width: 1245
GlyphClass: 2
Flags: W
LayerCount: 2
Fore
SplineSet
785 1235 m 1,0,-1
 576 1235 l 1,1,-1
 271 1536 l 1,2,-1
 592 1536 l 1,3,-1
 785 1235 l 1,0,-1
415 1090 m 1,4,-1
 415 433 l 2,5,6
 415 314 415 314 456.5 263 c 128,-1,7
 498 212 498 212 589 212 c 0,8,9
 704 212 704 212 760 283.5 c 128,-1,10
 816 355 816 355 816 497 c 2,11,-1
 816 1090 l 1,12,-1
 1106 1090 l 1,13,-1
 1106 0 l 1,14,-1
 828 0 l 1,15,-1
 828 152 l 1,16,17
 826 150 826 150 823.5 145.5 c 128,-1,18
 821 141 821 141 818 136 c 1,19,-1
 818 137 l 1,20,21
 806 113 806 113 784.5 91 c 128,-1,22
 763 69 763 69 738 51 c 128,-1,23
 713 33 713 33 687.5 19.5 c 128,-1,24
 662 6 662 6 641 -2 c 0,25,26
 582 -24 582 -24 495 -24 c 0,27,28
 399 -24 399 -24 328.5 2 c 128,-1,29
 258 28 258 28 212.5 83.5 c 128,-1,30
 167 139 167 139 144.5 225.5 c 128,-1,31
 122 312 122 312 122 433 c 2,32,-1
 122 1090 l 1,33,-1
 415 1090 l 1,4,-1
EndSplineSet
Substitution2: "<17001,16003> Urdu lookup 85 subtable" ugrave
EndChar

StartChar: ucircumflex
Encoding: 251 251 128
Width: 1245
GlyphClass: 2
Flags: W
LayerCount: 2
Fore
SplineSet
978 1235 m 1,0,-1
 743 1235 l 1,1,-1
 614 1402 l 1,2,3
 582 1360 582 1360 549 1318.5 c 128,-1,4
 516 1277 516 1277 484 1235 c 1,5,-1
 249 1235 l 1,6,-1
 485 1536 l 1,7,-1
 743 1536 l 1,8,-1
 978 1235 l 1,0,-1
415 1090 m 1,9,-1
 415 433 l 2,10,11
 415 314 415 314 456.5 263 c 128,-1,12
 498 212 498 212 589 212 c 0,13,14
 704 212 704 212 760 283.5 c 128,-1,15
 816 355 816 355 816 497 c 2,16,-1
 816 1090 l 1,17,-1
 1106 1090 l 1,18,-1
 1106 0 l 1,19,-1
 828 0 l 1,20,-1
 828 152 l 1,21,22
 826 150 826 150 823.5 145.5 c 128,-1,23
 821 141 821 141 818 136 c 1,24,-1
 818 137 l 1,25,26
 806 113 806 113 784.5 91 c 128,-1,27
 763 69 763 69 738 51 c 128,-1,28
 713 33 713 33 687.5 19.5 c 128,-1,29
 662 6 662 6 641 -2 c 0,30,31
 582 -24 582 -24 495 -24 c 0,32,33
 399 -24 399 -24 328.5 2 c 128,-1,34
 258 28 258 28 212.5 83.5 c 128,-1,35
 167 139 167 139 144.5 225.5 c 128,-1,36
 122 312 122 312 122 433 c 2,37,-1
 122 1090 l 1,38,-1
 415 1090 l 1,9,-1
EndSplineSet
Substitution2: "<17001,16003> Urdu lookup 85 subtable" ucircumflex
EndChar

StartChar: udieresis
Encoding: 252 252 129
Width: 1245
GlyphClass: 2
Flags: W
LayerCount: 2
Fore
SplineSet
682 1493 m 1,0,-1
 945 1493 l 1,1,-1
 945 1254 l 1,2,-1
 682 1254 l 1,3,-1
 682 1493 l 1,0,-1
282 1493 m 1,4,-1
 545 1493 l 1,5,-1
 545 1254 l 1,6,-1
 282 1254 l 1,7,-1
 282 1493 l 1,4,-1
415 1090 m 1,8,-1
 415 433 l 2,9,10
 415 314 415 314 456.5 263 c 128,-1,11
 498 212 498 212 589 212 c 0,12,13
 704 212 704 212 760 283.5 c 128,-1,14
 816 355 816 355 816 497 c 2,15,-1
 816 1090 l 1,16,-1
 1106 1090 l 1,17,-1
 1106 0 l 1,18,-1
 828 0 l 1,19,-1
 828 152 l 1,20,21
 826 150 826 150 823.5 145.5 c 128,-1,22
 821 141 821 141 818 136 c 1,23,-1
 818 137 l 1,24,25
 806 113 806 113 784.5 91 c 128,-1,26
 763 69 763 69 738 51 c 128,-1,27
 713 33 713 33 687.5 19.5 c 128,-1,28
 662 6 662 6 641 -2 c 0,29,30
 582 -24 582 -24 495 -24 c 0,31,32
 399 -24 399 -24 328.5 2 c 128,-1,33
 258 28 258 28 212.5 83.5 c 128,-1,34
 167 139 167 139 144.5 225.5 c 128,-1,35
 122 312 122 312 122 433 c 2,36,-1
 122 1090 l 1,37,-1
 415 1090 l 1,8,-1
EndSplineSet
Substitution2: "<17001,16003> Urdu lookup 85 subtable" udieresis
EndChar

StartChar: dagger
Encoding: 8224 8224 130
Width: 1139
GlyphClass: 2
Flags: W
LayerCount: 2
Fore
SplineSet
425 1453 m 1,0,-1
 705 1453 l 1,1,-1
 705 1003 l 1,2,-1
 1061 1003 l 1,3,-1
 1061 771 l 1,4,-1
 705 771 l 1,5,-1
 705 -369 l 1,6,-1
 425 -369 l 1,7,-1
 425 771 l 1,8,-1
 71 771 l 1,9,-1
 71 998 l 1,10,-1
 425 998 l 1,11,-1
 425 1453 l 1,0,-1
EndSplineSet
Substitution2: "<17001,16003> Urdu lookup 85 subtable" dagger
EndChar

StartChar: degree
Encoding: 176 176 131
Width: 813
GlyphClass: 2
Flags: W
LayerCount: 2
Fore
SplineSet
254 1136 m 256,0,1
 254 1103 254 1103 267 1074.5 c 128,-1,2
 280 1046 280 1046 301.5 1024 c 128,-1,3
 323 1002 323 1002 352 989.5 c 128,-1,4
 381 977 381 977 414 977 c 256,5,6
 447 977 447 977 476 989.5 c 128,-1,7
 505 1002 505 1002 526.5 1024 c 128,-1,8
 548 1046 548 1046 561 1074.5 c 128,-1,9
 574 1103 574 1103 574 1136 c 256,10,11
 574 1169 574 1169 561.5 1198 c 128,-1,12
 549 1227 549 1227 527 1249 c 128,-1,13
 505 1271 505 1271 476 1283.5 c 128,-1,14
 447 1296 447 1296 414 1296 c 256,15,16
 381 1296 381 1296 352 1283.5 c 128,-1,17
 323 1271 323 1271 301.5 1249 c 128,-1,18
 280 1227 280 1227 267 1198 c 128,-1,19
 254 1169 254 1169 254 1136 c 256,0,1
414 1460 m 0,20,21
 480 1460 480 1460 539 1434 c 128,-1,22
 598 1408 598 1408 642 1364 c 128,-1,23
 686 1320 686 1320 712 1261 c 128,-1,24
 738 1202 738 1202 738 1136 c 0,25,26
 738 1071 738 1071 712.5 1012.5 c 128,-1,27
 687 954 687 954 643 909.5 c 128,-1,28
 599 865 599 865 540 839 c 128,-1,29
 481 813 481 813 414 813 c 0,30,31
 348 813 348 813 289 839 c 128,-1,32
 230 865 230 865 185.5 909 c 128,-1,33
 141 953 141 953 115.5 1011.5 c 128,-1,34
 90 1070 90 1070 90 1136 c 0,35,36
 90 1203 90 1203 116 1262 c 128,-1,37
 142 1321 142 1321 186.5 1365 c 128,-1,38
 231 1409 231 1409 290 1434.5 c 128,-1,39
 349 1460 349 1460 414 1460 c 0,20,21
EndSplineSet
Substitution2: "<17001,16003> Urdu lookup 85 subtable" degree
EndChar

StartChar: cent
Encoding: 162 162 132
Width: 1139
GlyphClass: 2
Flags: W
LayerCount: 2
Fore
SplineSet
578 873 m 0,0,1
 527 873 527 873 487.5 844.5 c 128,-1,2
 448 816 448 816 421.5 769 c 128,-1,3
 395 722 395 722 381.5 660.5 c 128,-1,4
 368 599 368 599 368 533 c 0,5,6
 368 477 368 477 375 432.5 c 128,-1,7
 382 388 382 388 392.5 354.5 c 128,-1,8
 403 321 403 321 416.5 298 c 128,-1,9
 430 275 430 275 443 261 c 1,10,11
 485 414 485 414 527.5 565.5 c 128,-1,12
 570 717 570 717 612 871 c 1,13,14
 604 872 604 872 595 872.5 c 128,-1,15
 586 873 586 873 578 873 c 0,0,1
567 1116 m 0,16,17
 591 1116 591 1116 605.5 1115.5 c 128,-1,18
 620 1115 620 1115 631.5 1114 c 128,-1,19
 643 1113 643 1113 653.5 1111 c 128,-1,20
 664 1109 664 1109 679 1106 c 1,21,22
 691 1151 691 1151 704 1196.5 c 128,-1,23
 717 1242 717 1242 729 1287 c 1,24,-1
 837 1287 l 1,25,-1
 778 1085 l 1,26,27
 832 1067 832 1067 876 1041 c 128,-1,28
 920 1015 920 1015 952 982 c 0,29,30
 1003 931 1003 931 1034.5 860 c 128,-1,31
 1066 789 1066 789 1076 698 c 1,32,-1
 783 698 l 1,33,34
 775 747 775 747 756.5 784 c 128,-1,35
 738 821 738 821 709 839 c 1,36,37
 664 679 664 679 621.5 523 c 128,-1,38
 579 367 579 367 534 208 c 1,39,40
 550 208 550 208 561.5 204.5 c 128,-1,41
 573 201 573 201 587 201 c 0,42,43
 620 201 620 201 651.5 212.5 c 128,-1,44
 683 224 683 224 709.5 248 c 128,-1,45
 736 272 736 272 755 309 c 128,-1,46
 774 346 774 346 781 396 c 1,47,-1
 1073 396 l 1,48,49
 1056 208 1056 208 939 83 c 0,50,51
 881 20 881 20 789 -11 c 128,-1,52
 697 -42 697 -42 561 -41 c 0,53,54
 546 -41 546 -41 534.5 -40.5 c 128,-1,55
 523 -40 523 -40 512.5 -39.5 c 128,-1,56
 502 -39 502 -39 490.5 -37.5 c 128,-1,57
 479 -36 479 -36 465 -34 c 1,58,59
 451 -86 451 -86 435.5 -139.5 c 128,-1,60
 420 -193 420 -193 406 -245 c 1,61,-1
 292 -245 l 1,62,-1
 366 -3 l 1,63,64
 303 21 303 21 250 67.5 c 128,-1,65
 197 114 197 114 155 181 c 0,66,67
 69 318 69 318 69 528 c 0,68,69
 69 662 69 662 106 771 c 128,-1,70
 143 880 143 880 209 956.5 c 128,-1,71
 275 1033 275 1033 366.5 1074.5 c 128,-1,72
 458 1116 458 1116 567 1116 c 0,16,17
EndSplineSet
Substitution2: "<17001,16003> Urdu lookup 85 subtable" cent
EndChar

StartChar: sterling
Encoding: 163 163 133
Width: 1139
GlyphClass: 2
Flags: W
LayerCount: 2
Fore
SplineSet
66 176 m 1,0,1
 99 193 99 193 138.5 226 c 128,-1,2
 178 259 178 259 211.5 299.5 c 128,-1,3
 245 340 245 340 268 385 c 128,-1,4
 291 430 291 430 291 470 c 0,5,6
 291 489 291 489 289 507.5 c 128,-1,7
 287 526 287 526 282 547 c 128,-1,8
 277 568 277 568 268 594.5 c 128,-1,9
 259 621 259 621 245 655 c 1,10,-1
 68 655 l 1,11,-1
 68 769 l 1,12,-1
 181 769 l 1,13,14
 158 814 158 814 141.5 853.5 c 128,-1,15
 125 893 125 893 114 926 c 0,16,17
 92 992 92 992 92 1074 c 0,18,19
 92 1150 92 1150 124 1221.5 c 128,-1,20
 156 1293 156 1293 218.5 1348.5 c 128,-1,21
 281 1404 281 1404 372.5 1438 c 128,-1,22
 464 1472 464 1472 583 1472 c 0,23,24
 680 1472 680 1472 766 1443.5 c 128,-1,25
 852 1415 852 1415 924 1363 c 1,26,27
 1065 1253 1065 1253 1076 996 c 1,28,-1
 804 996 l 1,29,30
 798 1054 798 1054 783 1099.5 c 128,-1,31
 768 1145 768 1145 741 1176 c 128,-1,32
 714 1207 714 1207 674.5 1223.5 c 128,-1,33
 635 1240 635 1240 580 1240 c 0,34,35
 534 1240 534 1240 497 1224 c 128,-1,36
 460 1208 460 1208 434 1182 c 128,-1,37
 408 1156 408 1156 394 1122 c 128,-1,38
 380 1088 380 1088 380 1052 c 0,39,40
 380 1026 380 1026 384 1005.5 c 128,-1,41
 388 985 388 985 399 956.5 c 128,-1,42
 410 928 410 928 430.5 884.5 c 128,-1,43
 451 841 451 841 484 769 c 1,44,-1
 771 769 l 1,45,-1
 771 655 l 1,46,-1
 527 655 l 1,47,48
 531 617 531 617 533.5 591.5 c 128,-1,49
 536 566 536 566 536 539 c 0,50,51
 536 491 536 491 522 446.5 c 128,-1,52
 508 402 508 402 478 360 c 0,53,54
 460 335 460 335 424 298.5 c 128,-1,55
 388 262 388 262 333 210 c 1,56,57
 381 227 381 227 413 237.5 c 128,-1,58
 445 248 445 248 469.5 253.5 c 128,-1,59
 494 259 494 259 515.5 260.5 c 128,-1,60
 537 262 537 262 564 262 c 0,61,62
 600 261 600 261 635 256 c 128,-1,63
 670 251 670 251 708 239 c 2,64,-1
 749 226 l 2,65,66
 777 217 777 217 795.5 214.5 c 128,-1,67
 814 212 814 212 826 212 c 0,68,69
 847 212 847 212 865.5 215.5 c 128,-1,70
 884 219 884 219 906 227 c 128,-1,71
 928 235 928 235 956 249 c 128,-1,72
 984 263 984 263 1023 285 c 1,73,-1
 1106 59 l 1,74,75
 1084 44 1084 44 1047.5 27 c 128,-1,76
 1011 10 1011 10 968 -4 c 128,-1,77
 925 -18 925 -18 879.5 -27 c 128,-1,78
 834 -36 834 -36 793 -36 c 0,79,80
 748 -36 748 -36 699.5 -25 c 128,-1,81
 651 -14 651 -14 597 4 c 2,82,-1
 540 23 l 2,83,84
 516 31 516 31 497.5 36 c 128,-1,85
 479 41 479 41 463 44 c 128,-1,86
 447 47 447 47 431 48 c 128,-1,87
 415 49 415 49 397 49 c 0,88,89
 374 49 374 49 356.5 47 c 128,-1,90
 339 45 339 45 316.5 37.5 c 128,-1,91
 294 30 294 30 261.5 15.5 c 128,-1,92
 229 1 229 1 176 -24 c 1,93,-1
 66 176 l 1,0,1
EndSplineSet
Substitution2: "<17001,16003> Urdu lookup 85 subtable" sterling
EndChar

StartChar: section
Encoding: 167 167 134
Width: 1139
GlyphClass: 2
Flags: W
LayerCount: 2
Fore
SplineSet
765 572 m 0,0,1
 735 597 735 597 694 617 c 0,2,3
 622 654 622 654 544.5 694 c 128,-1,4
 467 734 467 734 395 769 c 1,5,6
 353 751 353 751 330.5 719.5 c 128,-1,7
 308 688 308 688 308 645 c 0,8,9
 308 624 308 624 314.5 606.5 c 128,-1,10
 321 589 321 589 336 572.5 c 128,-1,11
 351 556 351 556 376 539 c 128,-1,12
 401 522 401 522 438 503 c 0,13,14
 510 466 510 466 580 428.5 c 128,-1,15
 650 391 650 391 722 355 c 1,16,17
 764 375 764 375 788.5 409.5 c 128,-1,18
 813 444 813 444 813 487 c 0,19,20
 813 532 813 532 765 572 c 0,0,1
187 949 m 1,21,22
 149 1023 149 1023 149 1108 c 0,23,24
 149 1182 149 1182 175.5 1248.5 c 128,-1,25
 202 1315 202 1315 254.5 1365 c 128,-1,26
 307 1415 307 1415 385 1444.5 c 128,-1,27
 463 1474 463 1474 566 1474 c 0,28,29
 756 1474 756 1474 859.5 1379.5 c 128,-1,30
 963 1285 963 1285 976 1097 c 1,31,-1
 717 1097 l 1,32,33
 707 1175 707 1175 667.5 1214.5 c 128,-1,34
 628 1254 628 1254 553 1254 c 0,35,36
 490 1254 490 1254 450.5 1224.5 c 128,-1,37
 411 1195 411 1195 411 1135 c 0,38,39
 411 1101 411 1101 426 1079 c 128,-1,40
 441 1057 441 1057 478.5 1035 c 128,-1,41
 516 1013 516 1013 579 986 c 128,-1,42
 642 959 642 959 737 915 c 0,43,44
 1063 762 1063 762 1063 557 c 0,45,46
 1063 506 1063 506 1052.5 463.5 c 128,-1,47
 1042 421 1042 421 1019 385.5 c 128,-1,48
 996 350 996 350 959.5 319.5 c 128,-1,49
 923 289 923 289 871 261 c 1,50,51
 906 231 906 231 930 201.5 c 128,-1,52
 954 172 954 172 969 140.5 c 128,-1,53
 984 109 984 109 990.5 74.5 c 128,-1,54
 997 40 997 40 997 -1 c 0,55,56
 997 -98 997 -98 960.5 -171 c 128,-1,57
 924 -244 924 -244 864 -293.5 c 128,-1,58
 804 -343 804 -343 727 -368 c 128,-1,59
 650 -393 650 -393 569 -393 c 0,60,61
 482 -393 482 -393 405 -372 c 128,-1,62
 328 -351 328 -351 268.5 -305.5 c 128,-1,63
 209 -260 209 -260 171.5 -186.5 c 128,-1,64
 134 -113 134 -113 125 -8 c 1,65,-1
 396 -8 l 1,66,67
 406 -55 406 -55 420 -86 c 128,-1,68
 434 -117 434 -117 455.5 -136 c 128,-1,69
 477 -155 477 -155 506.5 -163 c 128,-1,70
 536 -171 536 -171 576 -171 c 0,71,72
 605 -171 605 -171 631 -161 c 128,-1,73
 657 -151 657 -151 677 -133.5 c 128,-1,74
 697 -116 697 -116 709 -92 c 128,-1,75
 721 -68 721 -68 721 -39 c 0,76,77
 721 -16 721 -16 708.5 9 c 128,-1,78
 696 34 696 34 676 53 c 0,79,80
 653 75 653 75 589 111 c 128,-1,81
 525 147 525 147 422 199 c 0,82,83
 329 247 329 247 266.5 282.5 c 128,-1,84
 204 318 204 318 172 347 c 0,85,86
 118 395 118 395 91.5 449.5 c 128,-1,87
 65 504 65 504 65 573 c 0,88,89
 65 674 65 674 110 744 c 128,-1,90
 155 814 155 814 254 869 c 1,91,92
 238 880 238 880 221.5 899.5 c 128,-1,93
 205 919 205 919 187 948 c 1,94,-1
 187 949 l 1,21,22
EndSplineSet
Substitution2: "<17001,16003> Urdu lookup 85 subtable" section
EndChar

StartChar: bullet
Encoding: 8226 8226 135
AltUni2: 0025cf.ffffffff.0
Width: 1151
GlyphClass: 2
Flags: W
LayerCount: 2
Fore
SplineSet
1051 470 m 0,0,1
 1051 367 1051 367 1015.5 279.5 c 128,-1,2
 980 192 980 192 916.5 128.5 c 128,-1,3
 853 65 853 65 766 29.5 c 128,-1,4
 679 -6 679 -6 576 -6 c 256,5,6
 473 -6 473 -6 386 29.5 c 128,-1,7
 299 65 299 65 235.5 128 c 128,-1,8
 172 191 172 191 136 278.5 c 128,-1,9
 100 366 100 366 100 470 c 256,10,11
 100 574 100 574 136 661 c 128,-1,12
 172 748 172 748 235.5 810.5 c 128,-1,13
 299 873 299 873 386 908 c 128,-1,14
 473 943 473 943 576 943 c 256,15,16
 679 943 679 943 766 907.5 c 128,-1,17
 853 872 853 872 916.5 809 c 128,-1,18
 980 746 980 746 1015.5 659 c 128,-1,19
 1051 572 1051 572 1051 470 c 0,0,1
EndSplineSet
Substitution2: "<17001,16003> Urdu lookup 85 subtable" bullet
EndChar

StartChar: paragraph
Encoding: 182 182 136
Width: 1139
GlyphClass: 2
Flags: W
LayerCount: 2
Fore
SplineSet
1011 -369 m 1,0,-1
 808 -369 l 1,1,-1
 808 1301 l 1,2,-1
 614 1301 l 1,3,-1
 614 -369 l 1,4,-1
 410 -369 l 1,5,-1
 410 494 l 1,6,7
 316 496 316 496 240 529.5 c 128,-1,8
 164 563 164 563 110.5 624.5 c 128,-1,9
 57 686 57 686 28.5 774 c 128,-1,10
 0 862 0 862 0 971 c 0,11,12
 0 1077 0 1077 31 1168.5 c 128,-1,13
 62 1260 62 1260 123 1328 c 128,-1,14
 184 1396 184 1396 274.5 1435 c 128,-1,15
 365 1474 365 1474 485 1474 c 2,16,-1
 1136 1474 l 1,17,-1
 1136 1301 l 1,18,-1
 1011 1301 l 1,19,-1
 1011 -369 l 1,0,-1
EndSplineSet
Substitution2: "<17001,16003> Urdu lookup 85 subtable" paragraph
EndChar

StartChar: germandbls
Encoding: 223 223 137
Width: 1245
GlyphClass: 2
Flags: W
LayerCount: 2
Fore
SplineSet
134 1035 m 2,0,1
 134 1126 134 1126 150 1199.5 c 128,-1,2
 166 1273 166 1273 194 1321 c 1,3,4
 249 1406 249 1406 353.5 1452 c 128,-1,5
 458 1498 458 1498 612 1498 c 0,6,7
 719 1498 719 1498 807.5 1471.5 c 128,-1,8
 896 1445 896 1445 959 1395 c 128,-1,9
 1022 1345 1022 1345 1057 1273 c 128,-1,10
 1092 1201 1092 1201 1092 1111 c 0,11,12
 1092 1017 1092 1017 1053.5 951.5 c 128,-1,13
 1015 886 1015 886 943 841 c 1,14,15
 1067 787 1067 787 1121 693.5 c 128,-1,16
 1175 600 1175 600 1175 470 c 0,17,18
 1175 287 1175 287 1061 129 c 1,19,20
 950 -27 950 -27 668 -27 c 0,21,22
 654 -27 654 -27 624 -24.5 c 128,-1,23
 594 -22 594 -22 560 -15 c 1,24,-1
 560 215 l 1,25,26
 582 213 582 213 597.5 212.5 c 128,-1,27
 613 212 613 212 625 212 c 0,28,29
 885 212 885 212 885 462 c 0,30,31
 885 610 885 610 783 665 c 0,32,33
 723 698 723 698 574 710 c 1,34,-1
 574 911 l 1,35,36
 641 912 641 912 684.5 922 c 128,-1,37
 728 932 728 932 753 952.5 c 128,-1,38
 778 973 778 973 787.5 1005.5 c 128,-1,39
 797 1038 797 1038 797 1084 c 0,40,41
 797 1132 797 1132 781.5 1166 c 128,-1,42
 766 1200 766 1200 739.5 1222.5 c 128,-1,43
 713 1245 713 1245 678.5 1255.5 c 128,-1,44
 644 1266 644 1266 605 1266 c 0,45,46
 482 1266 482 1266 441 1182 c 0,47,48
 417 1133 417 1133 417 1002 c 2,49,-1
 417 0 l 1,50,-1
 134 0 l 1,51,-1
 134 1035 l 2,0,1
EndSplineSet
Substitution2: "<17001,16003> Urdu lookup 85 subtable" germandbls
EndChar

StartChar: registered
Encoding: 174 174 138
Width: 1509
GlyphClass: 2
Flags: W
LayerCount: 2
Fore
SplineSet
830 982 m 1,0,1
 784 999 784 999 706 999 c 2,2,-1
 655 999 l 1,3,-1
 655 764 l 1,4,-1
 737 764 l 2,5,6
 812 764 812 764 853.5 794 c 128,-1,7
 895 824 895 824 895 890 c 256,8,9
 895 956 895 956 830 982 c 1,0,1
439 327 m 1,10,-1
 439 1144 l 1,11,12
 464 1144 464 1144 513.5 1143.5 c 128,-1,13
 563 1143 563 1143 620.5 1143 c 128,-1,14
 678 1143 678 1143 736 1142.5 c 128,-1,15
 794 1142 794 1142 836 1142 c 1,16,17
 1107 1121 1107 1121 1107 905 c 0,18,19
 1107 854 1107 854 1092 818 c 128,-1,20
 1077 782 1077 782 1051 758 c 128,-1,21
 1025 734 1025 734 990 720.5 c 128,-1,22
 955 707 955 707 914 701 c 1,23,24
 1013 679 1013 679 1054.5 624 c 128,-1,25
 1096 569 1096 569 1096 471 c 2,26,-1
 1096 398 l 2,27,28
 1096 386 1096 386 1098 374 c 128,-1,29
 1100 362 1100 362 1103 351 c 2,30,-1
 1110 327 l 1,31,-1
 904 327 l 1,32,33
 895 363 895 363 893 397.5 c 128,-1,34
 891 432 891 432 889 463 c 128,-1,35
 887 494 887 494 882.5 520 c 128,-1,36
 878 546 878 546 863.5 565.5 c 128,-1,37
 849 585 849 585 821 597 c 128,-1,38
 793 609 793 609 746 612 c 2,39,-1
 699 615 l 1,40,-1
 655 615 l 1,41,-1
 655 327 l 1,42,-1
 439 327 l 1,10,-1
332 1162 m 1,43,44
 156 983 156 983 156 737 c 0,45,46
 156 481 156 481 335 304 c 0,47,48
 426 214 426 214 531 169.5 c 128,-1,49
 636 125 636 125 763 125 c 0,50,51
 1013 125 1013 125 1190 305 c 0,52,53
 1369 486 1369 486 1368 737 c 0,54,55
 1368 982 1368 982 1191 1162 c 0,56,57
 1100 1255 1100 1255 995.5 1300.5 c 128,-1,58
 891 1346 891 1346 763 1346 c 0,59,60
 509 1346 509 1346 332 1162 c 1,43,44
1279 208 m 0,61,62
 1065 0 1065 0 763 0 c 0,63,64
 452 0 452 0 239 213 c 256,65,66
 26 426 26 426 26 737 c 0,67,68
 26 1059 26 1059 256 1274 c 0,69,70
 471 1474 471 1474 763 1474 c 0,71,72
 1068 1474 1068 1474 1284 1258 c 256,73,74
 1500 1042 1500 1042 1500 737 c 0,75,76
 1500 423 1500 423 1279 208 c 0,61,62
EndSplineSet
Substitution2: "<17001,16003> Urdu lookup 85 subtable" registered
EndChar

StartChar: copyright
Encoding: 169 169 139
Width: 1509
GlyphClass: 2
Flags: W
LayerCount: 2
Fore
SplineSet
781 300 m 1,0,1
 699 300 699 300 624 330.5 c 128,-1,2
 549 361 549 361 492 418 c 128,-1,3
 435 475 435 475 401.5 555.5 c 128,-1,4
 368 636 368 636 368 735 c 0,5,6
 368 825 368 825 394.5 905 c 128,-1,7
 421 985 421 985 472 1044.5 c 128,-1,8
 523 1104 523 1104 596.5 1138.5 c 128,-1,9
 670 1173 670 1173 763 1173 c 0,10,11
 838 1173 838 1173 901.5 1152.5 c 128,-1,12
 965 1132 965 1132 1013.5 1091.5 c 128,-1,13
 1062 1051 1062 1051 1094.5 991 c 128,-1,14
 1127 931 1127 931 1140 851 c 1,15,-1
 951 854 l 1,16,17
 943 897 943 897 926 926 c 128,-1,18
 909 955 909 955 885.5 972 c 128,-1,19
 862 989 862 989 835 996.5 c 128,-1,20
 808 1004 808 1004 779 1004 c 0,21,22
 738 1004 738 1004 703.5 987 c 128,-1,23
 669 970 669 970 644 935.5 c 128,-1,24
 619 901 619 901 605 850 c 128,-1,25
 591 799 591 799 591 730 c 256,26,27
 591 661 591 661 607 612 c 128,-1,28
 623 563 623 563 650 531.5 c 128,-1,29
 677 500 677 500 713 485 c 128,-1,30
 749 470 749 470 789 470 c 0,31,32
 827 470 827 470 854.5 481 c 128,-1,33
 882 492 882 492 901.5 511 c 128,-1,34
 921 530 921 530 933 556.5 c 128,-1,35
 945 583 945 583 951 614 c 1,36,-1
 1135 614 l 1,37,38
 1121 526 1121 526 1085.5 466.5 c 128,-1,39
 1050 407 1050 407 1001.5 370 c 128,-1,40
 953 333 953 333 896 317 c 128,-1,41
 839 301 839 301 781 300 c 1,0,1
332 1162 m 1,42,43
 156 983 156 983 156 737 c 0,44,45
 156 481 156 481 335 304 c 0,46,47
 426 214 426 214 531 169.5 c 128,-1,48
 636 125 636 125 763 125 c 0,49,50
 1013 125 1013 125 1190 305 c 0,51,52
 1369 486 1369 486 1368 737 c 0,53,54
 1368 982 1368 982 1191 1162 c 0,55,56
 1100 1255 1100 1255 995.5 1300.5 c 128,-1,57
 891 1346 891 1346 763 1346 c 0,58,59
 509 1346 509 1346 332 1162 c 1,42,43
1279 208 m 0,60,61
 1065 0 1065 0 763 0 c 0,62,63
 452 0 452 0 239 213 c 256,64,65
 26 426 26 426 26 737 c 0,66,67
 26 1059 26 1059 256 1274 c 0,68,69
 471 1474 471 1474 763 1474 c 0,70,71
 1068 1474 1068 1474 1284 1258 c 256,72,73
 1500 1042 1500 1042 1500 737 c 0,74,75
 1500 423 1500 423 1279 208 c 0,60,61
EndSplineSet
Substitution2: "<17001,16003> Urdu lookup 85 subtable" copyright
EndChar

StartChar: trademark
Encoding: 8482 8482 140
Width: 2048
GlyphClass: 2
Flags: W
LayerCount: 2
Fore
SplineSet
191 1294 m 1,0,-1
 191 1474 l 1,1,-1
 847 1474 l 1,2,-1
 847 1294 l 1,3,-1
 627 1294 l 1,4,-1
 627 731 l 1,5,-1
 409 731 l 1,6,-1
 409 1294 l 1,7,-1
 191 1294 l 1,0,-1
1221 1474 m 1,8,-1
 1354 1050 l 1,9,10
 1387 1156 1387 1156 1420 1262 c 128,-1,11
 1453 1368 1453 1368 1486 1474 c 1,12,-1
 1796 1474 l 1,13,-1
 1796 731 l 1,14,-1
 1597 731 l 1,15,-1
 1597 1262 l 1,16,17
 1558 1128 1558 1128 1517.5 996.5 c 128,-1,18
 1477 865 1477 865 1438 731 c 1,19,-1
 1269 731 l 1,20,-1
 1110 1262 l 1,21,-1
 1110 731 l 1,22,-1
 911 731 l 1,23,-1
 911 1474 l 1,24,-1
 1221 1474 l 1,8,-1
EndSplineSet
Substitution2: "<17001,16003> Urdu lookup 85 subtable" trademark
EndChar

StartChar: acute
Encoding: 180 180 141
Width: 676
GlyphClass: 2
Flags: W
LayerCount: 2
Fore
SplineSet
685 1536 m 1,0,-1
 379 1235 l 1,1,-1
 170 1235 l 1,2,-1
 363 1536 l 1,3,-1
 685 1536 l 1,0,-1
EndSplineSet
Substitution2: "<17001,16003> Urdu lookup 85 subtable" acute
EndChar

StartChar: dieresis
Encoding: 168 168 142
Width: 676
GlyphClass: 2
Flags: W
LayerCount: 2
Fore
SplineSet
410 1493 m 1,0,-1
 673 1493 l 1,1,-1
 673 1254 l 1,2,-1
 410 1254 l 1,3,-1
 410 1493 l 1,0,-1
10 1493 m 1,4,-1
 273 1493 l 1,5,-1
 273 1254 l 1,6,-1
 10 1254 l 1,7,-1
 10 1493 l 1,4,-1
EndSplineSet
Substitution2: "<17001,16003> Urdu lookup 85 subtable" dieresis
EndChar

StartChar: notequal
Encoding: 8800 8800 143
Width: 1100
GlyphClass: 2
Flags: W
LayerCount: 2
Fore
SplineSet
1089 652 m 1,0,-1
 726 652 l 1,1,2
 706 601 706 601 681 541 c 128,-1,3
 656 481 656 481 634 427 c 1,4,-1
 1089 427 l 1,5,-1
 1089 180 l 1,6,-1
 518 180 l 1,7,8
 496 132 496 132 472 80.5 c 128,-1,9
 448 29 448 29 426 -19 c 1,10,-1
 192 -19 l 1,11,12
 212 29 212 29 235 80.5 c 128,-1,13
 258 132 258 132 279 180 c 1,14,-1
 10 180 l 1,15,-1
 10 427 l 1,16,-1
 391 427 l 1,17,18
 416 484 416 484 441 540.5 c 128,-1,19
 466 597 466 597 491 652 c 1,20,-1
 10 652 l 1,21,-1
 10 901 l 1,22,-1
 602 901 l 1,23,24
 623 949 623 949 647 1000 c 128,-1,25
 671 1051 671 1051 692 1099 c 1,26,-1
 926 1099 l 1,27,28
 906 1054 906 1054 884 1003 c 128,-1,29
 862 952 862 952 839 901 c 1,30,-1
 1089 901 l 1,31,-1
 1089 652 l 1,0,-1
EndSplineSet
Substitution2: "<17001,16003> Urdu lookup 85 subtable" notequal
EndChar

StartChar: notequal_mirror
Encoding: 59600 59600 144
Width: 1100
GlyphClass: 2
Flags: W
LayerCount: 2
Fore
SplineSet
10 901 m 1,0,-1
 260 901 l 1,1,2
 238 949 238 949 216.5 1000 c 128,-1,3
 195 1051 195 1051 173 1099 c 1,4,-1
 407 1099 l 1,5,-1
 497 901 l 1,6,-1
 1089 901 l 1,7,-1
 1089 652 l 1,8,-1
 608 652 l 1,9,10
 634 597 634 597 658.5 540.5 c 128,-1,11
 683 484 683 484 708 427 c 1,12,-1
 1089 427 l 1,13,-1
 1089 180 l 1,14,-1
 820 180 l 1,15,16
 840 132 840 132 863.5 80.5 c 128,-1,17
 887 29 887 29 907 -19 c 1,18,-1
 673 -19 l 1,19,-1
 581 180 l 1,20,-1
 10 180 l 1,21,-1
 10 427 l 1,22,-1
 464 427 l 1,23,24
 444 481 444 481 419 541 c 128,-1,25
 394 601 394 601 372 652 c 1,26,-1
 10 652 l 1,27,-1
 10 901 l 1,0,-1
EndSplineSet
Substitution2: "<17001,16003> Urdu lookup 85 subtable" notequal_mirror
EndChar

StartChar: AE
Encoding: 198 198 145
Width: 2042
GlyphClass: 2
Flags: W
LayerCount: 2
Fore
SplineSet
882 1216 m 1,0,-1
 751 1216 l 1,1,2
 696 1054 696 1054 638 886 c 128,-1,3
 580 718 580 718 525 555 c 1,4,-1
 882 555 l 1,5,-1
 882 1216 l 1,0,-1
551 1469 m 1,6,-1
 1945 1469 l 1,7,-1
 1945 1211 l 1,8,-1
 1187 1211 l 1,9,-1
 1187 897 l 1,10,-1
 1869 897 l 1,11,-1
 1869 643 l 1,12,-1
 1187 643 l 1,13,-1
 1187 262 l 1,14,-1
 1959 262 l 1,15,-1
 1959 0 l 1,16,-1
 882 0 l 1,17,-1
 882 312 l 1,18,-1
 444 312 l 1,19,20
 418 236 418 236 390.5 156 c 128,-1,21
 363 76 363 76 337 0 c 1,22,-1
 15 0 l 1,23,-1
 551 1469 l 1,6,-1
EndSplineSet
Substitution2: "<17001,16003> Urdu lookup 85 subtable" AE
Ligature2: "<17013,16013> Roman in Latin lookup 84 subtable" A E
EndChar

StartChar: Oslash
Encoding: 216 216 146
Width: 1587
GlyphClass: 2
Flags: W
LayerCount: 2
Fore
SplineSet
802 222 m 0,0,1
 1014 222 1014 222 1108 382 c 1,2,3
 1201 543 1201 543 1201 739 c 0,4,5
 1201 820 1201 820 1188.5 896 c 128,-1,6
 1176 972 1176 972 1153 1029 c 1,7,8
 998 859 998 859 840 685 c 128,-1,9
 682 511 682 511 527 342 c 1,10,11
 587 279 587 279 658 250.5 c 128,-1,12
 729 222 729 222 802 222 c 0,0,1
981 1216 m 1,13,14
 911 1256 911 1256 802 1256 c 0,15,16
 695 1256 695 1256 619.5 1219 c 128,-1,17
 544 1182 544 1182 496 1114.5 c 128,-1,18
 448 1047 448 1047 426 951.5 c 128,-1,19
 404 856 404 856 404 739 c 0,20,21
 404 697 404 697 406.5 662.5 c 128,-1,22
 409 628 409 628 415 593.5 c 128,-1,23
 421 559 421 559 431 523 c 128,-1,24
 441 487 441 487 456 442 c 1,25,26
 614 616 614 616 771.5 789.5 c 128,-1,27
 929 963 929 963 1087 1136 c 1,28,29
 1048 1181 1048 1181 981 1216 c 1,13,14
1444 1527 m 1,30,-1
 1531 1444 l 1,31,-1
 1363 1257 l 1,32,33
 1390 1223 1390 1223 1415.5 1175 c 128,-1,34
 1441 1127 1441 1127 1464 1066 c 0,35,36
 1488 1003 1488 1003 1498 921 c 128,-1,37
 1508 839 1508 839 1509 739 c 1,38,39
 1509 569 1509 569 1458.5 426 c 128,-1,40
 1408 283 1408 283 1315.5 179 c 128,-1,41
 1223 75 1223 75 1092.5 17 c 128,-1,42
 962 -41 962 -41 802 -41 c 0,43,44
 743 -41 743 -41 681.5 -31 c 128,-1,45
 620 -21 620 -21 559 0 c 128,-1,46
 498 21 498 21 440 52.5 c 128,-1,47
 382 84 382 84 329 127 c 1,48,49
 286 82 286 82 241.5 34.5 c 128,-1,50
 197 -13 197 -13 154 -58 c 1,51,-1
 67 24 l 1,52,-1
 249 214 l 1,53,54
 221 252 221 252 195.5 302.5 c 128,-1,55
 170 353 170 353 148 410 c 1,56,57
 122 482 122 482 110 563.5 c 128,-1,58
 98 645 98 645 96 739 c 1,59,60
 96 1085 96 1085 314 1333 c 1,61,62
 502 1519 502 1519 802 1519 c 0,63,64
 864 1519 864 1519 929 1506.5 c 128,-1,65
 994 1494 994 1494 1056.5 1471.5 c 128,-1,66
 1119 1449 1119 1449 1176 1418 c 128,-1,67
 1233 1387 1233 1387 1280 1349 c 1,68,-1
 1444 1527 l 1,30,-1
EndSplineSet
Substitution2: "<17001,16003> Urdu lookup 85 subtable" Oslash
EndChar

StartChar: infinity
Encoding: 8734 8734 147
Width: 1460
GlyphClass: 2
Flags: W
LayerCount: 2
Fore
SplineSet
1069 925 m 256,0,1
 1032 925 1032 925 1004.5 916 c 128,-1,2
 977 907 977 907 954 884.5 c 128,-1,3
 931 862 931 862 909 824.5 c 128,-1,4
 887 787 887 787 860 730 c 1,5,6
 883 685 883 685 904.5 649 c 128,-1,7
 926 613 926 613 950 588 c 128,-1,8
 974 563 974 563 1003 550 c 128,-1,9
 1032 537 1032 537 1069 537 c 0,10,11
 1145 537 1145 537 1186.5 590.5 c 128,-1,12
 1228 644 1228 644 1228 737 c 0,13,14
 1228 779 1228 779 1217 813.5 c 128,-1,15
 1206 848 1206 848 1185.5 873 c 128,-1,16
 1165 898 1165 898 1135.5 911.5 c 128,-1,17
 1106 925 1106 925 1069 925 c 256,0,1
610 737 m 1,18,19
 583 791 583 791 558.5 827.5 c 128,-1,20
 534 864 534 864 507 886.5 c 128,-1,21
 480 909 480 909 449.5 919 c 128,-1,22
 419 929 419 929 381 929 c 0,23,24
 352 929 352 929 325.5 914.5 c 128,-1,25
 299 900 299 900 279 874.5 c 128,-1,26
 259 849 259 849 247.5 814 c 128,-1,27
 236 779 236 779 236 737 c 0,28,29
 236 644 236 644 275.5 590.5 c 128,-1,30
 315 537 315 537 381 537 c 0,31,32
 426 537 426 537 459.5 550 c 128,-1,33
 493 563 493 563 519 588.5 c 128,-1,34
 545 614 545 614 566.5 651 c 128,-1,35
 588 688 588 688 610 737 c 1,18,19
1069 1141 m 0,36,37
 1157 1141 1157 1141 1223.5 1110 c 128,-1,38
 1290 1079 1290 1079 1335 1025 c 128,-1,39
 1380 971 1380 971 1403 897 c 128,-1,40
 1426 823 1426 823 1426 737 c 0,41,42
 1426 649 1426 649 1404 574.5 c 128,-1,43
 1382 500 1382 500 1337.5 445.5 c 128,-1,44
 1293 391 1293 391 1226 360 c 128,-1,45
 1159 329 1159 329 1069 329 c 0,46,47
 958 329 958 329 866 403 c 1,48,49
 833 431 833 431 803 468.5 c 128,-1,50
 773 506 773 506 741 551 c 1,51,52
 672 439 672 439 581 383 c 128,-1,53
 490 327 490 327 381 327 c 0,54,55
 290 327 290 327 224.5 358 c 128,-1,56
 159 389 159 389 116.5 444 c 128,-1,57
 74 499 74 499 54 574 c 128,-1,58
 34 649 34 649 34 737 c 0,59,60
 34 824 34 824 58.5 897.5 c 128,-1,61
 83 971 83 971 128.5 1025 c 128,-1,62
 174 1079 174 1079 238 1109.5 c 128,-1,63
 302 1140 302 1140 381 1140 c 0,64,65
 477 1140 477 1140 559 1091 c 0,66,67
 641 1043 641 1043 722 920 c 1,68,69
 807 1037 807 1037 883 1089 c 0,70,71
 923 1116 923 1116 969 1128.5 c 128,-1,72
 1015 1141 1015 1141 1069 1141 c 0,36,37
EndSplineSet
Substitution2: "<17001,16003> Urdu lookup 85 subtable" infinity
EndChar

StartChar: plusminus
Encoding: 177 177 148
Width: 1100
GlyphClass: 2
Flags: W
LayerCount: 2
Fore
SplineSet
981 279 m 1,0,-1
 982 64 l 1,1,-1
 113 64 l 1,2,-1
 112 279 l 1,3,-1
 981 279 l 1,0,-1
112 554 m 1,4,-1
 112 768 l 1,5,-1
 436 768 l 1,6,-1
 436 1004 l 1,7,-1
 665 1004 l 1,8,-1
 665 768 l 1,9,-1
 981 768 l 1,10,-1
 981 554 l 1,11,-1
 665 554 l 1,12,-1
 665 332 l 1,13,-1
 436 332 l 1,14,-1
 436 554 l 1,15,-1
 112 554 l 1,4,-1
EndSplineSet
Substitution2: "<17001,16003> Urdu lookup 85 subtable" plusminus
EndChar

StartChar: lessequal
Encoding: 8804 8804 149
Width: 1100
GlyphClass: 2
Flags: W
LayerCount: 2
Fore
SplineSet
111 66 m 1,0,-1
 110 283 l 1,1,-1
 983 283 l 1,2,-1
 984 66 l 1,3,-1
 111 66 l 1,0,-1
110 562 m 1,4,-1
 110 787 l 1,5,-1
 983 1044 l 1,6,-1
 983 810 l 1,7,-1
 409 676 l 1,8,9
 554 642 554 642 696 608.5 c 128,-1,10
 838 575 838 575 983 540 c 1,11,-1
 983 306 l 1,12,-1
 110 562 l 1,4,-1
EndSplineSet
Substitution2: "<17001,16003> Urdu lookup 85 subtable" lessequal
EndChar

StartChar: greaterequal
Encoding: 8805 8805 150
Width: 1100
GlyphClass: 2
Flags: W
LayerCount: 2
Fore
SplineSet
114 289 m 1,0,-1
 982 289 l 1,1,-1
 983 78 l 1,2,-1
 115 78 l 1,3,-1
 114 289 l 1,0,-1
114 536 m 1,4,-1
 669 668 l 1,5,6
 529 700 529 700 390.5 732.5 c 128,-1,7
 252 765 252 765 114 798 c 1,8,-1
 114 1024 l 1,9,-1
 982 776 l 1,10,-1
 982 558 l 1,11,-1
 114 310 l 1,12,-1
 114 536 l 1,4,-1
EndSplineSet
Substitution2: "<17001,16003> Urdu lookup 85 subtable" greaterequal
EndChar

StartChar: yen
Encoding: 165 165 151
Width: 1139
GlyphClass: 2
Flags: W
LayerCount: 2
Fore
SplineSet
1161 1431 m 1,0,-1
 934 961 l 1,1,-1
 1076 961 l 1,2,-1
 1076 823 l 1,3,-1
 868 823 l 1,4,5
 842 769 842 769 814.5 715 c 128,-1,6
 787 661 787 661 761 607 c 1,7,-1
 1042 607 l 1,8,-1
 1042 470 l 1,9,-1
 723 470 l 1,10,-1
 723 0 l 1,11,-1
 430 0 l 1,12,-1
 430 470 l 1,13,-1
 113 470 l 1,14,-1
 113 607 l 1,15,-1
 391 607 l 1,16,17
 364 661 364 661 337.5 715 c 128,-1,18
 311 769 311 769 284 823 c 1,19,-1
 71 823 l 1,20,-1
 71 961 l 1,21,-1
 217 961 l 1,22,23
 159 1076 159 1076 98 1196 c 128,-1,24
 37 1316 37 1316 -23 1431 c 1,25,-1
 318 1431 l 1,26,-1
 583 810 l 1,27,-1
 835 1431 l 1,28,-1
 1161 1431 l 1,0,-1
EndSplineSet
Substitution2: "<17001,16003> Urdu lookup 85 subtable" yen
EndChar

StartChar: mu
Encoding: 181 181 152
Width: 1180
GlyphClass: 2
Flags: W
LayerCount: 2
Fore
SplineSet
486 1090 m 1,0,-1
 356 362 l 2,1,2
 356 357 356 357 354.5 348.5 c 128,-1,3
 353 340 353 340 353 332 c 0,4,5
 353 297 353 297 367 273.5 c 128,-1,6
 381 250 381 250 403 236.5 c 128,-1,7
 425 223 425 223 450.5 217.5 c 128,-1,8
 476 212 476 212 498 212 c 0,9,10
 534 212 534 212 568 223.5 c 128,-1,11
 602 235 602 235 632 254 c 128,-1,12
 662 273 662 273 686.5 298.5 c 128,-1,13
 711 324 711 324 728 352 c 0,14,15
 741 373 741 373 751 397.5 c 128,-1,16
 761 422 761 422 770.5 457 c 128,-1,17
 780 492 780 492 790 542.5 c 128,-1,18
 800 593 800 593 813 666 c 0,19,20
 833 772 833 772 852.5 878.5 c 128,-1,21
 872 985 872 985 892 1090 c 1,22,-1
 1177 1090 l 1,23,-1
 983 2 l 1,24,-1
 719 2 l 1,25,-1
 746 179 l 1,26,27
 724 145 724 145 688.5 107.5 c 128,-1,28
 653 70 653 70 609.5 39 c 128,-1,29
 566 8 566 8 516 -12 c 128,-1,30
 466 -32 466 -32 413 -32 c 0,31,32
 371 -32 371 -32 338.5 -20.5 c 128,-1,33
 306 -9 306 -9 289 6 c 1,34,35
 267 -115 267 -115 245.5 -234 c 128,-1,36
 224 -353 224 -353 202 -474 c 1,37,-1
 -89 -474 l 1,38,-1
 195 1090 l 1,39,-1
 486 1090 l 1,0,-1
EndSplineSet
Substitution2: "<17001,16003> Urdu lookup 85 subtable" mu
EndChar

StartChar: partialdiff
Encoding: 8706 8706 153
Width: 1100
GlyphClass: 2
Flags: W
LayerCount: 2
Fore
SplineSet
498 179 m 0,0,1
 548 179 548 179 593 199.5 c 128,-1,2
 638 220 638 220 671.5 258 c 128,-1,3
 705 296 705 296 725 349 c 128,-1,4
 745 402 745 402 745 467 c 0,5,6
 745 515 745 515 732.5 556.5 c 128,-1,7
 720 598 720 598 695 629 c 128,-1,8
 670 660 670 660 631.5 678 c 128,-1,9
 593 696 593 696 541 696 c 0,10,11
 487 696 487 696 441.5 672.5 c 128,-1,12
 396 649 396 649 363 608.5 c 128,-1,13
 330 568 330 568 311.5 513 c 128,-1,14
 293 458 293 458 293 395 c 0,15,16
 293 343 293 343 310.5 303 c 128,-1,17
 328 263 328 263 356.5 235.5 c 128,-1,18
 385 208 385 208 422 193.5 c 128,-1,19
 459 179 459 179 498 179 c 0,0,1
15 415 m 0,20,21
 15 527 15 527 53 621.5 c 128,-1,22
 91 716 91 716 158.5 784.5 c 128,-1,23
 226 853 226 853 318 891.5 c 128,-1,24
 410 930 410 930 517 930 c 0,25,26
 562 930 562 930 606.5 917.5 c 128,-1,27
 651 905 651 905 690 884.5 c 128,-1,28
 729 864 729 864 760.5 836.5 c 128,-1,29
 792 809 792 809 812 779 c 1,30,31
 814 807 814 807 815.5 833 c 128,-1,32
 817 859 817 859 817 876 c 0,33,34
 817 953 817 953 803 1030.5 c 128,-1,35
 789 1108 789 1108 760 1170 c 128,-1,36
 731 1232 731 1232 686.5 1270.5 c 128,-1,37
 642 1309 642 1309 580 1309 c 0,38,39
 548 1309 548 1309 522 1297.5 c 128,-1,40
 496 1286 496 1286 469 1262 c 1,41,-1
 327 1454 l 1,42,43
 399 1489 399 1489 460 1505.5 c 128,-1,44
 521 1522 521 1522 584 1522 c 0,45,46
 699 1522 699 1522 791.5 1469 c 128,-1,47
 884 1416 884 1416 949.5 1318.5 c 128,-1,48
 1015 1221 1015 1221 1050 1082 c 128,-1,49
 1085 943 1085 943 1085 772 c 0,50,51
 1085 443 1085 443 911 207 c 0,52,53
 729 -41 729 -41 457 -41 c 0,54,55
 357 -41 357 -41 275.5 -4.5 c 128,-1,56
 194 32 194 32 136 94 c 128,-1,57
 78 156 78 156 46.5 239 c 128,-1,58
 15 322 15 322 15 415 c 0,20,21
EndSplineSet
Substitution2: "<17001,16003> Urdu lookup 85 subtable" partialdiff
EndChar

StartChar: partialdiff_mirror
Encoding: 59601 59601 154
Width: 1100
GlyphClass: 2
Flags: W
LayerCount: 2
Fore
SplineSet
602 179 m 0,0,1
 642 179 642 179 679 193.5 c 128,-1,2
 716 208 716 208 744.5 236 c 128,-1,3
 773 264 773 264 790 304 c 128,-1,4
 807 344 807 344 807 395 c 0,5,6
 807 458 807 458 788.5 513 c 128,-1,7
 770 568 770 568 737 608.5 c 128,-1,8
 704 649 704 649 658.5 672.5 c 128,-1,9
 613 696 613 696 559 696 c 0,10,11
 507 696 507 696 468.5 678 c 128,-1,12
 430 660 430 660 405 629 c 128,-1,13
 380 598 380 598 367.5 556.5 c 128,-1,14
 355 515 355 515 355 467 c 0,15,16
 355 403 355 403 375 350 c 128,-1,17
 395 297 395 297 428.5 259 c 128,-1,18
 462 221 462 221 507 200 c 128,-1,19
 552 179 552 179 602 179 c 0,0,1
1085 415 m 0,20,21
 1085 321 1085 321 1052.5 238 c 128,-1,22
 1020 155 1020 155 961.5 93 c 128,-1,23
 903 31 903 31 822 -5 c 128,-1,24
 741 -41 741 -41 643 -41 c 0,25,26
 371 -41 371 -41 189 207 c 1,27,28
 15 442 15 442 15 772 c 0,29,30
 15 943 15 943 50.5 1082 c 128,-1,31
 86 1221 86 1221 151 1318.5 c 128,-1,32
 216 1416 216 1416 308.5 1469 c 128,-1,33
 401 1522 401 1522 516 1522 c 0,34,35
 579 1522 579 1522 640 1505.5 c 128,-1,36
 701 1489 701 1489 773 1454 c 1,37,-1
 631 1262 l 1,38,39
 604 1286 604 1286 578 1297.5 c 128,-1,40
 552 1309 552 1309 520 1309 c 0,41,42
 459 1309 459 1309 414 1270.5 c 128,-1,43
 369 1232 369 1232 340 1170 c 128,-1,44
 311 1108 311 1108 297 1030.5 c 128,-1,45
 283 953 283 953 283 876 c 0,46,47
 283 859 283 859 284.5 833 c 128,-1,48
 286 807 286 807 288 779 c 1,49,50
 309 809 309 809 341 836.5 c 128,-1,51
 373 864 373 864 412 885 c 128,-1,52
 451 906 451 906 494.5 918 c 128,-1,53
 538 930 538 930 583 930 c 0,54,55
 693 930 693 930 785 890.5 c 128,-1,56
 877 851 877 851 944 781.5 c 128,-1,57
 1011 712 1011 712 1048 618 c 128,-1,58
 1085 524 1085 524 1085 415 c 0,20,21
EndSplineSet
Substitution2: "<17001,16003> Urdu lookup 85 subtable" partialdiff_mirror
EndChar

StartChar: summation
Encoding: 8721 8721 155
Width: 1100
GlyphClass: 2
Flags: W
LayerCount: 2
Fore
SplineSet
1075 1473 m 1,0,-1
 1075 1233 l 1,1,-1
 422 1233 l 1,2,3
 442 1210 442 1210 474 1163 c 128,-1,4
 506 1116 506 1116 544.5 1057 c 128,-1,5
 583 998 583 998 626.5 931.5 c 128,-1,6
 670 865 670 865 712 801.5 c 128,-1,7
 754 738 754 738 793 682.5 c 128,-1,8
 832 627 832 627 862 591 c 1,9,-1
 413 -70 l 1,10,-1
 1094 -70 l 1,11,-1
 1094 -308 l 1,12,-1
 6 -308 l 1,13,-1
 6 -111 l 1,14,-1
 506 591 l 1,15,16
 495 604 495 604 470.5 638.5 c 128,-1,17
 446 673 446 673 412.5 721 c 128,-1,18
 379 769 379 769 339.5 827 c 128,-1,19
 300 885 300 885 260 944 c 128,-1,20
 220 1003 220 1003 182 1059.5 c 128,-1,21
 144 1116 144 1116 113 1161 c 128,-1,22
 82 1206 82 1206 61 1236 c 128,-1,23
 40 1266 40 1266 34 1273 c 1,24,-1
 34 1473 l 1,25,-1
 1075 1473 l 1,0,-1
EndSplineSet
Substitution2: "<17001,16003> Urdu lookup 85 subtable" summation
EndChar

StartChar: summation_mirror
Encoding: 59602 59602 156
Width: 1100
GlyphClass: 2
Flags: W
LayerCount: 2
Fore
SplineSet
1066 1473 m 1,0,-1
 1066 1273 l 1,1,2
 1060 1266 1060 1266 1039 1236 c 128,-1,3
 1018 1206 1018 1206 987 1161 c 128,-1,4
 956 1116 956 1116 918 1059.5 c 128,-1,5
 880 1003 880 1003 840 944 c 128,-1,6
 800 885 800 885 760.5 827 c 128,-1,7
 721 769 721 769 687.5 721 c 128,-1,8
 654 673 654 673 629.5 638.5 c 128,-1,9
 605 604 605 604 594 591 c 1,10,-1
 1094 -111 l 1,11,-1
 1094 -308 l 1,12,-1
 6 -308 l 1,13,-1
 6 -70 l 1,14,-1
 687 -70 l 1,15,-1
 238 591 l 1,16,17
 269 627 269 627 308 681.5 c 128,-1,18
 347 736 347 736 389 799.5 c 128,-1,19
 431 863 431 863 474.5 930 c 128,-1,20
 518 997 518 997 556.5 1056.5 c 128,-1,21
 595 1116 595 1116 626.5 1162.5 c 128,-1,22
 658 1209 658 1209 678 1233 c 1,23,-1
 25 1233 l 1,24,-1
 25 1473 l 1,25,-1
 1066 1473 l 1,0,-1
EndSplineSet
Substitution2: "<17001,16003> Urdu lookup 85 subtable" summation_mirror
EndChar

StartChar: product
Encoding: 8719 8719 157
Width: 1686
GlyphClass: 2
Flags: W
LayerCount: 2
Fore
SplineSet
1397 -300 m 1,0,-1
 1090 -300 l 1,1,-1
 1090 1218 l 1,2,-1
 611 1218 l 1,3,-1
 611 -300 l 1,4,-1
 304 -300 l 1,5,-1
 304 1218 l 1,6,-1
 117 1218 l 1,7,-1
 117 1474 l 1,8,-1
 1584 1474 l 1,9,-1
 1584 1218 l 1,10,-1
 1397 1218 l 1,11,-1
 1397 -300 l 1,0,-1
EndSplineSet
Substitution2: "<17001,16003> Urdu lookup 85 subtable" product
EndChar

StartChar: pi
Encoding: 960 960 158
Width: 1124
GlyphClass: 2
Flags: W
LayerCount: 2
Fore
SplineSet
110 851 m 1,0,-1
 -15 851 l 1,1,-1
 -15 1066 l 1,2,-1
 1154 1066 l 1,3,-1
 1154 851 l 1,4,-1
 1029 851 l 1,5,-1
 1029 0 l 1,6,-1
 742 0 l 1,7,-1
 742 851 l 1,8,-1
 398 851 l 1,9,-1
 398 0 l 1,10,-1
 110 0 l 1,11,-1
 110 851 l 1,0,-1
EndSplineSet
Substitution2: "<17001,16003> Urdu lookup 85 subtable" pi
EndChar

StartChar: integral
Encoding: 8747 8747 159
Width: 1100
GlyphClass: 2
Flags: W
LayerCount: 2
Fore
SplineSet
619 -246 m 0,0,1
 539 -431 539 -431 335 -431 c 0,2,3
 290 -431 290 -431 234 -419.5 c 128,-1,4
 178 -408 178 -408 124 -388 c 1,5,-1
 148 -160 l 1,6,7
 186 -181 186 -181 209.5 -190 c 128,-1,8
 233 -199 233 -199 262 -199 c 0,9,10
 334 -199 334 -199 359 -120 c 0,11,12
 368 -93 368 -93 373 -39.5 c 128,-1,13
 378 14 378 14 381 95 c 2,14,-1
 419 1014 l 2,15,16
 430 1258 430 1258 477 1368 c 0,17,18
 515 1456 515 1456 587.5 1501 c 128,-1,19
 660 1546 660 1546 763 1546 c 0,20,21
 788 1546 788 1546 824.5 1541 c 128,-1,22
 861 1536 861 1536 894.5 1529 c 128,-1,23
 928 1522 928 1522 952 1515.5 c 128,-1,24
 976 1509 976 1509 976 1506 c 0,25,26
 976 1505 976 1505 975 1505 c 0,27,28
 970 1448 970 1448 964.5 1391.5 c 128,-1,29
 959 1335 959 1335 954 1278 c 1,30,31
 919 1295 919 1295 892.5 1304 c 128,-1,32
 866 1313 866 1313 833 1313 c 0,33,34
 797 1313 797 1313 770.5 1293.5 c 128,-1,35
 744 1274 744 1274 730 1234 c 1,36,37
 722 1207 722 1207 715.5 1151 c 128,-1,38
 709 1095 709 1095 706 1014 c 2,39,-1
 670 43 l 2,40,41
 662 -146 662 -146 619 -246 c 0,0,1
EndSplineSet
Substitution2: "<17001,16003> Urdu lookup 85 subtable" integral
EndChar

StartChar: integral_mirror
Encoding: 59603 59603 160
Width: 1100
GlyphClass: 2
Flags: W
LayerCount: 2
Fore
SplineSet
481 -246 m 0,0,1
 438 -146 438 -146 430 43 c 2,2,-1
 394 1014 l 2,3,4
 391 1095 391 1095 384.5 1151 c 128,-1,5
 378 1207 378 1207 370 1234 c 1,6,7
 356 1274 356 1274 329.5 1293.5 c 128,-1,8
 303 1313 303 1313 267 1313 c 0,9,10
 234 1313 234 1313 207.5 1304 c 128,-1,11
 181 1295 181 1295 146 1278 c 1,12,-1
 125 1505 l 2,13,14
 124 1505 124 1505 124 1506 c 0,15,16
 124 1509 124 1509 148 1515.5 c 128,-1,17
 172 1522 172 1522 205.5 1529 c 128,-1,18
 239 1536 239 1536 275.5 1541 c 128,-1,19
 312 1546 312 1546 337 1546 c 0,20,21
 440 1546 440 1546 512.5 1501 c 128,-1,22
 585 1456 585 1456 623 1368 c 0,23,24
 670 1258 670 1258 681 1014 c 2,25,-1
 719 95 l 1,26,27
 727 -68 727 -68 741 -120 c 1,28,29
 754 -160 754 -160 778.5 -179.5 c 128,-1,30
 803 -199 803 -199 838 -199 c 0,31,32
 867 -199 867 -199 890.5 -190 c 128,-1,33
 914 -181 914 -181 952 -160 c 1,34,-1
 976 -388 l 1,35,36
 922 -408 922 -408 866 -419.5 c 128,-1,37
 810 -431 810 -431 765 -431 c 0,38,39
 561 -431 561 -431 481 -246 c 0,0,1
EndSplineSet
Substitution2: "<17001,16003> Urdu lookup 85 subtable" integral_mirror
EndChar

StartChar: ordfeminine
Encoding: 170 170 161
Width: 752
GlyphClass: 2
Flags: W
LayerCount: 2
Fore
SplineSet
477 1167 m 1,0,1
 460 1156 460 1156 445.5 1150.5 c 128,-1,2
 431 1145 431 1145 399 1140 c 2,3,-1
 352 1133 l 2,4,5
 283 1123 283 1123 253.5 1097 c 128,-1,6
 224 1071 224 1071 224 1036 c 0,7,8
 224 997 224 997 250.5 976.5 c 128,-1,9
 277 956 277 956 319 956 c 0,10,11
 335 956 335 956 355.5 960.5 c 128,-1,12
 376 965 376 965 396.5 974 c 128,-1,13
 417 983 417 983 435 997.5 c 128,-1,14
 453 1012 453 1012 463 1031 c 0,15,16
 474 1051 474 1051 477 1105 c 1,17,-1
 477 1167 l 1,0,1
414 1256 m 2,18,19
 441 1260 441 1260 459 1273 c 128,-1,20
 477 1286 477 1286 477 1309 c 0,21,22
 477 1347 477 1347 447 1364.5 c 128,-1,23
 417 1382 417 1382 357 1382 c 0,24,25
 304 1382 304 1382 278.5 1359.5 c 128,-1,26
 253 1337 253 1337 242 1292 c 1,27,-1
 60 1292 l 1,28,29
 68 1352 68 1352 89 1395 c 128,-1,30
 110 1438 110 1438 145.5 1465.5 c 128,-1,31
 181 1493 181 1493 232 1506 c 128,-1,32
 283 1519 283 1519 352 1519 c 0,33,34
 435 1519 435 1519 494 1507.5 c 128,-1,35
 553 1496 553 1496 590 1469.5 c 128,-1,36
 627 1443 627 1443 644 1401 c 128,-1,37
 661 1359 661 1359 661 1299 c 2,38,-1
 661 978 l 2,39,40
 661 940 661 940 669 913.5 c 128,-1,41
 677 887 677 887 702 878 c 1,42,-1
 702 840 l 1,43,-1
 500 840 l 1,44,45
 493 857 493 857 488.5 873.5 c 128,-1,46
 484 890 484 890 484 914 c 1,47,48
 453 887 453 887 426.5 869 c 128,-1,49
 400 851 400 851 373.5 839.5 c 128,-1,50
 347 828 347 828 320 823.5 c 128,-1,51
 293 819 293 819 262 819 c 0,52,53
 209 819 209 819 167 834 c 128,-1,54
 125 849 125 849 96 876 c 128,-1,55
 67 903 67 903 51.5 940 c 128,-1,56
 36 977 36 977 36 1021 c 0,57,58
 36 1066 36 1066 49 1102 c 128,-1,59
 62 1138 62 1138 91.5 1165.5 c 128,-1,60
 121 1193 121 1193 168.5 1211.5 c 128,-1,61
 216 1230 216 1230 286 1239 c 2,62,-1
 414 1256 l 2,18,19
EndSplineSet
Substitution2: "<17001,16003> Urdu lookup 85 subtable" ordfeminine
EndChar

StartChar: ordmasculine
Encoding: 186 186 162
Width: 742
GlyphClass: 2
Flags: W
LayerCount: 2
Fore
SplineSet
372 966 m 256,0,1
 456 966 456 966 496.5 1021.5 c 128,-1,2
 537 1077 537 1077 537 1169 c 0,3,4
 537 1215 537 1215 527 1252.5 c 128,-1,5
 517 1290 517 1290 496.5 1317 c 128,-1,6
 476 1344 476 1344 445 1358.5 c 128,-1,7
 414 1373 414 1373 372 1373 c 0,8,9
 288 1373 288 1373 245.5 1317 c 128,-1,10
 203 1261 203 1261 203 1169 c 256,11,12
 203 1077 203 1077 245.5 1021.5 c 128,-1,13
 288 966 288 966 372 966 c 256,0,1
734 1169 m 0,14,15
 734 1090 734 1090 709.5 1025.5 c 128,-1,16
 685 961 685 961 638.5 915 c 128,-1,17
 592 869 592 869 525 844 c 128,-1,18
 458 819 458 819 372 819 c 0,19,20
 287 819 287 819 219.5 844 c 128,-1,21
 152 869 152 869 105.5 915 c 128,-1,22
 59 961 59 961 34.5 1025.5 c 128,-1,23
 10 1090 10 1090 10 1169 c 0,24,25
 10 1249 10 1249 34.5 1313.5 c 128,-1,26
 59 1378 59 1378 105.5 1424 c 128,-1,27
 152 1470 152 1470 219.5 1495 c 128,-1,28
 287 1520 287 1520 372 1520 c 0,29,30
 458 1520 458 1520 525 1495 c 128,-1,31
 592 1470 592 1470 638.5 1424 c 128,-1,32
 685 1378 685 1378 709.5 1313.5 c 128,-1,33
 734 1249 734 1249 734 1169 c 0,14,15
EndSplineSet
Substitution2: "<17001,16003> Urdu lookup 85 subtable" ordmasculine
EndChar

StartChar: Omegagreek
Encoding: 937 937 163
Width: 1593
GlyphClass: 2
Flags: W
LayerCount: 2
Fore
SplineSet
68 252 m 1,0,-1
 379 252 l 1,1,-1
 379 254 l 1,2,3
 324 289 324 289 276.5 339.5 c 128,-1,4
 229 390 229 390 192 457 c 0,5,6
 154 526 154 526 133.5 613 c 128,-1,7
 113 700 113 700 113 812 c 0,8,9
 113 1058 113 1058 268 1264 c 1,10,11
 310 1315 310 1315 363.5 1354.5 c 128,-1,12
 417 1394 417 1394 481 1423 c 256,13,14
 545 1452 545 1452 624 1467 c 128,-1,15
 703 1482 703 1482 797 1483 c 0,16,17
 891 1483 891 1483 971.5 1466.5 c 128,-1,18
 1052 1450 1052 1450 1118 1423 c 1,19,20
 1184 1393 1184 1393 1237.5 1353 c 128,-1,21
 1291 1313 1291 1313 1329 1264 c 1,22,23
 1407 1158 1407 1158 1444 1046 c 128,-1,24
 1481 934 1481 934 1481 807 c 0,25,26
 1481 698 1481 698 1460.5 611 c 128,-1,27
 1440 524 1440 524 1405 457 c 1,28,29
 1368 391 1368 391 1319.5 340.5 c 128,-1,30
 1271 290 1271 290 1214 255 c 1,31,-1
 1214 252 l 1,32,-1
 1526 252 l 1,33,-1
 1526 0 l 1,34,-1
 927 0 l 1,35,-1
 927 276 l 1,36,37
 1053 367 1053 367 1110 486.5 c 128,-1,38
 1167 606 1167 606 1167 762 c 0,39,40
 1167 860 1167 860 1146 943.5 c 128,-1,41
 1125 1027 1125 1027 1080 1087.5 c 128,-1,42
 1035 1148 1035 1148 965 1183 c 128,-1,43
 895 1218 895 1218 797 1219 c 1,44,45
 698 1218 698 1218 627.5 1182 c 128,-1,46
 557 1146 557 1146 512.5 1083 c 128,-1,47
 468 1020 468 1020 447 934.5 c 128,-1,48
 426 849 426 849 426 748 c 0,49,50
 426 451 426 451 667 276 c 1,51,-1
 667 0 l 1,52,-1
 68 0 l 1,53,-1
 68 252 l 1,0,-1
EndSplineSet
Substitution2: "<17001,16003> Urdu lookup 85 subtable" Omegagreek
EndChar

StartChar: ae
Encoding: 230 230 164
Width: 1815
GlyphClass: 2
Flags: W
LayerCount: 2
Fore
SplineSet
1450 659 m 1,0,1
 1445 707 1445 707 1429 748.5 c 128,-1,2
 1413 790 1413 790 1386 820.5 c 128,-1,3
 1359 851 1359 851 1320.5 869 c 128,-1,4
 1282 887 1282 887 1232 887 c 0,5,6
 1126 887 1126 887 1070.5 829 c 128,-1,7
 1015 771 1015 771 1007 659 c 1,8,-1
 1450 659 l 1,0,1
740 519 m 1,9,10
 730 512 730 512 723.5 507.5 c 128,-1,11
 717 503 717 503 706.5 499.5 c 128,-1,12
 696 496 696 496 678 491.5 c 128,-1,13
 660 487 660 487 627 480 c 2,14,-1
 519 458 l 2,15,16
 463 447 463 447 428 433.5 c 128,-1,17
 393 420 393 420 373.5 402 c 128,-1,18
 354 384 354 384 347 359 c 128,-1,19
 340 334 340 334 340 300 c 0,20,21
 340 278 340 278 348 255.5 c 128,-1,22
 356 233 356 233 374 214.5 c 128,-1,23
 392 196 392 196 421.5 184 c 128,-1,24
 451 172 451 172 493 172 c 0,25,26
 607 172 607 172 673.5 233 c 128,-1,27
 740 294 740 294 740 412 c 2,28,-1
 740 519 l 1,9,10
596 662 m 1,29,30
 675 676 675 676 708.5 698 c 128,-1,31
 742 720 742 720 742 766 c 0,32,33
 742 888 742 888 548 888 c 0,34,35
 464 888 464 888 420 851.5 c 128,-1,36
 376 815 376 815 371 733 c 1,37,-1
 91 733 l 1,38,39
 100 923 100 923 223.5 1018.5 c 128,-1,40
 347 1114 347 1114 576 1114 c 0,41,42
 705 1114 705 1114 804 1071 c 0,43,44
 860 1046 860 1046 919 999 c 1,45,46
 979 1050 979 1050 1059 1082 c 128,-1,47
 1139 1114 1139 1114 1242 1114 c 0,48,49
 1488 1114 1488 1114 1618 963 c 128,-1,50
 1748 812 1748 812 1748 504 c 2,51,-1
 1748 473 l 1,52,-1
 1003 473 l 1,53,54
 1005 330 1005 330 1055 261.5 c 128,-1,55
 1105 193 1105 193 1221 193 c 0,56,57
 1260 193 1260 193 1294.5 198.5 c 128,-1,58
 1329 204 1329 204 1357.5 219 c 128,-1,59
 1386 234 1386 234 1408 260.5 c 128,-1,60
 1430 287 1430 287 1445 329 c 1,61,-1
 1736 329 l 1,62,63
 1724 226 1724 226 1637 127 c 0,64,65
 1495 -36 1495 -36 1231 -36 c 0,66,67
 1164 -36 1164 -36 1106 -22.5 c 128,-1,68
 1048 -9 1048 -9 1000 15 c 128,-1,69
 952 39 952 39 914.5 72.5 c 128,-1,70
 877 106 877 106 850 145 c 1,71,72
 775 51 775 51 673 7 c 128,-1,73
 571 -37 571 -37 436 -37 c 0,74,75
 333 -37 333 -37 260.5 -10 c 128,-1,76
 188 17 188 17 142 63 c 128,-1,77
 96 109 96 109 74.5 169 c 128,-1,78
 53 229 53 229 53 296 c 0,79,80
 53 370 53 370 73 427 c 128,-1,81
 93 484 93 484 137 525.5 c 128,-1,82
 181 567 181 567 251 594 c 128,-1,83
 321 621 321 621 422 636 c 2,84,-1
 596 662 l 1,29,30
EndSplineSet
Substitution2: "<17001,16003> Urdu lookup 85 subtable" ae
Ligature2: "<17013,16013> Roman in Latin lookup 84 subtable" a e
EndChar

StartChar: oslash
Encoding: 248 248 165
Width: 1245
GlyphClass: 2
Flags: W
LayerCount: 2
Fore
SplineSet
512 225 m 0,0,1
 559 201 559 201 628 201 c 0,2,3
 689 201 689 201 735.5 226.5 c 128,-1,4
 782 252 782 252 813.5 297.5 c 128,-1,5
 845 343 845 343 861 405 c 128,-1,6
 877 467 877 467 877 539 c 0,7,8
 877 565 877 565 876 583.5 c 128,-1,9
 875 602 875 602 873 620 c 128,-1,10
 871 638 871 638 866.5 660 c 128,-1,11
 862 682 862 682 855 716 c 1,12,13
 752 607 752 607 649.5 498 c 128,-1,14
 547 389 547 389 444 280 c 1,15,16
 464 261 464 261 482 246.5 c 128,-1,17
 500 232 500 232 512 225 c 0,0,1
699 871 m 0,18,19
 656 883 656 883 615 883 c 0,20,21
 557 883 557 883 509.5 859.5 c 128,-1,22
 462 836 462 836 429 792.5 c 128,-1,23
 396 749 396 749 378 687.5 c 128,-1,24
 360 626 360 626 360 549 c 0,25,26
 360 501 360 501 366.5 452.5 c 128,-1,27
 373 404 373 404 390 369 c 1,28,29
 493 478 493 478 596.5 588.5 c 128,-1,30
 700 699 700 699 803 808 c 1,31,32
 784 828 784 828 757.5 845 c 128,-1,33
 731 862 731 862 699 871 c 0,18,19
608 -41 m 0,34,35
 479 -41 479 -41 373 3 c 0,36,37
 344 16 344 16 312.5 35.5 c 128,-1,38
 281 55 281 55 249 79 c 1,39,40
 216 44 216 44 181.5 8 c 128,-1,41
 147 -28 147 -28 114 -63 c 1,42,-1
 38 1 l 1,43,-1
 180 145 l 1,44,45
 113 236 113 236 87 345 c 0,46,47
 75 399 75 399 70 448 c 128,-1,48
 65 497 65 497 63 542 c 1,49,50
 63 665 63 665 100.5 771.5 c 128,-1,51
 138 878 138 878 207.5 956.5 c 128,-1,52
 277 1035 277 1035 376.5 1080 c 128,-1,53
 476 1125 476 1125 599 1125 c 0,54,55
 739 1125 739 1125 829 1094 c 0,56,57
 872 1080 872 1080 914 1056.5 c 128,-1,58
 956 1033 956 1033 991 1004 c 1,59,60
 1025 1039 1025 1039 1060 1076 c 128,-1,61
 1095 1113 1095 1113 1129 1148 c 1,62,-1
 1202 1079 l 1,63,-1
 1059 931 l 1,64,65
 1122 844 1122 844 1149.5 745 c 128,-1,66
 1177 646 1177 646 1177 552 c 0,67,68
 1177 422 1177 422 1138.5 313 c 128,-1,69
 1100 204 1100 204 1026.5 125 c 128,-1,70
 953 46 953 46 847.5 2.5 c 128,-1,71
 742 -41 742 -41 608 -41 c 0,34,35
EndSplineSet
Substitution2: "<17001,16003> Urdu lookup 85 subtable" oslash
EndChar

StartChar: questiondown
Encoding: 191 191 166
Width: 1245
GlyphClass: 2
Flags: W
LayerCount: 2
Fore
SplineSet
756 795 m 1,0,-1
 455 795 l 1,1,-1
 455 1085 l 1,2,-1
 756 1085 l 1,3,-1
 756 795 l 1,0,-1
632 -403 m 0,4,5
 518 -403 518 -403 421.5 -376 c 128,-1,6
 325 -349 325 -349 255 -295 c 128,-1,7
 185 -241 185 -241 145.5 -161 c 128,-1,8
 106 -81 106 -81 106 24 c 0,9,10
 106 157 106 157 170 245 c 0,11,12
 196 282 196 282 254 330.5 c 128,-1,13
 312 379 312 379 387 437 c 0,14,15
 414 457 414 457 431 477 c 128,-1,16
 448 497 448 497 458 522 c 128,-1,17
 468 547 468 547 472 580 c 128,-1,18
 476 613 476 613 477 659 c 1,19,-1
 749 659 l 1,20,21
 746 577 746 577 737.5 518.5 c 128,-1,22
 729 460 729 460 716 426 c 1,23,24
 702 394 702 394 668.5 356 c 128,-1,25
 635 318 635 318 583 277 c 2,26,-1
 510 220 l 1,27,28
 459 178 459 178 435.5 137 c 128,-1,29
 412 96 412 96 412 38 c 0,30,31
 412 -7 412 -7 426 -43.5 c 128,-1,32
 440 -80 440 -80 465.5 -106 c 128,-1,33
 491 -132 491 -132 527.5 -146 c 128,-1,34
 564 -160 564 -160 610 -160 c 0,35,36
 662 -160 662 -160 702.5 -142 c 128,-1,37
 743 -124 743 -124 771.5 -92.5 c 128,-1,38
 800 -61 800 -61 815 -17.5 c 128,-1,39
 830 26 830 26 830 77 c 1,40,-1
 1120 77 l 1,41,42
 1108 -205 1108 -205 959 -304 c 0,43,44
 809 -403 809 -403 632 -403 c 0,4,5
EndSplineSet
Substitution2: "<17001,16003> Urdu lookup 85 subtable" questiondown
EndChar

StartChar: exclamdown
Encoding: 161 161 167
Width: 742
GlyphClass: 2
Flags: W
LayerCount: 2
Fore
SplineSet
372 711 m 256,0,1
 336 711 336 711 304 724.5 c 128,-1,2
 272 738 272 738 249 762 c 128,-1,3
 226 786 226 786 212.5 817.5 c 128,-1,4
 199 849 199 849 199 885 c 256,5,6
 199 921 199 921 212.5 952.5 c 128,-1,7
 226 984 226 984 249.5 1007.5 c 128,-1,8
 273 1031 273 1031 304.5 1044.5 c 128,-1,9
 336 1058 336 1058 373 1058 c 256,10,11
 410 1058 410 1058 441.5 1044.5 c 128,-1,12
 473 1031 473 1031 496.5 1007.5 c 128,-1,13
 520 984 520 984 533.5 952 c 128,-1,14
 547 920 547 920 547 883 c 0,15,16
 547 847 547 847 533 815.5 c 128,-1,17
 519 784 519 784 495.5 760.5 c 128,-1,18
 472 737 472 737 440 724 c 128,-1,19
 408 711 408 711 372 711 c 256,0,1
369 -386 m 0,20,21
 336 -386 336 -386 304.5 -375 c 128,-1,22
 273 -364 273 -364 248.5 -339.5 c 128,-1,23
 224 -315 224 -315 209.5 -276.5 c 128,-1,24
 195 -238 195 -238 195 -182 c 0,25,26
 195 -164 195 -164 199 -138 c 128,-1,27
 203 -112 203 -112 212.5 -73.5 c 128,-1,28
 222 -35 222 -35 236.5 18 c 128,-1,29
 251 71 251 71 272 143 c 0,30,31
 286 189 286 189 295 229 c 128,-1,32
 304 269 304 269 309 300 c 256,33,34
 314 331 314 331 321.5 393.5 c 128,-1,35
 329 456 329 456 340 552 c 1,36,-1
 401 552 l 1,37,38
 415 431 415 431 424.5 358 c 128,-1,39
 434 285 434 285 439 257 c 0,40,41
 442 242 442 242 448.5 216 c 128,-1,42
 455 190 455 190 463.5 158 c 128,-1,43
 472 126 472 126 481.5 91.5 c 128,-1,44
 491 57 491 57 500 25.5 c 128,-1,45
 509 -6 509 -6 516 -31.5 c 128,-1,46
 523 -57 523 -57 527 -71 c 0,47,48
 537 -106 537 -106 539.5 -132 c 128,-1,49
 542 -158 542 -158 543 -177 c 1,50,51
 543 -235 543 -235 529 -275 c 128,-1,52
 515 -315 515 -315 491 -339.5 c 128,-1,53
 467 -364 467 -364 435.5 -375 c 128,-1,54
 404 -386 404 -386 369 -386 c 0,20,21
EndSplineSet
Substitution2: "<17001,16003> Urdu lookup 85 subtable" exclamdown
EndChar

StartChar: logicalnot
Encoding: 172 172 168
Width: 1100
GlyphClass: 2
Flags: W
LayerCount: 2
Fore
SplineSet
1061 908 m 1,0,-1
 1061 177 l 1,1,-1
 797 177 l 1,2,-1
 797 643 l 1,3,-1
 57 643 l 1,4,-1
 57 908 l 1,5,-1
 1061 908 l 1,0,-1
EndSplineSet
Substitution2: "<17001,16003> Urdu lookup 85 subtable" logicalnot
EndChar

StartChar: radical
Encoding: 8730 8730 169
Width: 1100
GlyphClass: 2
Flags: W
LayerCount: 2
Fore
SplineSet
305 -38 m 1,0,-1
 36 870 l 1,1,2
 -7 844 -7 844 -51.5 816.5 c 128,-1,3
 -96 789 -96 789 -139 763 c 1,4,-1
 -218 903 l 1,5,-1
 172 1125 l 1,6,-1
 419 211 l 1,7,8
 553 634 553 634 686.5 1057.5 c 128,-1,9
 820 1481 820 1481 953 1904 c 1,10,-1
 1123 1904 l 1,11,-1
 520 -38 l 1,12,-1
 305 -38 l 1,0,-1
EndSplineSet
Substitution2: "<17001,16003> Urdu lookup 85 subtable" radical
EndChar

StartChar: radical_mirror
Encoding: 59598 59598 170
Width: 1100
GlyphClass: 2
Flags: W
LayerCount: 2
Fore
SplineSet
580 -38 m 1,0,-1
 -23 1904 l 1,1,-1
 147 1904 l 1,2,-1
 681 211 l 1,3,4
 744 441 744 441 804.5 668 c 128,-1,5
 865 895 865 895 928 1125 c 1,6,-1
 1318 903 l 1,7,-1
 1239 763 l 1,8,-1
 1064 870 l 1,9,10
 997 641 997 641 930.5 416 c 128,-1,11
 864 191 864 191 795 -38 c 1,12,-1
 580 -38 l 1,0,-1
EndSplineSet
Substitution2: "<17001,16003> Urdu lookup 85 subtable" radical_mirror
EndChar

StartChar: florin
Encoding: 402 402 171
Width: 1139
GlyphClass: 2
Flags: W
LayerCount: 2
Fore
SplineSet
1057 1240 m 1,0,1
 1023 1258 1023 1258 997.5 1266.5 c 128,-1,2
 972 1275 972 1275 945 1275 c 0,3,4
 910 1275 910 1275 882 1261.5 c 128,-1,5
 854 1248 854 1248 832 1206 c 1,6,7
 815 1164 815 1164 802.5 1105.5 c 128,-1,8
 790 1047 790 1047 778 977 c 1,9,-1
 1024 977 l 1,10,-1
 1024 776 l 1,11,-1
 750 776 l 1,12,13
 721 595 721 595 689.5 409.5 c 128,-1,14
 658 224 658 224 629 43 c 1,15,16
 607 -83 607 -83 573.5 -172.5 c 128,-1,17
 540 -262 540 -262 492.5 -319.5 c 128,-1,18
 445 -377 445 -377 382 -404 c 128,-1,19
 319 -431 319 -431 238 -431 c 0,20,21
 190 -431 190 -431 133 -419 c 128,-1,22
 76 -407 76 -407 30 -388 c 1,23,-1
 80 -160 l 1,24,25
 98 -170 98 -170 112 -177 c 128,-1,26
 126 -184 126 -184 138 -188.5 c 128,-1,27
 150 -193 150 -193 162.5 -195.5 c 128,-1,28
 175 -198 175 -198 190 -198 c 0,29,30
 226 -198 226 -198 249 -184.5 c 128,-1,31
 272 -171 272 -171 288.5 -137.5 c 128,-1,32
 305 -104 305 -104 317.5 -47.5 c 128,-1,33
 330 9 330 9 345 95 c 0,34,35
 359 176 359 176 373.5 262 c 128,-1,36
 388 348 388 348 403 435.5 c 128,-1,37
 418 523 418 523 432.5 609 c 128,-1,38
 447 695 447 695 461 776 c 1,39,-1
 212 776 l 1,40,-1
 212 977 l 1,41,-1
 492 977 l 1,42,43
 506 1043 506 1043 520.5 1102.5 c 128,-1,44
 535 1162 535 1162 549.5 1211.5 c 128,-1,45
 564 1261 564 1261 578.5 1299 c 128,-1,46
 593 1337 593 1337 606 1359 c 0,47,48
 696 1507 696 1507 903 1507 c 0,49,50
 933 1507 933 1507 958 1505 c 128,-1,51
 983 1503 983 1503 1007 1498.5 c 128,-1,52
 1031 1494 1031 1494 1055 1486.5 c 128,-1,53
 1079 1479 1079 1479 1106 1469 c 1,54,-1
 1057 1240 l 1,0,1
EndSplineSet
Substitution2: "<17001,16003> Urdu lookup 85 subtable" florin
EndChar

StartChar: approxequal
Encoding: 8776 8776 172
Width: 1100
GlyphClass: 2
Flags: W
LayerCount: 2
Fore
SplineSet
997 617 m 0,0,1
 903 565 903 565 809 565 c 0,2,3
 712 565 712 565 540 642 c 256,4,5
 368 719 368 719 285 719 c 0,6,7
 238 719 238 719 202 710 c 128,-1,8
 166 701 166 701 134.5 682.5 c 128,-1,9
 103 664 103 664 73 635.5 c 128,-1,10
 43 607 43 607 8 568 c 1,11,-1
 8 849 l 1,12,13
 71 905 71 905 137 940 c 128,-1,14
 203 975 203 975 288 975 c 0,15,16
 384 975 384 975 556 898 c 0,17,18
 730 821 730 821 800 821 c 0,19,20
 887 821 887 821 959 861.5 c 128,-1,21
 1031 902 1031 902 1091 972 c 1,22,-1
 1091 684 l 1,23,24
 1074 667 1074 667 1050 650.5 c 128,-1,25
 1026 634 1026 634 997 617 c 0,0,1
288 517 m 1,26,27
 385 517 385 517 557 440 c 0,28,29
 731 363 731 363 800 363 c 0,30,31
 878 363 878 363 956 403.5 c 128,-1,32
 1034 444 1034 444 1091 516 c 1,33,-1
 1091 227 l 1,34,35
 1062 201 1062 201 1027.5 179 c 128,-1,36
 993 157 993 157 956.5 141.5 c 128,-1,37
 920 126 920 126 882.5 117.5 c 128,-1,38
 845 109 845 109 809 109 c 0,39,40
 707 109 707 109 542 184 c 0,41,42
 457 222 457 222 394.5 241 c 128,-1,43
 332 260 332 260 285 260 c 0,44,45
 239 260 239 260 204 253 c 128,-1,46
 169 246 169 246 137.5 228.5 c 128,-1,47
 106 211 106 211 75.5 182.5 c 128,-1,48
 45 154 45 154 8 111 c 1,49,-1
 8 392 l 1,50,51
 41 422 41 422 72 445 c 128,-1,52
 103 468 103 468 135.5 483.5 c 128,-1,53
 168 499 168 499 205 507.5 c 128,-1,54
 242 516 242 516 288 517 c 1,26,27
EndSplineSet
Substitution2: "<17001,16003> Urdu lookup 85 subtable" approxequal
EndChar

StartChar: approxequal_mirror
Encoding: 59599 59599 173
Width: 1100
GlyphClass: 2
Flags: W
LayerCount: 2
Fore
SplineSet
102 617 m 0,0,1
 73 634 73 634 49 650.5 c 128,-1,2
 25 667 25 667 8 684 c 1,3,-1
 8 972 l 1,4,5
 68 902 68 902 140 861.5 c 128,-1,6
 212 821 212 821 299 821 c 0,7,8
 370 821 370 821 542 898 c 0,9,10
 716 975 716 975 811 975 c 0,11,12
 896 975 896 975 962 940 c 128,-1,13
 1028 905 1028 905 1091 849 c 1,14,-1
 1091 568 l 1,15,16
 1056 608 1056 608 1025.5 636.5 c 128,-1,17
 995 665 995 665 963.5 683.5 c 128,-1,18
 932 702 932 702 896 710.5 c 128,-1,19
 860 719 860 719 814 719 c 0,20,21
 730 719 730 719 558 642 c 256,22,23
 386 565 386 565 290 565 c 0,24,25
 196 565 196 565 102 617 c 0,0,1
811 517 m 1,26,27
 856 516 856 516 893 507.5 c 128,-1,28
 930 499 930 499 963 483.5 c 128,-1,29
 996 468 996 468 1027 445 c 128,-1,30
 1058 422 1058 422 1091 392 c 1,31,-1
 1091 111 l 1,32,33
 1021 195 1021 195 962 227 c 1,34,35
 905 260 905 260 814 260 c 0,36,37
 718 260 718 260 556 184 c 1,38,39
 393 109 393 109 290 109 c 0,40,41
 254 109 254 109 216.5 117.5 c 128,-1,42
 179 126 179 126 142.5 141.5 c 128,-1,43
 106 157 106 157 71.5 179 c 128,-1,44
 37 201 37 201 8 227 c 1,45,-1
 8 516 l 1,46,47
 68 440 68 440 144.5 401.5 c 128,-1,48
 221 363 221 363 299 363 c 0,49,50
 369 363 369 363 541 440 c 0,51,52
 715 517 715 517 811 517 c 1,26,27
EndSplineSet
Substitution2: "<17001,16003> Urdu lookup 85 subtable" approxequal_mirror
EndChar

